<svg class="marks" width="451" height="347" viewBox="0 0 451 347" version="1.1" xmlns="http://www.w3.org/2000/svg" xmlns:xlink="http://www.w3.org/1999/xlink"><rect width="451" height="347" fill="white"></rect><g fill="none" stroke-miterlimit="10" transform="translate(44,10)"><g class="mark-group role-frame root" role="graphics-object" aria-roledescription="group mark container"><g transform="translate(0,0)"><path class="background" aria-hidden="true" d="M0.5,0.5h400v300h-400Z" stroke="#ddd"></path><g><g class="mark-group role-axis" role="graphics-symbol" aria-roledescription="axis" aria-label="X-axis for a linear scale with values from 0.0 to 3.5"><g transform="translate(0.5,300.5)"><path class="background" aria-hidden="true" d="M0,0h0v0h0Z" pointer-events="none"></path><g><g class="mark-rule role-axis-grid" pointer-events="none"><line transform="translate(0,-300)" x2="0" y2="300" stroke="#ddd" stroke-width="1" opacity="1"></line><line transform="translate(57,-300)" x2="0" y2="300" stroke="#ddd" stroke-width="1" opacity="1"></line><line transform="translate(114,-300)" x2="0" y2="300" stroke="#ddd" stroke-width="1" opacity="1"></line><line transform="translate(171,-300)" x2="0" y2="300" stroke="#ddd" stroke-width="1" opacity="1"></line><line transform="translate(229,-300)" x2="0" y2="300" stroke="#ddd" stroke-width="1" opacity="1"></line><line transform="translate(286,-300)" x2="0" y2="300" stroke="#ddd" stroke-width="1" opacity="1"></line><line transform="translate(343,-300)" x2="0" y2="300" stroke="#ddd" stroke-width="1" opacity="1"></line><line transform="translate(400,-300)" x2="0" y2="300" stroke="#ddd" stroke-width="1" opacity="1"></line></g></g><path class="foreground" aria-hidden="true" d="" pointer-events="none" display="none"></path></g></g><g class="mark-group role-axis" role="graphics-symbol" aria-roledescription="axis" aria-label="Y-axis for a linear scale with values from 0 to 100"><g transform="translate(0.5,0.5)"><path class="background" aria-hidden="true" d="M0,0h0v0h0Z" pointer-events="none"></path><g><g class="mark-rule role-axis-grid" pointer-events="none"><line transform="translate(0,300)" x2="400" y2="0" stroke="#ddd" stroke-width="1" opacity="1"></line><line transform="translate(0,270)" x2="400" y2="0" stroke="#ddd" stroke-width="1" opacity="1"></line><line transform="translate(0,240)" x2="400" y2="0" stroke="#ddd" stroke-width="1" opacity="1"></line><line transform="translate(0,210)" x2="400" y2="0" stroke="#ddd" stroke-width="1" opacity="1"></line><line transform="translate(0,180)" x2="400" y2="0" stroke="#ddd" stroke-width="1" opacity="1"></line><line transform="translate(0,150)" x2="400" y2="0" stroke="#ddd" stroke-width="1" opacity="1"></line><line transform="translate(0,120)" x2="400" y2="0" stroke="#ddd" stroke-width="1" opacity="1"></line><line transform="translate(0,90)" x2="400" y2="0" stroke="#ddd" stroke-width="1" opacity="1"></line><line transform="translate(0,60)" x2="400" y2="0" stroke="#ddd" stroke-width="1" opacity="1"></line><line transform="translate(0,30)" x2="400" y2="0" stroke="#ddd" stroke-width="1" opacity="1"></line><line transform="translate(0,0)" x2="400" y2="0" stroke="#ddd" stroke-width="1" opacity="1"></line></g></g><path class="foreground" aria-hidden="true" d="" pointer-events="none" display="none"></path></g></g><g class="mark-group role-axis" role="graphics-symbol" aria-roledescription="axis" aria-label="X-axis titled 'Early Infected' for a linear scale with values from 0.0 to 3.5"><g transform="translate(0.5,300.5)"><path class="background" aria-hidden="true" d="M0,0h0v0h0Z" pointer-events="none"></path><g><g class="mark-rule role-axis-tick" pointer-events="none"><line transform="translate(0,0)" x2="0" y2="5" stroke="#888" stroke-width="1" opacity="1"></line><line transform="translate(57,0)" x2="0" y2="5" stroke="#888" stroke-width="1" opacity="1"></line><line transform="translate(114,0)" x2="0" y2="5" stroke="#888" stroke-width="1" opacity="1"></line><line transform="translate(171,0)" x2="0" y2="5" stroke="#888" stroke-width="1" opacity="1"></line><line transform="translate(229,0)" x2="0" y2="5" stroke="#888" stroke-width="1" opacity="1"></line><line transform="translate(286,0)" x2="0" y2="5" stroke="#888" stroke-width="1" opacity="1"></line><line transform="translate(343,0)" x2="0" y2="5" stroke="#888" stroke-width="1" opacity="1"></line><line transform="translate(400,0)" x2="0" y2="5" stroke="#888" stroke-width="1" opacity="1"></line></g><g class="mark-text role-axis-label" pointer-events="none"><text text-anchor="start" transform="translate(0,15)" font-family="sans-serif" font-size="10px" fill="#000" opacity="1">0.0</text><text text-anchor="middle" transform="translate(57.14285714285714,15)" font-family="sans-serif" font-size="10px" fill="#000" opacity="1">0.5</text><text text-anchor="middle" transform="translate(114.28571428571428,15)" font-family="sans-serif" font-size="10px" fill="#000" opacity="1">1.0</text><text text-anchor="middle" transform="translate(171.42857142857142,15)" font-family="sans-serif" font-size="10px" fill="#000" opacity="1">1.5</text><text text-anchor="middle" transform="translate(228.57142857142856,15)" font-family="sans-serif" font-size="10px" fill="#000" opacity="1">2.0</text><text text-anchor="middle" transform="translate(285.7142857142857,15)" font-family="sans-serif" font-size="10px" fill="#000" opacity="1">2.5</text><text text-anchor="middle" transform="translate(342.85714285714283,15)" font-family="sans-serif" font-size="10px" fill="#000" opacity="1">3.0</text><text text-anchor="end" transform="translate(400,15)" font-family="sans-serif" font-size="10px" fill="#000" opacity="1">3.5</text></g><g class="mark-rule role-axis-domain" pointer-events="none"><line transform="translate(0,0)" x2="400" y2="0" stroke="#888" stroke-width="1" opacity="1"></line></g><g class="mark-text role-axis-title" pointer-events="none"><text text-anchor="middle" transform="translate(200,30)" font-family="sans-serif" font-size="11px" font-weight="bold" fill="#000" opacity="1">Early Infected</text></g></g><path class="foreground" aria-hidden="true" d="" pointer-events="none" display="none"></path></g></g><g class="mark-group role-axis" role="graphics-symbol" aria-roledescription="axis" aria-label="Y-axis titled 'Final Infected' for a linear scale with values from 0 to 100"><g transform="translate(0.5,0.5)"><path class="background" aria-hidden="true" d="M0,0h0v0h0Z" pointer-events="none"></path><g><g class="mark-rule role-axis-tick" pointer-events="none"><line transform="translate(0,300)" x2="-5" y2="0" stroke="#888" stroke-width="1" opacity="1"></line><line transform="translate(0,270)" x2="-5" y2="0" stroke="#888" stroke-width="1" opacity="1"></line><line transform="translate(0,240)" x2="-5" y2="0" stroke="#888" stroke-width="1" opacity="1"></line><line transform="translate(0,210)" x2="-5" y2="0" stroke="#888" stroke-width="1" opacity="1"></line><line transform="translate(0,180)" x2="-5" y2="0" stroke="#888" stroke-width="1" opacity="1"></line><line transform="translate(0,150)" x2="-5" y2="0" stroke="#888" stroke-width="1" opacity="1"></line><line transform="translate(0,120)" x2="-5" y2="0" stroke="#888" stroke-width="1" opacity="1"></line><line transform="translate(0,90)" x2="-5" y2="0" stroke="#888" stroke-width="1" opacity="1"></line><line transform="translate(0,60)" x2="-5" y2="0" stroke="#888" stroke-width="1" opacity="1"></line><line transform="translate(0,30)" x2="-5" y2="0" stroke="#888" stroke-width="1" opacity="1"></line><line transform="translate(0,0)" x2="-5" y2="0" stroke="#888" stroke-width="1" opacity="1"></line></g><g class="mark-text role-axis-label" pointer-events="none"><text text-anchor="end" transform="translate(-7,303)" font-family="sans-serif" font-size="10px" fill="#000" opacity="1">0</text><text text-anchor="end" transform="translate(-7,273)" font-family="sans-serif" font-size="10px" fill="#000" opacity="1">10</text><text text-anchor="end" transform="translate(-7,243)" font-family="sans-serif" font-size="10px" fill="#000" opacity="1">20</text><text text-anchor="end" transform="translate(-7,213)" font-family="sans-serif" font-size="10px" fill="#000" opacity="1">30</text><text text-anchor="end" transform="translate(-7,183)" font-family="sans-serif" font-size="10px" fill="#000" opacity="1">40</text><text text-anchor="end" transform="translate(-7,153)" font-family="sans-serif" font-size="10px" fill="#000" opacity="1">50</text><text text-anchor="end" transform="translate(-7,123)" font-family="sans-serif" font-size="10px" fill="#000" opacity="1">60</text><text text-anchor="end" transform="translate(-7,93.00000000000001)" font-family="sans-serif" font-size="10px" fill="#000" opacity="1">70</text><text text-anchor="end" transform="translate(-7,62.999999999999986)" font-family="sans-serif" font-size="10px" fill="#000" opacity="1">80</text><text text-anchor="end" transform="translate(-7,32.99999999999999)" font-family="sans-serif" font-size="10px" fill="#000" opacity="1">90</text><text text-anchor="end" transform="translate(-7,3)" font-family="sans-serif" font-size="10px" fill="#000" opacity="1">100</text></g><g class="mark-rule role-axis-domain" pointer-events="none"><line transform="translate(0,300)" x2="0" y2="-300" stroke="#888" stroke-width="1" opacity="1"></line></g><g class="mark-text role-axis-title" pointer-events="none"><text text-anchor="middle" transform="translate(-27.6845703125,150) rotate(-90) translate(0,-2)" font-family="sans-serif" font-size="11px" font-weight="bold" fill="#000" opacity="1">Final Infected</text></g></g><path class="foreground" aria-hidden="true" d="" pointer-events="none" display="none"></path></g></g><g class="mark-line role-mark layer_0_marks" role="graphics-symbol" aria-roledescription="line mark container"><path d="M6.852297774110687,297.4039293331965L7.025772213155242,295.9346123968907L7.203909109526433,293.48444529523414L7.3868132152333414,289.6589315205458L7.574590930411014,284.3040293881394L7.767350316103301,277.77599526923456L7.965201106960936,270.83118510778775L8.16825472398904,264.15169954616823L8.37662428717,258.0406221481347L8.59042462809589,252.4918435586888L8.809772302603802,247.38053530221177L9.034785603280644,242.58104271599257L9.26558457202478,238.00321960443455L9.50229101250826,233.5910309072921L9.745028502605237,229.31192054017745L9.993922406868728,225.14736244116528L10.249099888801789,221.08659211912834L10.510689923208059,217.12294455599357L10.778823308532624,213.25186315278208L11.05363267898747,209.46986665253212L11.335252516833918,205.7740305945628L11.623819164451547,202.16173333437632L11.919470836480993,198.6305338104546L12.222347631845116,195.17811327534946L12.532591545739391,191.8022474225788L12.850346481575995,188.50079267898928L13.175758262900242,185.27167897475894L13.508974645168706,182.11290541861655L13.850145327600375,179.02253725082596L14.199421964835482,175.99870334979232L14.55695817863496,173.03959398022712L14.922909569448928,170.143458654977L15.297433728045256,167.3086040627234L15.680690246884756,164.53339204712998L16.07284073163295,161.8162376358852L16.47404881243414,159.15560712223743L16.884480155274392,156.55001620228813L17.3043024731262,153.9980281706928L17.733685537148318,151.49825217649118L18.17280118776792,149.0493415398924L18.621823345635683,146.64999213006374L19.08092802259042,144.29894080339218L19.5502933325516,141.99496390121874L20.030099502201153,139.7368758057289L20.520528881759667,137.52352755244002L21.02176595557378,135.35380549756763L21.533997352643635,133.22663003845727L22.05741185708491,131.14095438520465L22.592200418485582,129.09576338156472L23.13855616214434,127.09007237325154L23.696674399338487,125.12292612175631L24.266752637327976,123.19339776182991L24.84899058935252,121.30058780083533L25.44359018464522,119.44362315822241L26.050755578051778,117.62165624342042L26.67069315991354,115.83386407052409L27.303611565542564,114.07944740818866L27.94972168477065,112.35762996322285L28.609236671311102,110.66765759642806L29.28237195206677,109.00879756928389L29.969345236308026,107.38033782015304L30.670376524682013,105.78158626872325L31.385688118176823,104.21187014746863L32.11550462696291,102.67053535896248L32.86005297912109,101.1569458579293L33.61956242912007,99.67048305697017L34.394264566399926,98.21054525494681L35.18439332366846,96.7765470870573L35.99018498499093,95.36791899567416L36.81187819408161,93.98410672106851L37.64971396204064,92.62457081117265L38.50393567525861,91.28878614958215L39.374789103027524,89.9762415010284L40.262522405165,88.68643907359348L41.16738613921594,87.41889409696522L42.08963326788143,86.17313441607246L43.0295191658962,84.94870009945946L43.9873016271661,83.7451430617975L44.96324087137092,82.5620266999521L45.95759955064125,81.39892554205377L46.97064275611039,80.2554249090463L48.00263802400313,79.13112058820514L49.05385534196752,78.02561851814737L50.124567154881596,76.9385344848728L51.21504837076149,75.8694938283958L52.32557636625835,74.81813115954826L53.456430992137946,73.78409008655291L54.60789457863216,72.7670229509834L55.78025194031425,71.76659057274104L56.97379038115836,70.78246200370494L58.18879969912288,69.81431428970743L59.42557219062212,68.86183224052844L60.684402655060325,67.92470820758885L61.9655883985842,67.0026418690561L63.269429238207344,66.09534002207691L64.59622750554884,65.20251638187005L65.94628805014493,64.32389138741918L67.31991824276282,63.45919201351782L68.71742797856317,62.60815158893263L70.13912967992084,61.77050962045409L71.58533829879735,60.94601162262029L73.05637131953479,60.13440895290304L74.55254876059503,59.33545865215714L76.07419317675308,58.54892329014051L77.62162966076635,57.77457081592359L79.195185844663,57.012174413007536L80.79519190111006,56.26151235898431L82.42198054416053,55.52236788957813L84.07588703023045,54.79452906690627L85.75724915828596,54.07778865181794L87.46640727023721,53.371943980158264L89.20370425067125,52.67679684282779L90.96948552666805,51.992153369498254L92.76409906697799,51.31782391586063L94.5878953814544,50.65362295428433L96.44122751954693,49.99936896776482L98.32445106911425,49.35488434705124L100.23792415442665,48.71999529084383L102.18200743444864,48.094531708956126L104.15706410018882,47.478327128341306L106.16345987239815,46.8712186018868L108.20156299836732,46.27304661988361L110.27174424889377,45.68365502408069L112.37437691453917,45.102890924238324L114.5098368021485,44.530604617097644L116.67850223015319,43.96664950768613L118.88075402448996,43.410882032882945L121.11697551362116,42.86316158716911L123.38755252333944,42.32335045049178L125.69287337135309,41.79131371817327L128.033328861344,41.26691923280057L130.40931227700287,40.75003751802843L132.8212193753322,40.24054171423697L135.26944837960204,39.73830751598415L137.75439997253582,39.243213111195416L140.27647728838397,38.75513912203549L142.83608590502325,38.273968547409275L145.4336338355823,37.79958670704091L148.0695315200206,37.33188118708196L150.744191815554,36.87074178719914L153.45802998746197,36.41606046909832L156.21146369929696,35.96773130643726L159.00491300233753,35.52565043608824L161.83880032519548,35.08971601070432L164.71355046272365,34.659828152554304L167.6295905642081,34.235888908583064L170.58735012207083,33.81780220666381L173.5872609589503,33.40547381300502L176.6297572154972,32.99881129067512L179.71527533699305,32.59772395921543L182.84425405956478,32.20212285530596L186.01713439678076,31.811920694452876L189.23435962445134,31.427031833668384L192.4963752664247,31.04737223511379L195.8036290787275,30.67285943067596L199.15657103395955,30.303412487451343L202.55565330529697,29.93895197411076L206.00133024922917,29.579399928117354L209.49405838885195,29.22467982377691L213.03429639610613,28.874716541092372L216.62250507325075,28.52943633540249L220.25914733493002,28.188766807779686L223.94468818865892,27.852636876167914L227.67959471512688,27.520976747237423L231.4643360483576,27.19371788893692L235.29938335529658,26.870793003723193L239.18520981404637,26.55213600244992L243.12229059300302,26.237681978896077L247.11110282842736,25.927367184916463L251.1521256017766,25.621129006197474L255.24583991659523,25.318905938599933L259.3927286748421,25.02063756507531L263.5932766527955,24.726264533136877L267.84797047628416,24.435728532871703L272.1572985950223,24.148972275478652L276.5217512574006,23.865939472318843L280.9418204837074,23.586574814462036L285.41800003919013,23.31082395271945L289.9507854067514,23.038633478145655L294.54067375874865,22.769950903000957L299.1881639286893,22.50472464215809L303.89375638142894,22.24290399494486L308.6579531839359,21.984439127408038L313.4812579749282,21.72928105498991L318.36417593356214,21.477381625605L323.3072137482371,21.22869350310692L328.31087958469544,20.983170151134523L333.37568305256184,20.740765817329066L338.5021351728692,20.50143551791075L343.69074834388687,20.265135022606128L348.9420363062356,20.031820839917536L354.25651410846154,19.801450202725423L359.6346980705317,19.573981054215395L365.0771057482381,19.349372034120304L370.58425589556816,19.127582465271253L376.15666842762215,18.90857234044837L381.79486438218737,18.692302309524067L387.499365880585,18.478733666891088L393.2706960889432,18.26782833916899L399.10937917705735,18.059548873180976" stroke="#4c78a8" stroke-width="2"></path></g><g class="mark-symbol role-mark layer_1_marks" role="graphics-symbol" aria-roledescription="symbol mark container"><path transform="translate(6.852297774110687,297.4039293331965)" d="M2.7386127875258306,0A2.7386127875258306,2.7386127875258306,0,1,1,-2.7386127875258306,0A2.7386127875258306,2.7386127875258306,0,1,1,2.7386127875258306,0" fill="#4c78a8" stroke-width="2" opacity="1"></path><path transform="translate(7.025772213155242,295.9346123968907)" d="M2.7386127875258306,0A2.7386127875258306,2.7386127875258306,0,1,1,-2.7386127875258306,0A2.7386127875258306,2.7386127875258306,0,1,1,2.7386127875258306,0" fill="#4c78a8" stroke-width="2" opacity="1"></path><path transform="translate(7.203909109526433,293.48444529523414)" d="M2.7386127875258306,0A2.7386127875258306,2.7386127875258306,0,1,1,-2.7386127875258306,0A2.7386127875258306,2.7386127875258306,0,1,1,2.7386127875258306,0" fill="#4c78a8" stroke-width="2" opacity="1"></path><path transform="translate(7.3868132152333414,289.6589315205458)" d="M2.7386127875258306,0A2.7386127875258306,2.7386127875258306,0,1,1,-2.7386127875258306,0A2.7386127875258306,2.7386127875258306,0,1,1,2.7386127875258306,0" fill="#4c78a8" stroke-width="2" opacity="1"></path><path transform="translate(7.574590930411014,284.3040293881394)" d="M2.7386127875258306,0A2.7386127875258306,2.7386127875258306,0,1,1,-2.7386127875258306,0A2.7386127875258306,2.7386127875258306,0,1,1,2.7386127875258306,0" fill="#4c78a8" stroke-width="2" opacity="1"></path><path transform="translate(7.767350316103301,277.77599526923456)" d="M2.7386127875258306,0A2.7386127875258306,2.7386127875258306,0,1,1,-2.7386127875258306,0A2.7386127875258306,2.7386127875258306,0,1,1,2.7386127875258306,0" fill="#4c78a8" stroke-width="2" opacity="1"></path><path transform="translate(7.965201106960936,270.83118510778775)" d="M2.7386127875258306,0A2.7386127875258306,2.7386127875258306,0,1,1,-2.7386127875258306,0A2.7386127875258306,2.7386127875258306,0,1,1,2.7386127875258306,0" fill="#4c78a8" stroke-width="2" opacity="1"></path><path transform="translate(8.16825472398904,264.15169954616823)" d="M2.7386127875258306,0A2.7386127875258306,2.7386127875258306,0,1,1,-2.7386127875258306,0A2.7386127875258306,2.7386127875258306,0,1,1,2.7386127875258306,0" fill="#4c78a8" stroke-width="2" opacity="1"></path><path transform="translate(8.37662428717,258.0406221481347)" d="M2.7386127875258306,0A2.7386127875258306,2.7386127875258306,0,1,1,-2.7386127875258306,0A2.7386127875258306,2.7386127875258306,0,1,1,2.7386127875258306,0" fill="#4c78a8" stroke-width="2" opacity="1"></path><path transform="translate(8.59042462809589,252.4918435586888)" d="M2.7386127875258306,0A2.7386127875258306,2.7386127875258306,0,1,1,-2.7386127875258306,0A2.7386127875258306,2.7386127875258306,0,1,1,2.7386127875258306,0" fill="#4c78a8" stroke-width="2" opacity="1"></path><path transform="translate(8.809772302603802,247.38053530221177)" d="M2.7386127875258306,0A2.7386127875258306,2.7386127875258306,0,1,1,-2.7386127875258306,0A2.7386127875258306,2.7386127875258306,0,1,1,2.7386127875258306,0" fill="#4c78a8" stroke-width="2" opacity="1"></path><path transform="translate(9.034785603280644,242.58104271599257)" d="M2.7386127875258306,0A2.7386127875258306,2.7386127875258306,0,1,1,-2.7386127875258306,0A2.7386127875258306,2.7386127875258306,0,1,1,2.7386127875258306,0" fill="#4c78a8" stroke-width="2" opacity="1"></path><path transform="translate(9.26558457202478,238.00321960443455)" d="M2.7386127875258306,0A2.7386127875258306,2.7386127875258306,0,1,1,-2.7386127875258306,0A2.7386127875258306,2.7386127875258306,0,1,1,2.7386127875258306,0" fill="#4c78a8" stroke-width="2" opacity="1"></path><path transform="translate(9.50229101250826,233.5910309072921)" d="M2.7386127875258306,0A2.7386127875258306,2.7386127875258306,0,1,1,-2.7386127875258306,0A2.7386127875258306,2.7386127875258306,0,1,1,2.7386127875258306,0" fill="#4c78a8" stroke-width="2" opacity="1"></path><path transform="translate(9.745028502605237,229.31192054017745)" d="M2.7386127875258306,0A2.7386127875258306,2.7386127875258306,0,1,1,-2.7386127875258306,0A2.7386127875258306,2.7386127875258306,0,1,1,2.7386127875258306,0" fill="#4c78a8" stroke-width="2" opacity="1"></path><path transform="translate(9.993922406868728,225.14736244116528)" d="M2.7386127875258306,0A2.7386127875258306,2.7386127875258306,0,1,1,-2.7386127875258306,0A2.7386127875258306,2.7386127875258306,0,1,1,2.7386127875258306,0" fill="#4c78a8" stroke-width="2" opacity="1"></path><path transform="translate(10.249099888801789,221.08659211912834)" d="M2.7386127875258306,0A2.7386127875258306,2.7386127875258306,0,1,1,-2.7386127875258306,0A2.7386127875258306,2.7386127875258306,0,1,1,2.7386127875258306,0" fill="#4c78a8" stroke-width="2" opacity="1"></path><path transform="translate(10.510689923208059,217.12294455599357)" d="M2.7386127875258306,0A2.7386127875258306,2.7386127875258306,0,1,1,-2.7386127875258306,0A2.7386127875258306,2.7386127875258306,0,1,1,2.7386127875258306,0" fill="#4c78a8" stroke-width="2" opacity="1"></path><path transform="translate(10.778823308532624,213.25186315278208)" d="M2.7386127875258306,0A2.7386127875258306,2.7386127875258306,0,1,1,-2.7386127875258306,0A2.7386127875258306,2.7386127875258306,0,1,1,2.7386127875258306,0" fill="#4c78a8" stroke-width="2" opacity="1"></path><path transform="translate(11.05363267898747,209.46986665253212)" d="M2.7386127875258306,0A2.7386127875258306,2.7386127875258306,0,1,1,-2.7386127875258306,0A2.7386127875258306,2.7386127875258306,0,1,1,2.7386127875258306,0" fill="#4c78a8" stroke-width="2" opacity="1"></path><path transform="translate(11.335252516833918,205.7740305945628)" d="M2.7386127875258306,0A2.7386127875258306,2.7386127875258306,0,1,1,-2.7386127875258306,0A2.7386127875258306,2.7386127875258306,0,1,1,2.7386127875258306,0" fill="#4c78a8" stroke-width="2" opacity="1"></path><path transform="translate(11.623819164451547,202.16173333437632)" d="M2.7386127875258306,0A2.7386127875258306,2.7386127875258306,0,1,1,-2.7386127875258306,0A2.7386127875258306,2.7386127875258306,0,1,1,2.7386127875258306,0" fill="#4c78a8" stroke-width="2" opacity="1"></path><path transform="translate(11.919470836480993,198.6305338104546)" d="M2.7386127875258306,0A2.7386127875258306,2.7386127875258306,0,1,1,-2.7386127875258306,0A2.7386127875258306,2.7386127875258306,0,1,1,2.7386127875258306,0" fill="#4c78a8" stroke-width="2" opacity="1"></path><path transform="translate(12.222347631845116,195.17811327534946)" d="M2.7386127875258306,0A2.7386127875258306,2.7386127875258306,0,1,1,-2.7386127875258306,0A2.7386127875258306,2.7386127875258306,0,1,1,2.7386127875258306,0" fill="#4c78a8" stroke-width="2" opacity="1"></path><path transform="translate(12.532591545739391,191.8022474225788)" d="M2.7386127875258306,0A2.7386127875258306,2.7386127875258306,0,1,1,-2.7386127875258306,0A2.7386127875258306,2.7386127875258306,0,1,1,2.7386127875258306,0" fill="#4c78a8" stroke-width="2" opacity="1"></path><path transform="translate(12.850346481575995,188.50079267898928)" d="M2.7386127875258306,0A2.7386127875258306,2.7386127875258306,0,1,1,-2.7386127875258306,0A2.7386127875258306,2.7386127875258306,0,1,1,2.7386127875258306,0" fill="#4c78a8" stroke-width="2" opacity="1"></path><path transform="translate(13.175758262900242,185.27167897475894)" d="M2.7386127875258306,0A2.7386127875258306,2.7386127875258306,0,1,1,-2.7386127875258306,0A2.7386127875258306,2.7386127875258306,0,1,1,2.7386127875258306,0" fill="#4c78a8" stroke-width="2" opacity="1"></path><path transform="translate(13.508974645168706,182.11290541861655)" d="M2.7386127875258306,0A2.7386127875258306,2.7386127875258306,0,1,1,-2.7386127875258306,0A2.7386127875258306,2.7386127875258306,0,1,1,2.7386127875258306,0" fill="#4c78a8" stroke-width="2" opacity="1"></path><path transform="translate(13.850145327600375,179.02253725082596)" d="M2.7386127875258306,0A2.7386127875258306,2.7386127875258306,0,1,1,-2.7386127875258306,0A2.7386127875258306,2.7386127875258306,0,1,1,2.7386127875258306,0" fill="#4c78a8" stroke-width="2" opacity="1"></path><path transform="translate(14.199421964835482,175.99870334979232)" d="M2.7386127875258306,0A2.7386127875258306,2.7386127875258306,0,1,1,-2.7386127875258306,0A2.7386127875258306,2.7386127875258306,0,1,1,2.7386127875258306,0" fill="#4c78a8" stroke-width="2" opacity="1"></path><path transform="translate(14.55695817863496,173.03959398022712)" d="M2.7386127875258306,0A2.7386127875258306,2.7386127875258306,0,1,1,-2.7386127875258306,0A2.7386127875258306,2.7386127875258306,0,1,1,2.7386127875258306,0" fill="#4c78a8" stroke-width="2" opacity="1"></path><path transform="translate(14.922909569448928,170.143458654977)" d="M2.7386127875258306,0A2.7386127875258306,2.7386127875258306,0,1,1,-2.7386127875258306,0A2.7386127875258306,2.7386127875258306,0,1,1,2.7386127875258306,0" fill="#4c78a8" stroke-width="2" opacity="1"></path><path transform="translate(15.297433728045256,167.3086040627234)" d="M2.7386127875258306,0A2.7386127875258306,2.7386127875258306,0,1,1,-2.7386127875258306,0A2.7386127875258306,2.7386127875258306,0,1,1,2.7386127875258306,0" fill="#4c78a8" stroke-width="2" opacity="1"></path><path transform="translate(15.680690246884756,164.53339204712998)" d="M2.7386127875258306,0A2.7386127875258306,2.7386127875258306,0,1,1,-2.7386127875258306,0A2.7386127875258306,2.7386127875258306,0,1,1,2.7386127875258306,0" fill="#4c78a8" stroke-width="2" opacity="1"></path><path transform="translate(16.07284073163295,161.8162376358852)" d="M2.7386127875258306,0A2.7386127875258306,2.7386127875258306,0,1,1,-2.7386127875258306,0A2.7386127875258306,2.7386127875258306,0,1,1,2.7386127875258306,0" fill="#4c78a8" stroke-width="2" opacity="1"></path><path transform="translate(16.47404881243414,159.15560712223743)" d="M2.7386127875258306,0A2.7386127875258306,2.7386127875258306,0,1,1,-2.7386127875258306,0A2.7386127875258306,2.7386127875258306,0,1,1,2.7386127875258306,0" fill="#4c78a8" stroke-width="2" opacity="1"></path><path transform="translate(16.884480155274392,156.55001620228813)" d="M2.7386127875258306,0A2.7386127875258306,2.7386127875258306,0,1,1,-2.7386127875258306,0A2.7386127875258306,2.7386127875258306,0,1,1,2.7386127875258306,0" fill="#4c78a8" stroke-width="2" opacity="1"></path><path transform="translate(17.3043024731262,153.9980281706928)" d="M2.7386127875258306,0A2.7386127875258306,2.7386127875258306,0,1,1,-2.7386127875258306,0A2.7386127875258306,2.7386127875258306,0,1,1,2.7386127875258306,0" fill="#4c78a8" stroke-width="2" opacity="1"></path><path transform="translate(17.733685537148318,151.49825217649118)" d="M2.7386127875258306,0A2.7386127875258306,2.7386127875258306,0,1,1,-2.7386127875258306,0A2.7386127875258306,2.7386127875258306,0,1,1,2.7386127875258306,0" fill="#4c78a8" stroke-width="2" opacity="1"></path><path transform="translate(18.17280118776792,149.0493415398924)" d="M2.7386127875258306,0A2.7386127875258306,2.7386127875258306,0,1,1,-2.7386127875258306,0A2.7386127875258306,2.7386127875258306,0,1,1,2.7386127875258306,0" fill="#4c78a8" stroke-width="2" opacity="1"></path><path transform="translate(18.621823345635683,146.64999213006374)" d="M2.7386127875258306,0A2.7386127875258306,2.7386127875258306,0,1,1,-2.7386127875258306,0A2.7386127875258306,2.7386127875258306,0,1,1,2.7386127875258306,0" fill="#4c78a8" stroke-width="2" opacity="1"></path><path transform="translate(19.08092802259042,144.29894080339218)" d="M2.7386127875258306,0A2.7386127875258306,2.7386127875258306,0,1,1,-2.7386127875258306,0A2.7386127875258306,2.7386127875258306,0,1,1,2.7386127875258306,0" fill="#4c78a8" stroke-width="2" opacity="1"></path><path transform="translate(19.5502933325516,141.99496390121874)" d="M2.7386127875258306,0A2.7386127875258306,2.7386127875258306,0,1,1,-2.7386127875258306,0A2.7386127875258306,2.7386127875258306,0,1,1,2.7386127875258306,0" fill="#4c78a8" stroke-width="2" opacity="1"></path><path transform="translate(20.030099502201153,139.7368758057289)" d="M2.7386127875258306,0A2.7386127875258306,2.7386127875258306,0,1,1,-2.7386127875258306,0A2.7386127875258306,2.7386127875258306,0,1,1,2.7386127875258306,0" fill="#4c78a8" stroke-width="2" opacity="1"></path><path transform="translate(20.520528881759667,137.52352755244002)" d="M2.7386127875258306,0A2.7386127875258306,2.7386127875258306,0,1,1,-2.7386127875258306,0A2.7386127875258306,2.7386127875258306,0,1,1,2.7386127875258306,0" fill="#4c78a8" stroke-width="2" opacity="1"></path><path transform="translate(21.02176595557378,135.35380549756763)" d="M2.7386127875258306,0A2.7386127875258306,2.7386127875258306,0,1,1,-2.7386127875258306,0A2.7386127875258306,2.7386127875258306,0,1,1,2.7386127875258306,0" fill="#4c78a8" stroke-width="2" opacity="1"></path><path transform="translate(21.533997352643635,133.22663003845727)" d="M2.7386127875258306,0A2.7386127875258306,2.7386127875258306,0,1,1,-2.7386127875258306,0A2.7386127875258306,2.7386127875258306,0,1,1,2.7386127875258306,0" fill="#4c78a8" stroke-width="2" opacity="1"></path><path transform="translate(22.05741185708491,131.14095438520465)" d="M2.7386127875258306,0A2.7386127875258306,2.7386127875258306,0,1,1,-2.7386127875258306,0A2.7386127875258306,2.7386127875258306,0,1,1,2.7386127875258306,0" fill="#4c78a8" stroke-width="2" opacity="1"></path><path transform="translate(22.592200418485582,129.09576338156472)" d="M2.7386127875258306,0A2.7386127875258306,2.7386127875258306,0,1,1,-2.7386127875258306,0A2.7386127875258306,2.7386127875258306,0,1,1,2.7386127875258306,0" fill="#4c78a8" stroke-width="2" opacity="1"></path><path transform="translate(23.13855616214434,127.09007237325154)" d="M2.7386127875258306,0A2.7386127875258306,2.7386127875258306,0,1,1,-2.7386127875258306,0A2.7386127875258306,2.7386127875258306,0,1,1,2.7386127875258306,0" fill="#4c78a8" stroke-width="2" opacity="1"></path><path transform="translate(23.696674399338487,125.12292612175631)" d="M2.7386127875258306,0A2.7386127875258306,2.7386127875258306,0,1,1,-2.7386127875258306,0A2.7386127875258306,2.7386127875258306,0,1,1,2.7386127875258306,0" fill="#4c78a8" stroke-width="2" opacity="1"></path><path transform="translate(24.266752637327976,123.19339776182991)" d="M2.7386127875258306,0A2.7386127875258306,2.7386127875258306,0,1,1,-2.7386127875258306,0A2.7386127875258306,2.7386127875258306,0,1,1,2.7386127875258306,0" fill="#4c78a8" stroke-width="2" opacity="1"></path><path transform="translate(24.84899058935252,121.30058780083533)" d="M2.7386127875258306,0A2.7386127875258306,2.7386127875258306,0,1,1,-2.7386127875258306,0A2.7386127875258306,2.7386127875258306,0,1,1,2.7386127875258306,0" fill="#4c78a8" stroke-width="2" opacity="1"></path><path transform="translate(25.44359018464522,119.44362315822241)" d="M2.7386127875258306,0A2.7386127875258306,2.7386127875258306,0,1,1,-2.7386127875258306,0A2.7386127875258306,2.7386127875258306,0,1,1,2.7386127875258306,0" fill="#4c78a8" stroke-width="2" opacity="1"></path><path transform="translate(26.050755578051778,117.62165624342042)" d="M2.7386127875258306,0A2.7386127875258306,2.7386127875258306,0,1,1,-2.7386127875258306,0A2.7386127875258306,2.7386127875258306,0,1,1,2.7386127875258306,0" fill="#4c78a8" stroke-width="2" opacity="1"></path><path transform="translate(26.67069315991354,115.83386407052409)" d="M2.7386127875258306,0A2.7386127875258306,2.7386127875258306,0,1,1,-2.7386127875258306,0A2.7386127875258306,2.7386127875258306,0,1,1,2.7386127875258306,0" fill="#4c78a8" stroke-width="2" opacity="1"></path><path transform="translate(27.303611565542564,114.07944740818866)" d="M2.7386127875258306,0A2.7386127875258306,2.7386127875258306,0,1,1,-2.7386127875258306,0A2.7386127875258306,2.7386127875258306,0,1,1,2.7386127875258306,0" fill="#4c78a8" stroke-width="2" opacity="1"></path><path transform="translate(27.94972168477065,112.35762996322285)" d="M2.7386127875258306,0A2.7386127875258306,2.7386127875258306,0,1,1,-2.7386127875258306,0A2.7386127875258306,2.7386127875258306,0,1,1,2.7386127875258306,0" fill="#4c78a8" stroke-width="2" opacity="1"></path><path transform="translate(28.609236671311102,110.66765759642806)" d="M2.7386127875258306,0A2.7386127875258306,2.7386127875258306,0,1,1,-2.7386127875258306,0A2.7386127875258306,2.7386127875258306,0,1,1,2.7386127875258306,0" fill="#4c78a8" stroke-width="2" opacity="1"></path><path transform="translate(29.28237195206677,109.00879756928389)" d="M2.7386127875258306,0A2.7386127875258306,2.7386127875258306,0,1,1,-2.7386127875258306,0A2.7386127875258306,2.7386127875258306,0,1,1,2.7386127875258306,0" fill="#4c78a8" stroke-width="2" opacity="1"></path><path transform="translate(29.969345236308026,107.38033782015304)" d="M2.7386127875258306,0A2.7386127875258306,2.7386127875258306,0,1,1,-2.7386127875258306,0A2.7386127875258306,2.7386127875258306,0,1,1,2.7386127875258306,0" fill="#4c78a8" stroke-width="2" opacity="1"></path><path transform="translate(30.670376524682013,105.78158626872325)" d="M2.7386127875258306,0A2.7386127875258306,2.7386127875258306,0,1,1,-2.7386127875258306,0A2.7386127875258306,2.7386127875258306,0,1,1,2.7386127875258306,0" fill="#4c78a8" stroke-width="2" opacity="1"></path><path transform="translate(31.385688118176823,104.21187014746863)" d="M2.7386127875258306,0A2.7386127875258306,2.7386127875258306,0,1,1,-2.7386127875258306,0A2.7386127875258306,2.7386127875258306,0,1,1,2.7386127875258306,0" fill="#4c78a8" stroke-width="2" opacity="1"></path><path transform="translate(32.11550462696291,102.67053535896248)" d="M2.7386127875258306,0A2.7386127875258306,2.7386127875258306,0,1,1,-2.7386127875258306,0A2.7386127875258306,2.7386127875258306,0,1,1,2.7386127875258306,0" fill="#4c78a8" stroke-width="2" opacity="1"></path><path transform="translate(32.86005297912109,101.1569458579293)" d="M2.7386127875258306,0A2.7386127875258306,2.7386127875258306,0,1,1,-2.7386127875258306,0A2.7386127875258306,2.7386127875258306,0,1,1,2.7386127875258306,0" fill="#4c78a8" stroke-width="2" opacity="1"></path><path transform="translate(33.61956242912007,99.67048305697017)" d="M2.7386127875258306,0A2.7386127875258306,2.7386127875258306,0,1,1,-2.7386127875258306,0A2.7386127875258306,2.7386127875258306,0,1,1,2.7386127875258306,0" fill="#4c78a8" stroke-width="2" opacity="1"></path><path transform="translate(34.394264566399926,98.21054525494681)" d="M2.7386127875258306,0A2.7386127875258306,2.7386127875258306,0,1,1,-2.7386127875258306,0A2.7386127875258306,2.7386127875258306,0,1,1,2.7386127875258306,0" fill="#4c78a8" stroke-width="2" opacity="1"></path><path transform="translate(35.18439332366846,96.7765470870573)" d="M2.7386127875258306,0A2.7386127875258306,2.7386127875258306,0,1,1,-2.7386127875258306,0A2.7386127875258306,2.7386127875258306,0,1,1,2.7386127875258306,0" fill="#4c78a8" stroke-width="2" opacity="1"></path><path transform="translate(35.99018498499093,95.36791899567416)" d="M2.7386127875258306,0A2.7386127875258306,2.7386127875258306,0,1,1,-2.7386127875258306,0A2.7386127875258306,2.7386127875258306,0,1,1,2.7386127875258306,0" fill="#4c78a8" stroke-width="2" opacity="1"></path><path transform="translate(36.81187819408161,93.98410672106851)" d="M2.7386127875258306,0A2.7386127875258306,2.7386127875258306,0,1,1,-2.7386127875258306,0A2.7386127875258306,2.7386127875258306,0,1,1,2.7386127875258306,0" fill="#4c78a8" stroke-width="2" opacity="1"></path><path transform="translate(37.64971396204064,92.62457081117265)" d="M2.7386127875258306,0A2.7386127875258306,2.7386127875258306,0,1,1,-2.7386127875258306,0A2.7386127875258306,2.7386127875258306,0,1,1,2.7386127875258306,0" fill="#4c78a8" stroke-width="2" opacity="1"></path><path transform="translate(38.50393567525861,91.28878614958215)" d="M2.7386127875258306,0A2.7386127875258306,2.7386127875258306,0,1,1,-2.7386127875258306,0A2.7386127875258306,2.7386127875258306,0,1,1,2.7386127875258306,0" fill="#4c78a8" stroke-width="2" opacity="1"></path><path transform="translate(39.374789103027524,89.9762415010284)" d="M2.7386127875258306,0A2.7386127875258306,2.7386127875258306,0,1,1,-2.7386127875258306,0A2.7386127875258306,2.7386127875258306,0,1,1,2.7386127875258306,0" fill="#4c78a8" stroke-width="2" opacity="1"></path><path transform="translate(40.262522405165,88.68643907359348)" d="M2.7386127875258306,0A2.7386127875258306,2.7386127875258306,0,1,1,-2.7386127875258306,0A2.7386127875258306,2.7386127875258306,0,1,1,2.7386127875258306,0" fill="#4c78a8" stroke-width="2" opacity="1"></path><path transform="translate(41.16738613921594,87.41889409696522)" d="M2.7386127875258306,0A2.7386127875258306,2.7386127875258306,0,1,1,-2.7386127875258306,0A2.7386127875258306,2.7386127875258306,0,1,1,2.7386127875258306,0" fill="#4c78a8" stroke-width="2" opacity="1"></path><path transform="translate(42.08963326788143,86.17313441607246)" d="M2.7386127875258306,0A2.7386127875258306,2.7386127875258306,0,1,1,-2.7386127875258306,0A2.7386127875258306,2.7386127875258306,0,1,1,2.7386127875258306,0" fill="#4c78a8" stroke-width="2" opacity="1"></path><path transform="translate(43.0295191658962,84.94870009945946)" d="M2.7386127875258306,0A2.7386127875258306,2.7386127875258306,0,1,1,-2.7386127875258306,0A2.7386127875258306,2.7386127875258306,0,1,1,2.7386127875258306,0" fill="#4c78a8" stroke-width="2" opacity="1"></path><path transform="translate(43.9873016271661,83.7451430617975)" d="M2.7386127875258306,0A2.7386127875258306,2.7386127875258306,0,1,1,-2.7386127875258306,0A2.7386127875258306,2.7386127875258306,0,1,1,2.7386127875258306,0" fill="#4c78a8" stroke-width="2" opacity="1"></path><path transform="translate(44.96324087137092,82.5620266999521)" d="M2.7386127875258306,0A2.7386127875258306,2.7386127875258306,0,1,1,-2.7386127875258306,0A2.7386127875258306,2.7386127875258306,0,1,1,2.7386127875258306,0" fill="#4c78a8" stroke-width="2" opacity="1"></path><path transform="translate(45.95759955064125,81.39892554205377)" d="M2.7386127875258306,0A2.7386127875258306,2.7386127875258306,0,1,1,-2.7386127875258306,0A2.7386127875258306,2.7386127875258306,0,1,1,2.7386127875258306,0" fill="#4c78a8" stroke-width="2" opacity="1"></path><path transform="translate(46.97064275611039,80.2554249090463)" d="M2.7386127875258306,0A2.7386127875258306,2.7386127875258306,0,1,1,-2.7386127875258306,0A2.7386127875258306,2.7386127875258306,0,1,1,2.7386127875258306,0" fill="#4c78a8" stroke-width="2" opacity="1"></path><path transform="translate(48.00263802400313,79.13112058820514)" d="M2.7386127875258306,0A2.7386127875258306,2.7386127875258306,0,1,1,-2.7386127875258306,0A2.7386127875258306,2.7386127875258306,0,1,1,2.7386127875258306,0" fill="#4c78a8" stroke-width="2" opacity="1"></path><path transform="translate(49.05385534196752,78.02561851814737)" d="M2.7386127875258306,0A2.7386127875258306,2.7386127875258306,0,1,1,-2.7386127875258306,0A2.7386127875258306,2.7386127875258306,0,1,1,2.7386127875258306,0" fill="#4c78a8" stroke-width="2" opacity="1"></path><path transform="translate(50.124567154881596,76.9385344848728)" d="M2.7386127875258306,0A2.7386127875258306,2.7386127875258306,0,1,1,-2.7386127875258306,0A2.7386127875258306,2.7386127875258306,0,1,1,2.7386127875258306,0" fill="#4c78a8" stroke-width="2" opacity="1"></path><path transform="translate(51.21504837076149,75.8694938283958)" d="M2.7386127875258306,0A2.7386127875258306,2.7386127875258306,0,1,1,-2.7386127875258306,0A2.7386127875258306,2.7386127875258306,0,1,1,2.7386127875258306,0" fill="#4c78a8" stroke-width="2" opacity="1"></path><path transform="translate(52.32557636625835,74.81813115954826)" d="M2.7386127875258306,0A2.7386127875258306,2.7386127875258306,0,1,1,-2.7386127875258306,0A2.7386127875258306,2.7386127875258306,0,1,1,2.7386127875258306,0" fill="#4c78a8" stroke-width="2" opacity="1"></path><path transform="translate(53.456430992137946,73.78409008655291)" d="M2.7386127875258306,0A2.7386127875258306,2.7386127875258306,0,1,1,-2.7386127875258306,0A2.7386127875258306,2.7386127875258306,0,1,1,2.7386127875258306,0" fill="#4c78a8" stroke-width="2" opacity="1"></path><path transform="translate(54.60789457863216,72.7670229509834)" d="M2.7386127875258306,0A2.7386127875258306,2.7386127875258306,0,1,1,-2.7386127875258306,0A2.7386127875258306,2.7386127875258306,0,1,1,2.7386127875258306,0" fill="#4c78a8" stroke-width="2" opacity="1"></path><path transform="translate(55.78025194031425,71.76659057274104)" d="M2.7386127875258306,0A2.7386127875258306,2.7386127875258306,0,1,1,-2.7386127875258306,0A2.7386127875258306,2.7386127875258306,0,1,1,2.7386127875258306,0" fill="#4c78a8" stroke-width="2" opacity="1"></path><path transform="translate(56.97379038115836,70.78246200370494)" d="M2.7386127875258306,0A2.7386127875258306,2.7386127875258306,0,1,1,-2.7386127875258306,0A2.7386127875258306,2.7386127875258306,0,1,1,2.7386127875258306,0" fill="#4c78a8" stroke-width="2" opacity="1"></path><path transform="translate(58.18879969912288,69.81431428970743)" d="M2.7386127875258306,0A2.7386127875258306,2.7386127875258306,0,1,1,-2.7386127875258306,0A2.7386127875258306,2.7386127875258306,0,1,1,2.7386127875258306,0" fill="#4c78a8" stroke-width="2" opacity="1"></path><path transform="translate(59.42557219062212,68.86183224052844)" d="M2.7386127875258306,0A2.7386127875258306,2.7386127875258306,0,1,1,-2.7386127875258306,0A2.7386127875258306,2.7386127875258306,0,1,1,2.7386127875258306,0" fill="#4c78a8" stroke-width="2" opacity="1"></path><path transform="translate(60.684402655060325,67.92470820758885)" d="M2.7386127875258306,0A2.7386127875258306,2.7386127875258306,0,1,1,-2.7386127875258306,0A2.7386127875258306,2.7386127875258306,0,1,1,2.7386127875258306,0" fill="#4c78a8" stroke-width="2" opacity="1"></path><path transform="translate(61.9655883985842,67.0026418690561)" d="M2.7386127875258306,0A2.7386127875258306,2.7386127875258306,0,1,1,-2.7386127875258306,0A2.7386127875258306,2.7386127875258306,0,1,1,2.7386127875258306,0" fill="#4c78a8" stroke-width="2" opacity="1"></path><path transform="translate(63.269429238207344,66.09534002207691)" d="M2.7386127875258306,0A2.7386127875258306,2.7386127875258306,0,1,1,-2.7386127875258306,0A2.7386127875258306,2.7386127875258306,0,1,1,2.7386127875258306,0" fill="#4c78a8" stroke-width="2" opacity="1"></path><path transform="translate(64.59622750554884,65.20251638187005)" d="M2.7386127875258306,0A2.7386127875258306,2.7386127875258306,0,1,1,-2.7386127875258306,0A2.7386127875258306,2.7386127875258306,0,1,1,2.7386127875258306,0" fill="#4c78a8" stroke-width="2" opacity="1"></path><path transform="translate(65.94628805014493,64.32389138741918)" d="M2.7386127875258306,0A2.7386127875258306,2.7386127875258306,0,1,1,-2.7386127875258306,0A2.7386127875258306,2.7386127875258306,0,1,1,2.7386127875258306,0" fill="#4c78a8" stroke-width="2" opacity="1"></path><path transform="translate(67.31991824276282,63.45919201351782)" d="M2.7386127875258306,0A2.7386127875258306,2.7386127875258306,0,1,1,-2.7386127875258306,0A2.7386127875258306,2.7386127875258306,0,1,1,2.7386127875258306,0" fill="#4c78a8" stroke-width="2" opacity="1"></path><path transform="translate(68.71742797856317,62.60815158893263)" d="M2.7386127875258306,0A2.7386127875258306,2.7386127875258306,0,1,1,-2.7386127875258306,0A2.7386127875258306,2.7386127875258306,0,1,1,2.7386127875258306,0" fill="#4c78a8" stroke-width="2" opacity="1"></path><path transform="translate(70.13912967992084,61.77050962045409)" d="M2.7386127875258306,0A2.7386127875258306,2.7386127875258306,0,1,1,-2.7386127875258306,0A2.7386127875258306,2.7386127875258306,0,1,1,2.7386127875258306,0" fill="#4c78a8" stroke-width="2" opacity="1"></path><path transform="translate(71.58533829879735,60.94601162262029)" d="M2.7386127875258306,0A2.7386127875258306,2.7386127875258306,0,1,1,-2.7386127875258306,0A2.7386127875258306,2.7386127875258306,0,1,1,2.7386127875258306,0" fill="#4c78a8" stroke-width="2" opacity="1"></path><path transform="translate(73.05637131953479,60.13440895290304)" d="M2.7386127875258306,0A2.7386127875258306,2.7386127875258306,0,1,1,-2.7386127875258306,0A2.7386127875258306,2.7386127875258306,0,1,1,2.7386127875258306,0" fill="#4c78a8" stroke-width="2" opacity="1"></path><path transform="translate(74.55254876059503,59.33545865215714)" d="M2.7386127875258306,0A2.7386127875258306,2.7386127875258306,0,1,1,-2.7386127875258306,0A2.7386127875258306,2.7386127875258306,0,1,1,2.7386127875258306,0" fill="#4c78a8" stroke-width="2" opacity="1"></path><path transform="translate(76.07419317675308,58.54892329014051)" d="M2.7386127875258306,0A2.7386127875258306,2.7386127875258306,0,1,1,-2.7386127875258306,0A2.7386127875258306,2.7386127875258306,0,1,1,2.7386127875258306,0" fill="#4c78a8" stroke-width="2" opacity="1"></path><path transform="translate(77.62162966076635,57.77457081592359)" d="M2.7386127875258306,0A2.7386127875258306,2.7386127875258306,0,1,1,-2.7386127875258306,0A2.7386127875258306,2.7386127875258306,0,1,1,2.7386127875258306,0" fill="#4c78a8" stroke-width="2" opacity="1"></path><path transform="translate(79.195185844663,57.012174413007536)" d="M2.7386127875258306,0A2.7386127875258306,2.7386127875258306,0,1,1,-2.7386127875258306,0A2.7386127875258306,2.7386127875258306,0,1,1,2.7386127875258306,0" fill="#4c78a8" stroke-width="2" opacity="1"></path><path transform="translate(80.79519190111006,56.26151235898431)" d="M2.7386127875258306,0A2.7386127875258306,2.7386127875258306,0,1,1,-2.7386127875258306,0A2.7386127875258306,2.7386127875258306,0,1,1,2.7386127875258306,0" fill="#4c78a8" stroke-width="2" opacity="1"></path><path transform="translate(82.42198054416053,55.52236788957813)" d="M2.7386127875258306,0A2.7386127875258306,2.7386127875258306,0,1,1,-2.7386127875258306,0A2.7386127875258306,2.7386127875258306,0,1,1,2.7386127875258306,0" fill="#4c78a8" stroke-width="2" opacity="1"></path><path transform="translate(84.07588703023045,54.79452906690627)" d="M2.7386127875258306,0A2.7386127875258306,2.7386127875258306,0,1,1,-2.7386127875258306,0A2.7386127875258306,2.7386127875258306,0,1,1,2.7386127875258306,0" fill="#4c78a8" stroke-width="2" opacity="1"></path><path transform="translate(85.75724915828596,54.07778865181794)" d="M2.7386127875258306,0A2.7386127875258306,2.7386127875258306,0,1,1,-2.7386127875258306,0A2.7386127875258306,2.7386127875258306,0,1,1,2.7386127875258306,0" fill="#4c78a8" stroke-width="2" opacity="1"></path><path transform="translate(87.46640727023721,53.371943980158264)" d="M2.7386127875258306,0A2.7386127875258306,2.7386127875258306,0,1,1,-2.7386127875258306,0A2.7386127875258306,2.7386127875258306,0,1,1,2.7386127875258306,0" fill="#4c78a8" stroke-width="2" opacity="1"></path><path transform="translate(89.20370425067125,52.67679684282779)" d="M2.7386127875258306,0A2.7386127875258306,2.7386127875258306,0,1,1,-2.7386127875258306,0A2.7386127875258306,2.7386127875258306,0,1,1,2.7386127875258306,0" fill="#4c78a8" stroke-width="2" opacity="1"></path><path transform="translate(90.96948552666805,51.992153369498254)" d="M2.7386127875258306,0A2.7386127875258306,2.7386127875258306,0,1,1,-2.7386127875258306,0A2.7386127875258306,2.7386127875258306,0,1,1,2.7386127875258306,0" fill="#4c78a8" stroke-width="2" opacity="1"></path><path transform="translate(92.76409906697799,51.31782391586063)" d="M2.7386127875258306,0A2.7386127875258306,2.7386127875258306,0,1,1,-2.7386127875258306,0A2.7386127875258306,2.7386127875258306,0,1,1,2.7386127875258306,0" fill="#4c78a8" stroke-width="2" opacity="1"></path><path transform="translate(94.5878953814544,50.65362295428433)" d="M2.7386127875258306,0A2.7386127875258306,2.7386127875258306,0,1,1,-2.7386127875258306,0A2.7386127875258306,2.7386127875258306,0,1,1,2.7386127875258306,0" fill="#4c78a8" stroke-width="2" opacity="1"></path><path transform="translate(96.44122751954693,49.99936896776482)" d="M2.7386127875258306,0A2.7386127875258306,2.7386127875258306,0,1,1,-2.7386127875258306,0A2.7386127875258306,2.7386127875258306,0,1,1,2.7386127875258306,0" fill="#4c78a8" stroke-width="2" opacity="1"></path><path transform="translate(98.32445106911425,49.35488434705124)" d="M2.7386127875258306,0A2.7386127875258306,2.7386127875258306,0,1,1,-2.7386127875258306,0A2.7386127875258306,2.7386127875258306,0,1,1,2.7386127875258306,0" fill="#4c78a8" stroke-width="2" opacity="1"></path><path transform="translate(100.23792415442665,48.71999529084383)" d="M2.7386127875258306,0A2.7386127875258306,2.7386127875258306,0,1,1,-2.7386127875258306,0A2.7386127875258306,2.7386127875258306,0,1,1,2.7386127875258306,0" fill="#4c78a8" stroke-width="2" opacity="1"></path><path transform="translate(102.18200743444864,48.094531708956126)" d="M2.7386127875258306,0A2.7386127875258306,2.7386127875258306,0,1,1,-2.7386127875258306,0A2.7386127875258306,2.7386127875258306,0,1,1,2.7386127875258306,0" fill="#4c78a8" stroke-width="2" opacity="1"></path><path transform="translate(104.15706410018882,47.478327128341306)" d="M2.7386127875258306,0A2.7386127875258306,2.7386127875258306,0,1,1,-2.7386127875258306,0A2.7386127875258306,2.7386127875258306,0,1,1,2.7386127875258306,0" fill="#4c78a8" stroke-width="2" opacity="1"></path><path transform="translate(106.16345987239815,46.8712186018868)" d="M2.7386127875258306,0A2.7386127875258306,2.7386127875258306,0,1,1,-2.7386127875258306,0A2.7386127875258306,2.7386127875258306,0,1,1,2.7386127875258306,0" fill="#4c78a8" stroke-width="2" opacity="1"></path><path transform="translate(108.20156299836732,46.27304661988361)" d="M2.7386127875258306,0A2.7386127875258306,2.7386127875258306,0,1,1,-2.7386127875258306,0A2.7386127875258306,2.7386127875258306,0,1,1,2.7386127875258306,0" fill="#4c78a8" stroke-width="2" opacity="1"></path><path transform="translate(110.27174424889377,45.68365502408069)" d="M2.7386127875258306,0A2.7386127875258306,2.7386127875258306,0,1,1,-2.7386127875258306,0A2.7386127875258306,2.7386127875258306,0,1,1,2.7386127875258306,0" fill="#4c78a8" stroke-width="2" opacity="1"></path><path transform="translate(112.37437691453917,45.102890924238324)" d="M2.7386127875258306,0A2.7386127875258306,2.7386127875258306,0,1,1,-2.7386127875258306,0A2.7386127875258306,2.7386127875258306,0,1,1,2.7386127875258306,0" fill="#4c78a8" stroke-width="2" opacity="1"></path><path transform="translate(114.5098368021485,44.530604617097644)" d="M2.7386127875258306,0A2.7386127875258306,2.7386127875258306,0,1,1,-2.7386127875258306,0A2.7386127875258306,2.7386127875258306,0,1,1,2.7386127875258306,0" fill="#4c78a8" stroke-width="2" opacity="1"></path><path transform="translate(116.67850223015319,43.96664950768613)" d="M2.7386127875258306,0A2.7386127875258306,2.7386127875258306,0,1,1,-2.7386127875258306,0A2.7386127875258306,2.7386127875258306,0,1,1,2.7386127875258306,0" fill="#4c78a8" stroke-width="2" opacity="1"></path><path transform="translate(118.88075402448996,43.410882032882945)" d="M2.7386127875258306,0A2.7386127875258306,2.7386127875258306,0,1,1,-2.7386127875258306,0A2.7386127875258306,2.7386127875258306,0,1,1,2.7386127875258306,0" fill="#4c78a8" stroke-width="2" opacity="1"></path><path transform="translate(121.11697551362116,42.86316158716911)" d="M2.7386127875258306,0A2.7386127875258306,2.7386127875258306,0,1,1,-2.7386127875258306,0A2.7386127875258306,2.7386127875258306,0,1,1,2.7386127875258306,0" fill="#4c78a8" stroke-width="2" opacity="1"></path><path transform="translate(123.38755252333944,42.32335045049178)" d="M2.7386127875258306,0A2.7386127875258306,2.7386127875258306,0,1,1,-2.7386127875258306,0A2.7386127875258306,2.7386127875258306,0,1,1,2.7386127875258306,0" fill="#4c78a8" stroke-width="2" opacity="1"></path><path transform="translate(125.69287337135309,41.79131371817327)" d="M2.7386127875258306,0A2.7386127875258306,2.7386127875258306,0,1,1,-2.7386127875258306,0A2.7386127875258306,2.7386127875258306,0,1,1,2.7386127875258306,0" fill="#4c78a8" stroke-width="2" opacity="1"></path><path transform="translate(128.033328861344,41.26691923280057)" d="M2.7386127875258306,0A2.7386127875258306,2.7386127875258306,0,1,1,-2.7386127875258306,0A2.7386127875258306,2.7386127875258306,0,1,1,2.7386127875258306,0" fill="#4c78a8" stroke-width="2" opacity="1"></path><path transform="translate(130.40931227700287,40.75003751802843)" d="M2.7386127875258306,0A2.7386127875258306,2.7386127875258306,0,1,1,-2.7386127875258306,0A2.7386127875258306,2.7386127875258306,0,1,1,2.7386127875258306,0" fill="#4c78a8" stroke-width="2" opacity="1"></path><path transform="translate(132.8212193753322,40.24054171423697)" d="M2.7386127875258306,0A2.7386127875258306,2.7386127875258306,0,1,1,-2.7386127875258306,0A2.7386127875258306,2.7386127875258306,0,1,1,2.7386127875258306,0" fill="#4c78a8" stroke-width="2" opacity="1"></path><path transform="translate(135.26944837960204,39.73830751598415)" d="M2.7386127875258306,0A2.7386127875258306,2.7386127875258306,0,1,1,-2.7386127875258306,0A2.7386127875258306,2.7386127875258306,0,1,1,2.7386127875258306,0" fill="#4c78a8" stroke-width="2" opacity="1"></path><path transform="translate(137.75439997253582,39.243213111195416)" d="M2.7386127875258306,0A2.7386127875258306,2.7386127875258306,0,1,1,-2.7386127875258306,0A2.7386127875258306,2.7386127875258306,0,1,1,2.7386127875258306,0" fill="#4c78a8" stroke-width="2" opacity="1"></path><path transform="translate(140.27647728838397,38.75513912203549)" d="M2.7386127875258306,0A2.7386127875258306,2.7386127875258306,0,1,1,-2.7386127875258306,0A2.7386127875258306,2.7386127875258306,0,1,1,2.7386127875258306,0" fill="#4c78a8" stroke-width="2" opacity="1"></path><path transform="translate(142.83608590502325,38.273968547409275)" d="M2.7386127875258306,0A2.7386127875258306,2.7386127875258306,0,1,1,-2.7386127875258306,0A2.7386127875258306,2.7386127875258306,0,1,1,2.7386127875258306,0" fill="#4c78a8" stroke-width="2" opacity="1"></path><path transform="translate(145.4336338355823,37.79958670704091)" d="M2.7386127875258306,0A2.7386127875258306,2.7386127875258306,0,1,1,-2.7386127875258306,0A2.7386127875258306,2.7386127875258306,0,1,1,2.7386127875258306,0" fill="#4c78a8" stroke-width="2" opacity="1"></path><path transform="translate(148.0695315200206,37.33188118708196)" d="M2.7386127875258306,0A2.7386127875258306,2.7386127875258306,0,1,1,-2.7386127875258306,0A2.7386127875258306,2.7386127875258306,0,1,1,2.7386127875258306,0" fill="#4c78a8" stroke-width="2" opacity="1"></path><path transform="translate(150.744191815554,36.87074178719914)" d="M2.7386127875258306,0A2.7386127875258306,2.7386127875258306,0,1,1,-2.7386127875258306,0A2.7386127875258306,2.7386127875258306,0,1,1,2.7386127875258306,0" fill="#4c78a8" stroke-width="2" opacity="1"></path><path transform="translate(153.45802998746197,36.41606046909832)" d="M2.7386127875258306,0A2.7386127875258306,2.7386127875258306,0,1,1,-2.7386127875258306,0A2.7386127875258306,2.7386127875258306,0,1,1,2.7386127875258306,0" fill="#4c78a8" stroke-width="2" opacity="1"></path><path transform="translate(156.21146369929696,35.96773130643726)" d="M2.7386127875258306,0A2.7386127875258306,2.7386127875258306,0,1,1,-2.7386127875258306,0A2.7386127875258306,2.7386127875258306,0,1,1,2.7386127875258306,0" fill="#4c78a8" stroke-width="2" opacity="1"></path><path transform="translate(159.00491300233753,35.52565043608824)" d="M2.7386127875258306,0A2.7386127875258306,2.7386127875258306,0,1,1,-2.7386127875258306,0A2.7386127875258306,2.7386127875258306,0,1,1,2.7386127875258306,0" fill="#4c78a8" stroke-width="2" opacity="1"></path><path transform="translate(161.83880032519548,35.08971601070432)" d="M2.7386127875258306,0A2.7386127875258306,2.7386127875258306,0,1,1,-2.7386127875258306,0A2.7386127875258306,2.7386127875258306,0,1,1,2.7386127875258306,0" fill="#4c78a8" stroke-width="2" opacity="1"></path><path transform="translate(164.71355046272365,34.659828152554304)" d="M2.7386127875258306,0A2.7386127875258306,2.7386127875258306,0,1,1,-2.7386127875258306,0A2.7386127875258306,2.7386127875258306,0,1,1,2.7386127875258306,0" fill="#4c78a8" stroke-width="2" opacity="1"></path><path transform="translate(167.6295905642081,34.235888908583064)" d="M2.7386127875258306,0A2.7386127875258306,2.7386127875258306,0,1,1,-2.7386127875258306,0A2.7386127875258306,2.7386127875258306,0,1,1,2.7386127875258306,0" fill="#4c78a8" stroke-width="2" opacity="1"></path><path transform="translate(170.58735012207083,33.81780220666381)" d="M2.7386127875258306,0A2.7386127875258306,2.7386127875258306,0,1,1,-2.7386127875258306,0A2.7386127875258306,2.7386127875258306,0,1,1,2.7386127875258306,0" fill="#4c78a8" stroke-width="2" opacity="1"></path><path transform="translate(173.5872609589503,33.40547381300502)" d="M2.7386127875258306,0A2.7386127875258306,2.7386127875258306,0,1,1,-2.7386127875258306,0A2.7386127875258306,2.7386127875258306,0,1,1,2.7386127875258306,0" fill="#4c78a8" stroke-width="2" opacity="1"></path><path transform="translate(176.6297572154972,32.99881129067512)" d="M2.7386127875258306,0A2.7386127875258306,2.7386127875258306,0,1,1,-2.7386127875258306,0A2.7386127875258306,2.7386127875258306,0,1,1,2.7386127875258306,0" fill="#4c78a8" stroke-width="2" opacity="1"></path><path transform="translate(179.71527533699305,32.59772395921543)" d="M2.7386127875258306,0A2.7386127875258306,2.7386127875258306,0,1,1,-2.7386127875258306,0A2.7386127875258306,2.7386127875258306,0,1,1,2.7386127875258306,0" fill="#4c78a8" stroke-width="2" opacity="1"></path><path transform="translate(182.84425405956478,32.20212285530596)" d="M2.7386127875258306,0A2.7386127875258306,2.7386127875258306,0,1,1,-2.7386127875258306,0A2.7386127875258306,2.7386127875258306,0,1,1,2.7386127875258306,0" fill="#4c78a8" stroke-width="2" opacity="1"></path><path transform="translate(186.01713439678076,31.811920694452876)" d="M2.7386127875258306,0A2.7386127875258306,2.7386127875258306,0,1,1,-2.7386127875258306,0A2.7386127875258306,2.7386127875258306,0,1,1,2.7386127875258306,0" fill="#4c78a8" stroke-width="2" opacity="1"></path><path transform="translate(189.23435962445134,31.427031833668384)" d="M2.7386127875258306,0A2.7386127875258306,2.7386127875258306,0,1,1,-2.7386127875258306,0A2.7386127875258306,2.7386127875258306,0,1,1,2.7386127875258306,0" fill="#4c78a8" stroke-width="2" opacity="1"></path><path transform="translate(192.4963752664247,31.04737223511379)" d="M2.7386127875258306,0A2.7386127875258306,2.7386127875258306,0,1,1,-2.7386127875258306,0A2.7386127875258306,2.7386127875258306,0,1,1,2.7386127875258306,0" fill="#4c78a8" stroke-width="2" opacity="1"></path><path transform="translate(195.8036290787275,30.67285943067596)" d="M2.7386127875258306,0A2.7386127875258306,2.7386127875258306,0,1,1,-2.7386127875258306,0A2.7386127875258306,2.7386127875258306,0,1,1,2.7386127875258306,0" fill="#4c78a8" stroke-width="2" opacity="1"></path><path transform="translate(199.15657103395955,30.303412487451343)" d="M2.7386127875258306,0A2.7386127875258306,2.7386127875258306,0,1,1,-2.7386127875258306,0A2.7386127875258306,2.7386127875258306,0,1,1,2.7386127875258306,0" fill="#4c78a8" stroke-width="2" opacity="1"></path><path transform="translate(202.55565330529697,29.93895197411076)" d="M2.7386127875258306,0A2.7386127875258306,2.7386127875258306,0,1,1,-2.7386127875258306,0A2.7386127875258306,2.7386127875258306,0,1,1,2.7386127875258306,0" fill="#4c78a8" stroke-width="2" opacity="1"></path><path transform="translate(206.00133024922917,29.579399928117354)" d="M2.7386127875258306,0A2.7386127875258306,2.7386127875258306,0,1,1,-2.7386127875258306,0A2.7386127875258306,2.7386127875258306,0,1,1,2.7386127875258306,0" fill="#4c78a8" stroke-width="2" opacity="1"></path><path transform="translate(209.49405838885195,29.22467982377691)" d="M2.7386127875258306,0A2.7386127875258306,2.7386127875258306,0,1,1,-2.7386127875258306,0A2.7386127875258306,2.7386127875258306,0,1,1,2.7386127875258306,0" fill="#4c78a8" stroke-width="2" opacity="1"></path><path transform="translate(213.03429639610613,28.874716541092372)" d="M2.7386127875258306,0A2.7386127875258306,2.7386127875258306,0,1,1,-2.7386127875258306,0A2.7386127875258306,2.7386127875258306,0,1,1,2.7386127875258306,0" fill="#4c78a8" stroke-width="2" opacity="1"></path><path transform="translate(216.62250507325075,28.52943633540249)" d="M2.7386127875258306,0A2.7386127875258306,2.7386127875258306,0,1,1,-2.7386127875258306,0A2.7386127875258306,2.7386127875258306,0,1,1,2.7386127875258306,0" fill="#4c78a8" stroke-width="2" opacity="1"></path><path transform="translate(220.25914733493002,28.188766807779686)" d="M2.7386127875258306,0A2.7386127875258306,2.7386127875258306,0,1,1,-2.7386127875258306,0A2.7386127875258306,2.7386127875258306,0,1,1,2.7386127875258306,0" fill="#4c78a8" stroke-width="2" opacity="1"></path><path transform="translate(223.94468818865892,27.852636876167914)" d="M2.7386127875258306,0A2.7386127875258306,2.7386127875258306,0,1,1,-2.7386127875258306,0A2.7386127875258306,2.7386127875258306,0,1,1,2.7386127875258306,0" fill="#4c78a8" stroke-width="2" opacity="1"></path><path transform="translate(227.67959471512688,27.520976747237423)" d="M2.7386127875258306,0A2.7386127875258306,2.7386127875258306,0,1,1,-2.7386127875258306,0A2.7386127875258306,2.7386127875258306,0,1,1,2.7386127875258306,0" fill="#4c78a8" stroke-width="2" opacity="1"></path><path transform="translate(231.4643360483576,27.19371788893692)" d="M2.7386127875258306,0A2.7386127875258306,2.7386127875258306,0,1,1,-2.7386127875258306,0A2.7386127875258306,2.7386127875258306,0,1,1,2.7386127875258306,0" fill="#4c78a8" stroke-width="2" opacity="1"></path><path transform="translate(235.29938335529658,26.870793003723193)" d="M2.7386127875258306,0A2.7386127875258306,2.7386127875258306,0,1,1,-2.7386127875258306,0A2.7386127875258306,2.7386127875258306,0,1,1,2.7386127875258306,0" fill="#4c78a8" stroke-width="2" opacity="1"></path><path transform="translate(239.18520981404637,26.55213600244992)" d="M2.7386127875258306,0A2.7386127875258306,2.7386127875258306,0,1,1,-2.7386127875258306,0A2.7386127875258306,2.7386127875258306,0,1,1,2.7386127875258306,0" fill="#4c78a8" stroke-width="2" opacity="1"></path><path transform="translate(243.12229059300302,26.237681978896077)" d="M2.7386127875258306,0A2.7386127875258306,2.7386127875258306,0,1,1,-2.7386127875258306,0A2.7386127875258306,2.7386127875258306,0,1,1,2.7386127875258306,0" fill="#4c78a8" stroke-width="2" opacity="1"></path><path transform="translate(247.11110282842736,25.927367184916463)" d="M2.7386127875258306,0A2.7386127875258306,2.7386127875258306,0,1,1,-2.7386127875258306,0A2.7386127875258306,2.7386127875258306,0,1,1,2.7386127875258306,0" fill="#4c78a8" stroke-width="2" opacity="1"></path><path transform="translate(251.1521256017766,25.621129006197474)" d="M2.7386127875258306,0A2.7386127875258306,2.7386127875258306,0,1,1,-2.7386127875258306,0A2.7386127875258306,2.7386127875258306,0,1,1,2.7386127875258306,0" fill="#4c78a8" stroke-width="2" opacity="1"></path><path transform="translate(255.24583991659523,25.318905938599933)" d="M2.7386127875258306,0A2.7386127875258306,2.7386127875258306,0,1,1,-2.7386127875258306,0A2.7386127875258306,2.7386127875258306,0,1,1,2.7386127875258306,0" fill="#4c78a8" stroke-width="2" opacity="1"></path><path transform="translate(259.3927286748421,25.02063756507531)" d="M2.7386127875258306,0A2.7386127875258306,2.7386127875258306,0,1,1,-2.7386127875258306,0A2.7386127875258306,2.7386127875258306,0,1,1,2.7386127875258306,0" fill="#4c78a8" stroke-width="2" opacity="1"></path><path transform="translate(263.5932766527955,24.726264533136877)" d="M2.7386127875258306,0A2.7386127875258306,2.7386127875258306,0,1,1,-2.7386127875258306,0A2.7386127875258306,2.7386127875258306,0,1,1,2.7386127875258306,0" fill="#4c78a8" stroke-width="2" opacity="1"></path><path transform="translate(267.84797047628416,24.435728532871703)" d="M2.7386127875258306,0A2.7386127875258306,2.7386127875258306,0,1,1,-2.7386127875258306,0A2.7386127875258306,2.7386127875258306,0,1,1,2.7386127875258306,0" fill="#4c78a8" stroke-width="2" opacity="1"></path><path transform="translate(272.1572985950223,24.148972275478652)" d="M2.7386127875258306,0A2.7386127875258306,2.7386127875258306,0,1,1,-2.7386127875258306,0A2.7386127875258306,2.7386127875258306,0,1,1,2.7386127875258306,0" fill="#4c78a8" stroke-width="2" opacity="1"></path><path transform="translate(276.5217512574006,23.865939472318843)" d="M2.7386127875258306,0A2.7386127875258306,2.7386127875258306,0,1,1,-2.7386127875258306,0A2.7386127875258306,2.7386127875258306,0,1,1,2.7386127875258306,0" fill="#4c78a8" stroke-width="2" opacity="1"></path><path transform="translate(280.9418204837074,23.586574814462036)" d="M2.7386127875258306,0A2.7386127875258306,2.7386127875258306,0,1,1,-2.7386127875258306,0A2.7386127875258306,2.7386127875258306,0,1,1,2.7386127875258306,0" fill="#4c78a8" stroke-width="2" opacity="1"></path><path transform="translate(285.41800003919013,23.31082395271945)" d="M2.7386127875258306,0A2.7386127875258306,2.7386127875258306,0,1,1,-2.7386127875258306,0A2.7386127875258306,2.7386127875258306,0,1,1,2.7386127875258306,0" fill="#4c78a8" stroke-width="2" opacity="1"></path><path transform="translate(289.9507854067514,23.038633478145655)" d="M2.7386127875258306,0A2.7386127875258306,2.7386127875258306,0,1,1,-2.7386127875258306,0A2.7386127875258306,2.7386127875258306,0,1,1,2.7386127875258306,0" fill="#4c78a8" stroke-width="2" opacity="1"></path><path transform="translate(294.54067375874865,22.769950903000957)" d="M2.7386127875258306,0A2.7386127875258306,2.7386127875258306,0,1,1,-2.7386127875258306,0A2.7386127875258306,2.7386127875258306,0,1,1,2.7386127875258306,0" fill="#4c78a8" stroke-width="2" opacity="1"></path><path transform="translate(299.1881639286893,22.50472464215809)" d="M2.7386127875258306,0A2.7386127875258306,2.7386127875258306,0,1,1,-2.7386127875258306,0A2.7386127875258306,2.7386127875258306,0,1,1,2.7386127875258306,0" fill="#4c78a8" stroke-width="2" opacity="1"></path><path transform="translate(303.89375638142894,22.24290399494486)" d="M2.7386127875258306,0A2.7386127875258306,2.7386127875258306,0,1,1,-2.7386127875258306,0A2.7386127875258306,2.7386127875258306,0,1,1,2.7386127875258306,0" fill="#4c78a8" stroke-width="2" opacity="1"></path><path transform="translate(308.6579531839359,21.984439127408038)" d="M2.7386127875258306,0A2.7386127875258306,2.7386127875258306,0,1,1,-2.7386127875258306,0A2.7386127875258306,2.7386127875258306,0,1,1,2.7386127875258306,0" fill="#4c78a8" stroke-width="2" opacity="1"></path><path transform="translate(313.4812579749282,21.72928105498991)" d="M2.7386127875258306,0A2.7386127875258306,2.7386127875258306,0,1,1,-2.7386127875258306,0A2.7386127875258306,2.7386127875258306,0,1,1,2.7386127875258306,0" fill="#4c78a8" stroke-width="2" opacity="1"></path><path transform="translate(318.36417593356214,21.477381625605)" d="M2.7386127875258306,0A2.7386127875258306,2.7386127875258306,0,1,1,-2.7386127875258306,0A2.7386127875258306,2.7386127875258306,0,1,1,2.7386127875258306,0" fill="#4c78a8" stroke-width="2" opacity="1"></path><path transform="translate(323.3072137482371,21.22869350310692)" d="M2.7386127875258306,0A2.7386127875258306,2.7386127875258306,0,1,1,-2.7386127875258306,0A2.7386127875258306,2.7386127875258306,0,1,1,2.7386127875258306,0" fill="#4c78a8" stroke-width="2" opacity="1"></path><path transform="translate(328.31087958469544,20.983170151134523)" d="M2.7386127875258306,0A2.7386127875258306,2.7386127875258306,0,1,1,-2.7386127875258306,0A2.7386127875258306,2.7386127875258306,0,1,1,2.7386127875258306,0" fill="#4c78a8" stroke-width="2" opacity="1"></path><path transform="translate(333.37568305256184,20.740765817329066)" d="M2.7386127875258306,0A2.7386127875258306,2.7386127875258306,0,1,1,-2.7386127875258306,0A2.7386127875258306,2.7386127875258306,0,1,1,2.7386127875258306,0" fill="#4c78a8" stroke-width="2" opacity="1"></path><path transform="translate(338.5021351728692,20.50143551791075)" d="M2.7386127875258306,0A2.7386127875258306,2.7386127875258306,0,1,1,-2.7386127875258306,0A2.7386127875258306,2.7386127875258306,0,1,1,2.7386127875258306,0" fill="#4c78a8" stroke-width="2" opacity="1"></path><path transform="translate(343.69074834388687,20.265135022606128)" d="M2.7386127875258306,0A2.7386127875258306,2.7386127875258306,0,1,1,-2.7386127875258306,0A2.7386127875258306,2.7386127875258306,0,1,1,2.7386127875258306,0" fill="#4c78a8" stroke-width="2" opacity="1"></path><path transform="translate(348.9420363062356,20.031820839917536)" d="M2.7386127875258306,0A2.7386127875258306,2.7386127875258306,0,1,1,-2.7386127875258306,0A2.7386127875258306,2.7386127875258306,0,1,1,2.7386127875258306,0" fill="#4c78a8" stroke-width="2" opacity="1"></path><path transform="translate(354.25651410846154,19.801450202725423)" d="M2.7386127875258306,0A2.7386127875258306,2.7386127875258306,0,1,1,-2.7386127875258306,0A2.7386127875258306,2.7386127875258306,0,1,1,2.7386127875258306,0" fill="#4c78a8" stroke-width="2" opacity="1"></path><path transform="translate(359.6346980705317,19.573981054215395)" d="M2.7386127875258306,0A2.7386127875258306,2.7386127875258306,0,1,1,-2.7386127875258306,0A2.7386127875258306,2.7386127875258306,0,1,1,2.7386127875258306,0" fill="#4c78a8" stroke-width="2" opacity="1"></path><path transform="translate(365.0771057482381,19.349372034120304)" d="M2.7386127875258306,0A2.7386127875258306,2.7386127875258306,0,1,1,-2.7386127875258306,0A2.7386127875258306,2.7386127875258306,0,1,1,2.7386127875258306,0" fill="#4c78a8" stroke-width="2" opacity="1"></path><path transform="translate(370.58425589556816,19.127582465271253)" d="M2.7386127875258306,0A2.7386127875258306,2.7386127875258306,0,1,1,-2.7386127875258306,0A2.7386127875258306,2.7386127875258306,0,1,1,2.7386127875258306,0" fill="#4c78a8" stroke-width="2" opacity="1"></path><path transform="translate(376.15666842762215,18.90857234044837)" d="M2.7386127875258306,0A2.7386127875258306,2.7386127875258306,0,1,1,-2.7386127875258306,0A2.7386127875258306,2.7386127875258306,0,1,1,2.7386127875258306,0" fill="#4c78a8" stroke-width="2" opacity="1"></path><path transform="translate(381.79486438218737,18.692302309524067)" d="M2.7386127875258306,0A2.7386127875258306,2.7386127875258306,0,1,1,-2.7386127875258306,0A2.7386127875258306,2.7386127875258306,0,1,1,2.7386127875258306,0" fill="#4c78a8" stroke-width="2" opacity="1"></path><path transform="translate(387.499365880585,18.478733666891088)" d="M2.7386127875258306,0A2.7386127875258306,2.7386127875258306,0,1,1,-2.7386127875258306,0A2.7386127875258306,2.7386127875258306,0,1,1,2.7386127875258306,0" fill="#4c78a8" stroke-width="2" opacity="1"></path><path transform="translate(393.2706960889432,18.26782833916899)" d="M2.7386127875258306,0A2.7386127875258306,2.7386127875258306,0,1,1,-2.7386127875258306,0A2.7386127875258306,2.7386127875258306,0,1,1,2.7386127875258306,0" fill="#4c78a8" stroke-width="2" opacity="1"></path><path transform="translate(399.10937917705735,18.059548873180976)" d="M2.7386127875258306,0A2.7386127875258306,2.7386127875258306,0,1,1,-2.7386127875258306,0A2.7386127875258306,2.7386127875258306,0,1,1,2.7386127875258306,0" fill="#4c78a8" stroke-width="2" opacity="1"></path></g></g><path class="foreground" aria-hidden="true" d="" display="none"></path></g></g></g></svg>