<svg version="1.1" xmlns="http://www.w3.org/2000/svg" width="1110" height="555" style="width: 1110px; height: 555px;"><style>svg {
  background-color:hsla(270, 30%, 99%, 1);  
}

.lesser-used-options .input-group-text {
  background-color: hsla(295, 100%, 95%, 1);
}

.input-group-prepend .input-group-text  {
  border-top-right-radius: 0px;
  border-bottom-right-radius: 0px;
}

.form-control {
  border-top-left-radius: 0px !important;
  border-bottom-left-radius: 0px !important;

}

.svg-hover-highlight {
  opacity: 1 !important;
}

path.svg-hover-highlight {
  stroke-width: 2px;
}

circle.svg-hover-highlight {
  stroke: black;
  stroke-width: 0.5px;
  /* display: inline !important; */
}

text.C_highlight {
  stroke: black;
  stroke-width: 0.3px;
}

text.svg-hover-highlight {
  font-size: 15px;
  stroke: black;
  stroke-width: 0.3px;
}

.chart-viz {
  background-color:hsla(270, 30%, 99%, 1);
  border-left: solid 1px #ccc;
  border-right: solid 1px #ccc;
  border-top: solid 1px #ccc;
}

.chart-header, .chart-header h2  {
  text-align: left;
  font-family: 'Roboto', sans-serif;
  font-size: 1.3em;
  font-weight: bold;
  padding: 0px;  
  border-bottom-width: 0px;
}

.chart-footer {
  background-color:hsla(270, 30%, 99%, 1);
  border: solid 1px #ccc;
  padding: 5px;
}

.axis text {
  font-weight: bold;
  font-family: 'Montserrat', sans-serif;
}

.axis-title {
  font-size: 14px;
  font-weight: bold;
  font-family: 'Montserrat', sans-serif;
}

.grid {
  stroke-opacity: 0.15;
  color:hsla(270, 30%, 50%, 1);
}

.tip-country {
  font-weight: bold;
  border-bottom: solid 1px black;      
}

.tip-details {
  font-size: 12px;
}

.text-credits {
  opacity: 0.3;
  font-weight: bold;
  font-size: 12px;
  font-family: 'Montserrat', sans-serif;
}

.label-country {
  font-size: 10px;
  font-weight: bold;
  font-family: 'Montserrat', sans-serif;
}

i {
  color: #aaa;
}

.data-scale-float { float: right; text-align: right; }
.data-scale-float > div { padding-bottom: 3px; }


/* == https://rawgit.com/Caged/d3-tip/master/examples/example-styles.css ==  */
.d3-tip {
  line-height: 1;
  padding: 4px;
  background: rgba(255, 255, 255, 0.9);
  color: #000;
  border-radius: 2px;
  pointer-events: none;
  border: solid 1px black;

  margin-bottom: 200px;
  
  width: 200px;
  text-align: center;
}

/* Creates a small triangle extender for the tooltip */
.d3-tip:after {
  box-sizing: border-box;
  display: inline;
  font-size: 10px;
  width: 100%;
  line-height: 1;
  color: rgba(0, 0, 0, 0.8);
  position: absolute;
  pointer-events: none;
}

.d3-tip.n:after {
  content: "\25BC";
  margin: -1px 0 0 0;
  top: 100%;
  left: 0;
  text-align: center;
}

/* Eastward tooltips */
.d3-tip.e:after {
  content: "\25C0";
  margin: -4px 0 0 0;
  top: 50%;
  left: -8px;
}

/* Southward tooltips */
.d3-tip.s:after {
  content: "\25B2";
  margin: 0 0 1px 0;
  top: -8px;
  left: 0;
  text-align: center;
}

/* Westward tooltips */
.d3-tip.w:after {
  content: "\25B6";
  margin: -4px 0 0 -1px;
  top: 50%;
  left: 100%;
}

.query-string {
  display: none;
  border-top: dashed 1px #aaa;
}


@media (min-width: 501px) {
  .divoc-graph-loading { height: 555px; }
  .divoc-graph-loading > .spinner-border { margin-top: 250px; }
}

@media (max-width: 500px) {
  .divoc-graph-loading { height: 355px; }
  .divoc-graph-loading > .spinner-border { margin-top: 150px; }
}




</style><g transform="translate(60,20)"><rect x="822.6865671641791" width="217.3134328358209" y="0" height="490" fill="#fffffa"></rect><line x1="186.2686567164179" x2="186.2686567164179" y1="-12" y2="490" stroke="#bbb" stroke-width="1"></line><text x="182.2686567164179" y="-2" class="text-credits" text-anchor="end">Apr 1</text><line x1="651.9402985074627" x2="651.9402985074627" y1="-12" y2="490" stroke="#bbb" stroke-width="1"></line><text x="647.9402985074627" y="-2" class="text-credits" text-anchor="end">May 1</text><line x1="1040" x2="1040" y1="-12" y2="490" stroke="#bbb" stroke-width="3"></line><text x="1036" y="-2" class="text-credits" text-anchor="end">May 26</text><g transform="translate(0, 490)" class="axis" fill="none" font-size="10" font-family="sans-serif" text-anchor="middle"><path class="domain" stroke="currentColor" d="M0.5,6V0.5H1040.5V6"></path><g class="tick" opacity="1" transform="translate(1040.5,0)"><line stroke="currentColor" y2="6"></line><text fill="currentColor" y="9" dy="0.71em">0</text></g><g class="tick" opacity="1" transform="translate(1040.5,0)"><line stroke="currentColor" y2="6"></line><text fill="currentColor" y="9" dy="0.71em">0</text></g><g class="tick" opacity="1" transform="translate(931.8432835820896,0)"><line stroke="currentColor" y2="6"></line><text fill="currentColor" y="9" dy="0.71em">-7</text></g><g class="tick" opacity="1" transform="translate(823.1865671641791,0)"><line stroke="currentColor" y2="6"></line><text fill="currentColor" y="9" dy="0.71em">-14</text></g><g class="tick" opacity="1" transform="translate(714.5298507462686,0)"><line stroke="currentColor" y2="6"></line><text fill="currentColor" y="9" dy="0.71em">-21</text></g><g class="tick" opacity="1" transform="translate(605.8731343283582,0)"><line stroke="currentColor" y2="6"></line><text fill="currentColor" y="9" dy="0.71em">-28</text></g><g class="tick" opacity="1" transform="translate(497.2164179104478,0)"><line stroke="currentColor" y2="6"></line><text fill="currentColor" y="9" dy="0.71em">-35</text></g><g class="tick" opacity="1" transform="translate(388.55970149253733,0)"><line stroke="currentColor" y2="6"></line><text fill="currentColor" y="9" dy="0.71em">-42</text></g><g class="tick" opacity="1" transform="translate(279.9029850746269,0)"><line stroke="currentColor" y2="6"></line><text fill="currentColor" y="9" dy="0.71em">-49</text></g><g class="tick" opacity="1" transform="translate(171.2462686567164,0)"><line stroke="currentColor" y2="6"></line><text fill="currentColor" y="9" dy="0.71em">-56</text></g><g class="tick" opacity="1" transform="translate(62.58955223880597,0)"><line stroke="currentColor" y2="6"></line><text fill="currentColor" y="9" dy="0.71em">-63</text></g></g><g transform="translate(0, 490)" class="grid" fill="none" font-size="10" font-family="sans-serif" text-anchor="middle"><path class="domain" stroke="currentColor" d="M0.5,-490V0.5H1040.5V-490"></path><g class="tick" opacity="1" transform="translate(1040.5,0)"><line stroke="currentColor" y2="-490"></line><text fill="currentColor" y="3" dy="0.71em"></text></g><g class="tick" opacity="1" transform="translate(1040.5,0)"><line stroke="currentColor" y2="-490"></line><text fill="currentColor" y="3" dy="0.71em"></text></g><g class="tick" opacity="1" transform="translate(931.8432835820896,0)"><line stroke="currentColor" y2="-490"></line><text fill="currentColor" y="3" dy="0.71em"></text></g><g class="tick" opacity="1" transform="translate(823.1865671641791,0)"><line stroke="currentColor" y2="-490"></line><text fill="currentColor" y="3" dy="0.71em"></text></g><g class="tick" opacity="1" transform="translate(714.5298507462686,0)"><line stroke="currentColor" y2="-490"></line><text fill="currentColor" y="3" dy="0.71em"></text></g><g class="tick" opacity="1" transform="translate(605.8731343283582,0)"><line stroke="currentColor" y2="-490"></line><text fill="currentColor" y="3" dy="0.71em"></text></g><g class="tick" opacity="1" transform="translate(497.2164179104478,0)"><line stroke="currentColor" y2="-490"></line><text fill="currentColor" y="3" dy="0.71em"></text></g><g class="tick" opacity="1" transform="translate(388.55970149253733,0)"><line stroke="currentColor" y2="-490"></line><text fill="currentColor" y="3" dy="0.71em"></text></g><g class="tick" opacity="1" transform="translate(279.9029850746269,0)"><line stroke="currentColor" y2="-490"></line><text fill="currentColor" y="3" dy="0.71em"></text></g><g class="tick" opacity="1" transform="translate(171.2462686567164,0)"><line stroke="currentColor" y2="-490"></line><text fill="currentColor" y="3" dy="0.71em"></text></g><g class="tick" opacity="1" transform="translate(62.58955223880597,0)"><line stroke="currentColor" y2="-490"></line><text fill="currentColor" y="3" dy="0.71em"></text></g></g><g class="axis" fill="none" font-size="10" font-family="sans-serif" text-anchor="end"><path class="domain" stroke="currentColor" d="M-6,490.5H0.5V0.5H-6"></path><g class="tick" opacity="1" transform="translate(0,490.5)"><line stroke="currentColor" x2="-6"></line><text fill="currentColor" x="-9" dy="0.32em">1</text></g><g class="tick" opacity="1" transform="translate(0,352.65234469783064)"><line stroke="currentColor" x2="-6"></line><text fill="currentColor" x="-9" dy="0.32em">5</text></g><g class="tick" opacity="1" transform="translate(0,293.2845909738048)"><line stroke="currentColor" x2="-6"></line><text fill="currentColor" x="-9" dy="0.32em">10</text></g><g class="tick" opacity="1" transform="translate(0,155.43693567163544)"><line stroke="currentColor" x2="-6"></line><text fill="currentColor" x="-9" dy="0.32em">50</text></g><g class="tick" opacity="1" transform="translate(0,96.0691819476096)"><line stroke="currentColor" x2="-6"></line><text fill="currentColor" x="-9" dy="0.32em">100</text></g></g><g class="grid" fill="none" font-size="10" font-family="sans-serif" text-anchor="end"><path class="domain" stroke="currentColor" d="M1040,490.5H0.5V0.5H1040"></path><g class="tick" opacity="1" transform="translate(0,490.5)"><line stroke="currentColor" x2="1040"></line><text fill="currentColor" x="-3" dy="0.32em"></text></g><g class="tick" opacity="1" transform="translate(0,431.1322462759742)"><line stroke="currentColor" x2="1040"></line><text fill="currentColor" x="-3" dy="0.32em"></text></g><g class="tick" opacity="1" transform="translate(0,396.4043365953703)"><line stroke="currentColor" x2="1040"></line><text fill="currentColor" x="-3" dy="0.32em"></text></g><g class="tick" opacity="1" transform="translate(0,371.76449255194836)"><line stroke="currentColor" x2="1040"></line><text fill="currentColor" x="-3" dy="0.32em"></text></g><g class="tick" opacity="1" transform="translate(0,352.65234469783064)"><line stroke="currentColor" x2="1040"></line><text fill="currentColor" x="-3" dy="0.32em"></text></g><g class="tick" opacity="1" transform="translate(0,337.03658287134454)"><line stroke="currentColor" x2="1040"></line><text fill="currentColor" x="-3" dy="0.32em"></text></g><g class="tick" opacity="1" transform="translate(0,323.8336443713525)"><line stroke="currentColor" x2="1040"></line><text fill="currentColor" x="-3" dy="0.32em"></text></g><g class="tick" opacity="1" transform="translate(0,312.39673882792255)"><line stroke="currentColor" x2="1040"></line><text fill="currentColor" x="-3" dy="0.32em"></text></g><g class="tick" opacity="1" transform="translate(0,302.30867319074065)"><line stroke="currentColor" x2="1040"></line><text fill="currentColor" x="-3" dy="0.32em"></text></g><g class="tick" opacity="1" transform="translate(0,293.2845909738048)"><line stroke="currentColor" x2="1040"></line><text fill="currentColor" x="-3" dy="0.32em"></text></g><g class="tick" opacity="1" transform="translate(0,233.91683724977904)"><line stroke="currentColor" x2="1040"></line><text fill="currentColor" x="-3" dy="0.32em"></text></g><g class="tick" opacity="1" transform="translate(0,199.18892756917512)"><line stroke="currentColor" x2="1040"></line><text fill="currentColor" x="-3" dy="0.32em"></text></g><g class="tick" opacity="1" transform="translate(0,174.5490835257532)"><line stroke="currentColor" x2="1040"></line><text fill="currentColor" x="-3" dy="0.32em"></text></g><g class="tick" opacity="1" transform="translate(0,155.43693567163544)"><line stroke="currentColor" x2="1040"></line><text fill="currentColor" x="-3" dy="0.32em"></text></g><g class="tick" opacity="1" transform="translate(0,139.82117384514933)"><line stroke="currentColor" x2="1040"></line><text fill="currentColor" x="-3" dy="0.32em"></text></g><g class="tick" opacity="1" transform="translate(0,126.61823534515726)"><line stroke="currentColor" x2="1040"></line><text fill="currentColor" x="-3" dy="0.32em"></text></g><g class="tick" opacity="1" transform="translate(0,115.1813298017274)"><line stroke="currentColor" x2="1040"></line><text fill="currentColor" x="-3" dy="0.32em"></text></g><g class="tick" opacity="1" transform="translate(0,105.09326416454545)"><line stroke="currentColor" x2="1040"></line><text fill="currentColor" x="-3" dy="0.32em"></text></g><g class="tick" opacity="1" transform="translate(0,96.0691819476096)"><line stroke="currentColor" x2="1040"></line><text fill="currentColor" x="-3" dy="0.32em"></text></g><g class="tick" opacity="1" transform="translate(0,36.701428223583854)"><line stroke="currentColor" x2="1040"></line><text fill="currentColor" x="-3" dy="0.32em"></text></g><g class="tick" opacity="1" transform="translate(0,1.9735185429799535)"><line stroke="currentColor" x2="1040"></line><text fill="currentColor" x="-3" dy="0.32em"></text></g></g><text x="1035" y="485" class="axis-title" text-anchor="end">Number of days ago</text><text transform="rotate(-90)" x="-2" y="15" class="axis-title" text-anchor="end">COVID-19 Deaths/1m people</text><text x="1040" y="522" class="text-credits" text-anchor="end">Data: Johns Hopkins CSSE; Updated: 05/27/2020</text><a href="http://waf.cs.illinois.edu/"><text x="1040" y="532" class="axis-title" text-anchor="end" style="font-size: 8px; fill: rgb(170, 170, 170);">Interactive Visualization: https://91-DIVOC.com/ by @profwade_</text></a><text fill="#1f77b4" class="label-country C-Colorado C_highlight" x="1040" y="12.471384831008606" alignment-baseline="middle" dominant-baseline="middle" text-anchor="end" style="opacity: 1; font-size: 15px;">Colorado</text><text fill="#ff7f0e" class="label-country C-Georgia C_highlight" x="1040" y="35.90655286864131" alignment-baseline="middle" dominant-baseline="middle" text-anchor="end" style="opacity: 1; font-size: 15px;">Georgia</text><text fill="#2ca02c" class="label-country C-Texas C_highlight" x="1040" y="139.4339993010086" alignment-baseline="middle" dominant-baseline="middle" text-anchor="end" style="opacity: 1; font-size: 15px;">Texas</text><path fill="none" class="C-Colorado" stroke="#1f77b4" stroke-width="4" d="M31.044776119402986,486.48481658883827L46.56716417910447,473.28187808884627L62.08955223880597,461.84497254541634L77.61194029850745,402.4772188213905L93.13432835820895,387.7583192618617L108.65671641791045,357.66124350360474L124.17910447761194,345.8287272619684L139.70149253731344,310.1847707328764L155.2238805970149,310.1847707328764L170.7462686567164,277.2988581502988L186.2686567164179,277.2988581502988L201.7910447761194,264.6295635192212L217.3134328358209,248.1262335024932L232.8358208955224,236.57902586540723L248.3582089552239,216.69871533862528L263.8805970149254,210.78950598449956L279.4029850746269,195.65090173689063L294.92537313432837,189.2011141687157L310.4477611940298,189.2011141687157L325.97014925373134,175.68177499902117L341.4925373134328,167.03751408695985L357.0149253731343,154.62125908657987L372.5373134328358,149.72566586875163L388.05970149253733,144.0406701606956L403.5820895522388,143.77914457158911L419.1044776119403,137.00390595953328L434.6268656716418,132.99755640928709L450.14925373134326,129.17026373481318L465.6716417910448,122.6030519339956L481.1940298507463,122.6030519339956L496.7164179104478,110.63250252165135L512.2388059701492,106.64808347053568L527.7611940298508,99.19559697822149L543.2835820895522,82.09291522628577L558.8059701492538,80.83148500455066L574.3283582089553,80.33206922287505L589.8507462686567,78.12004936381463L605.3731343283582,74.55575293479949L620.8955223880596,71.13387718928013L636.4179104477612,69.91267023675968L651.9402985074627,65.19485594349021L667.4626865671642,64.05491751613508L682.9850746268656,63.03161306311594L698.5074626865672,62.12097710747166L714.0298507462686,57.041065085701064L729.5522388059702,55.536753065813144L745.0746268656716,53.23791502052455L760.5970149253732,51.79839266653983L776.1194029850747,51.17613051358296L791.6417910447761,50.82257144027079L807.1641791044776,49.422751699599225L822.6865671641791,47.44976514080926L838.2089552238806,43.14984938334259L853.7313432835821,41.235812996334644L869.2537313432836,36.33145722656398L884.776119402985,33.25915373037893L900.2985074626865,31.622261392175982L915.820895522388,30.990158420700006L931.3432835820896,28.71155921934144L946.865671641791,25.896531440922267L962.3880597014926,25.17430009912486L977.9104477611941,24.26381780130698L993.4328358208955,24.069967328772485L1008.955223880597,23.747855012725864L1024.4776119402984,23.68357766345291L1040,22.471384831008606" style="opacity: 1;"></path><circle cx="31.044776119402986" cy="486.48481658883827" r="4" class="C-Colorado" fill="#1f77b4" style="opacity: 1;"></circle><circle cx="46.56716417910447" cy="473.28187808884627" r="4" class="C-Colorado" fill="#1f77b4" style="opacity: 1;"></circle><circle cx="62.08955223880597" cy="461.84497254541634" r="4" class="C-Colorado" fill="#1f77b4" style="opacity: 1;"></circle><circle cx="77.61194029850745" cy="402.4772188213905" r="4" class="C-Colorado" fill="#1f77b4" style="opacity: 1;"></circle><circle cx="93.13432835820895" cy="387.7583192618617" r="4" class="C-Colorado" fill="#1f77b4" style="opacity: 1;"></circle><circle cx="108.65671641791045" cy="357.66124350360474" r="4" class="C-Colorado" fill="#1f77b4" style="opacity: 1;"></circle><circle cx="124.17910447761194" cy="345.8287272619684" r="4" class="C-Colorado" fill="#1f77b4" style="opacity: 1;"></circle><circle cx="139.70149253731344" cy="310.1847707328764" r="4" class="C-Colorado" fill="#1f77b4" style="opacity: 1;"></circle><circle cx="155.2238805970149" cy="310.1847707328764" r="4" class="C-Colorado" fill="#1f77b4" style="opacity: 1;"></circle><circle cx="170.7462686567164" cy="277.2988581502988" r="4" class="C-Colorado" fill="#1f77b4" style="opacity: 1;"></circle><circle cx="186.2686567164179" cy="277.2988581502988" r="4" class="C-Colorado" fill="#1f77b4" style="opacity: 1;"></circle><circle cx="201.7910447761194" cy="264.6295635192212" r="4" class="C-Colorado" fill="#1f77b4" style="opacity: 1;"></circle><circle cx="217.3134328358209" cy="248.1262335024932" r="4" class="C-Colorado" fill="#1f77b4" style="opacity: 1;"></circle><circle cx="232.8358208955224" cy="236.57902586540723" r="4" class="C-Colorado" fill="#1f77b4" style="opacity: 1;"></circle><circle cx="248.3582089552239" cy="216.69871533862528" r="4" class="C-Colorado" fill="#1f77b4" style="opacity: 1;"></circle><circle cx="263.8805970149254" cy="210.78950598449956" r="4" class="C-Colorado" fill="#1f77b4" style="opacity: 1;"></circle><circle cx="279.4029850746269" cy="195.65090173689063" r="4" class="C-Colorado" fill="#1f77b4" style="opacity: 1;"></circle><circle cx="294.92537313432837" cy="189.2011141687157" r="4" class="C-Colorado" fill="#1f77b4" style="opacity: 1;"></circle><circle cx="310.4477611940298" cy="189.2011141687157" r="4" class="C-Colorado" fill="#1f77b4" style="opacity: 1;"></circle><circle cx="325.97014925373134" cy="175.68177499902117" r="4" class="C-Colorado" fill="#1f77b4" style="opacity: 1;"></circle><circle cx="341.4925373134328" cy="167.03751408695985" r="4" class="C-Colorado" fill="#1f77b4" style="opacity: 1;"></circle><circle cx="357.0149253731343" cy="154.62125908657987" r="4" class="C-Colorado" fill="#1f77b4" style="opacity: 1;"></circle><circle cx="372.5373134328358" cy="149.72566586875163" r="4" class="C-Colorado" fill="#1f77b4" style="opacity: 1;"></circle><circle cx="388.05970149253733" cy="144.0406701606956" r="4" class="C-Colorado" fill="#1f77b4" style="opacity: 1;"></circle><circle cx="403.5820895522388" cy="143.77914457158911" r="4" class="C-Colorado" fill="#1f77b4" style="opacity: 1;"></circle><circle cx="419.1044776119403" cy="137.00390595953328" r="4" class="C-Colorado" fill="#1f77b4" style="opacity: 1;"></circle><circle cx="434.6268656716418" cy="132.99755640928709" r="4" class="C-Colorado" fill="#1f77b4" style="opacity: 1;"></circle><circle cx="450.14925373134326" cy="129.17026373481318" r="4" class="C-Colorado" fill="#1f77b4" style="opacity: 1;"></circle><circle cx="465.6716417910448" cy="122.6030519339956" r="4" class="C-Colorado" fill="#1f77b4" style="opacity: 1;"></circle><circle cx="481.1940298507463" cy="122.6030519339956" r="4" class="C-Colorado" fill="#1f77b4" style="opacity: 1;"></circle><circle cx="496.7164179104478" cy="110.63250252165135" r="4" class="C-Colorado" fill="#1f77b4" style="opacity: 1;"></circle><circle cx="512.2388059701492" cy="106.64808347053568" r="4" class="C-Colorado" fill="#1f77b4" style="opacity: 1;"></circle><circle cx="527.7611940298508" cy="99.19559697822149" r="4" class="C-Colorado" fill="#1f77b4" style="opacity: 1;"></circle><circle cx="543.2835820895522" cy="82.09291522628577" r="4" class="C-Colorado" fill="#1f77b4" style="opacity: 1;"></circle><circle cx="558.8059701492538" cy="80.83148500455066" r="4" class="C-Colorado" fill="#1f77b4" style="opacity: 1;"></circle><circle cx="574.3283582089553" cy="80.33206922287505" r="4" class="C-Colorado" fill="#1f77b4" style="opacity: 1;"></circle><circle cx="589.8507462686567" cy="78.12004936381463" r="4" class="C-Colorado" fill="#1f77b4" style="opacity: 1;"></circle><circle cx="605.3731343283582" cy="74.55575293479949" r="4" class="C-Colorado" fill="#1f77b4" style="opacity: 1;"></circle><circle cx="620.8955223880596" cy="71.13387718928013" r="4" class="C-Colorado" fill="#1f77b4" style="opacity: 1;"></circle><circle cx="636.4179104477612" cy="69.91267023675968" r="4" class="C-Colorado" fill="#1f77b4" style="opacity: 1;"></circle><circle cx="651.9402985074627" cy="65.19485594349021" r="4" class="C-Colorado" fill="#1f77b4" style="opacity: 1;"></circle><circle cx="667.4626865671642" cy="64.05491751613508" r="4" class="C-Colorado" fill="#1f77b4" style="opacity: 1;"></circle><circle cx="682.9850746268656" cy="63.03161306311594" r="4" class="C-Colorado" fill="#1f77b4" style="opacity: 1;"></circle><circle cx="698.5074626865672" cy="62.12097710747166" r="4" class="C-Colorado" fill="#1f77b4" style="opacity: 1;"></circle><circle cx="714.0298507462686" cy="57.041065085701064" r="4" class="C-Colorado" fill="#1f77b4" style="opacity: 1;"></circle><circle cx="729.5522388059702" cy="55.536753065813144" r="4" class="C-Colorado" fill="#1f77b4" style="opacity: 1;"></circle><circle cx="745.0746268656716" cy="53.23791502052455" r="4" class="C-Colorado" fill="#1f77b4" style="opacity: 1;"></circle><circle cx="760.5970149253732" cy="51.79839266653983" r="4" class="C-Colorado" fill="#1f77b4" style="opacity: 1;"></circle><circle cx="776.1194029850747" cy="51.17613051358296" r="4" class="C-Colorado" fill="#1f77b4" style="opacity: 1;"></circle><circle cx="791.6417910447761" cy="50.82257144027079" r="4" class="C-Colorado" fill="#1f77b4" style="opacity: 1;"></circle><circle cx="807.1641791044776" cy="49.422751699599225" r="4" class="C-Colorado" fill="#1f77b4" style="opacity: 1;"></circle><circle cx="822.6865671641791" cy="47.44976514080926" r="4" class="C-Colorado" fill="#1f77b4" style="opacity: 1;"></circle><circle cx="838.2089552238806" cy="43.14984938334259" r="4" class="C-Colorado" fill="#1f77b4" style="opacity: 1;"></circle><circle cx="853.7313432835821" cy="41.235812996334644" r="4" class="C-Colorado" fill="#1f77b4" style="opacity: 1;"></circle><circle cx="869.2537313432836" cy="36.33145722656398" r="4" class="C-Colorado" fill="#1f77b4" style="opacity: 1;"></circle><circle cx="884.776119402985" cy="33.25915373037893" r="4" class="C-Colorado" fill="#1f77b4" style="opacity: 1;"></circle><circle cx="900.2985074626865" cy="31.622261392175982" r="4" class="C-Colorado" fill="#1f77b4" style="opacity: 1;"></circle><circle cx="915.820895522388" cy="30.990158420700006" r="4" class="C-Colorado" fill="#1f77b4" style="opacity: 1;"></circle><circle cx="931.3432835820896" cy="28.71155921934144" r="4" class="C-Colorado" fill="#1f77b4" style="opacity: 1;"></circle><circle cx="946.865671641791" cy="25.896531440922267" r="4" class="C-Colorado" fill="#1f77b4" style="opacity: 1;"></circle><circle cx="962.3880597014926" cy="25.17430009912486" r="4" class="C-Colorado" fill="#1f77b4" style="opacity: 1;"></circle><circle cx="977.9104477611941" cy="24.26381780130698" r="4" class="C-Colorado" fill="#1f77b4" style="opacity: 1;"></circle><circle cx="993.4328358208955" cy="24.069967328772485" r="4" class="C-Colorado" fill="#1f77b4" style="opacity: 1;"></circle><circle cx="1008.955223880597" cy="23.747855012725864" r="4" class="C-Colorado" fill="#1f77b4" style="opacity: 1;"></circle><circle cx="1024.4776119402984" cy="23.68357766345291" r="4" class="C-Colorado" fill="#1f77b4" style="opacity: 1;"></circle><circle cx="1040" cy="22.471384831008606" r="4" class="C-Colorado" fill="#1f77b4" style="opacity: 1;"></circle><path fill="none" class="C-Georgia" stroke="#ff7f0e" stroke-width="4" d="M0,472.6599865761781L15.522388059701493,466.31267108070864L31.044776119402986,416.6514698290432L46.56716417910447,416.6514698290432L62.08955223880597,395.50801181325284L77.61194029850745,376.3958639591351L93.13432835820895,360.780102132649L108.65671641791045,336.1402580892271L124.17910447761194,329.69740486618707L139.70149253731344,317.0281102351093L155.2238805970149,309.8436977140207L170.7462686567164,288.97757258129536L186.2686567164179,269.7112400520806L201.7910447761194,256.0692971881765L217.3134328358209,245.68980709873927L232.8358208955224,238.12102790168012L248.3582089552239,233.96246531943822L263.8805970149254,226.9508605491923L279.4029850746269,195.91696182011705L294.92537313432837,187.7300231168525L310.4477611940298,183.79939390854375L325.97014925373134,175.821217956049L341.4925373134328,173.18563881118135L357.0149253731343,172.3907415614401L372.5373134328358,166.28395527105752L388.05970149253733,155.88945079576592L403.5820895522388,151.5941436941096L419.1044776119403,146.3286848503252L434.6268656716418,137.5969222478135L450.14925373134326,134.61863281020868L465.6716417910448,132.85519714456268L481.1940298507463,122.53196337351778L496.7164179104478,120.02709322044673L512.2388059701492,114.82199463996069L527.7611940298508,111.55215208360913L543.2835820895522,109.81985466312504L558.8059701492538,109.06104957696971L574.3283582089553,108.21535310114066L589.8507462686567,101.12987537594515L605.3731343283582,97.67137290922588L620.8955223880596,92.45945015167428L636.4179104477612,90.08120825853022L651.9402985074627,87.32648679810255L667.4626865671642,86.74234428570107L682.9850746268656,86.23446736579596L698.5074626865672,81.86292356865476L714.0298507462686,78.29507815681036L729.5522388059702,76.46851404466058L745.0746268656716,74.68009128324455L760.5970149253732,71.88185302831826L776.1194029850747,71.69851461249873L791.6417910447761,71.51556780626704L807.1641791044776,69.23144407406605L822.6865671641791,66.08691929339484L838.2089552238806,65.0074080120978L853.7313432835821,63.44094515320075L869.2537313432836,61.08974022064947L884.776119402985,60.552076409281824L900.2985074626865,59.91130361597396L915.820895522388,57.86129290292428L931.3432835820896,56.521380701971026L946.865671641791,55.40375487622587L962.3880597014926,51.55479737325205L977.9104477611941,49.9770605428319L993.4328358208955,49.316399474084925L1008.955223880597,49.08167868074346L1024.4776119402984,48.10281586766021L1040,45.90655286864131" style="opacity: 1;"></path><circle cx="0" cy="472.6599865761781" r="4" class="C-Georgia" fill="#ff7f0e" style="opacity: 1;"></circle><circle cx="15.522388059701493" cy="466.31267108070864" r="4" class="C-Georgia" fill="#ff7f0e" style="opacity: 1;"></circle><circle cx="31.044776119402986" cy="416.6514698290432" r="4" class="C-Georgia" fill="#ff7f0e" style="opacity: 1;"></circle><circle cx="46.56716417910447" cy="416.6514698290432" r="4" class="C-Georgia" fill="#ff7f0e" style="opacity: 1;"></circle><circle cx="62.08955223880597" cy="395.50801181325284" r="4" class="C-Georgia" fill="#ff7f0e" style="opacity: 1;"></circle><circle cx="77.61194029850745" cy="376.3958639591351" r="4" class="C-Georgia" fill="#ff7f0e" style="opacity: 1;"></circle><circle cx="93.13432835820895" cy="360.780102132649" r="4" class="C-Georgia" fill="#ff7f0e" style="opacity: 1;"></circle><circle cx="108.65671641791045" cy="336.1402580892271" r="4" class="C-Georgia" fill="#ff7f0e" style="opacity: 1;"></circle><circle cx="124.17910447761194" cy="329.69740486618707" r="4" class="C-Georgia" fill="#ff7f0e" style="opacity: 1;"></circle><circle cx="139.70149253731344" cy="317.0281102351093" r="4" class="C-Georgia" fill="#ff7f0e" style="opacity: 1;"></circle><circle cx="155.2238805970149" cy="309.8436977140207" r="4" class="C-Georgia" fill="#ff7f0e" style="opacity: 1;"></circle><circle cx="170.7462686567164" cy="288.97757258129536" r="4" class="C-Georgia" fill="#ff7f0e" style="opacity: 1;"></circle><circle cx="186.2686567164179" cy="269.7112400520806" r="4" class="C-Georgia" fill="#ff7f0e" style="opacity: 1;"></circle><circle cx="201.7910447761194" cy="256.0692971881765" r="4" class="C-Georgia" fill="#ff7f0e" style="opacity: 1;"></circle><circle cx="217.3134328358209" cy="245.68980709873927" r="4" class="C-Georgia" fill="#ff7f0e" style="opacity: 1;"></circle><circle cx="232.8358208955224" cy="238.12102790168012" r="4" class="C-Georgia" fill="#ff7f0e" style="opacity: 1;"></circle><circle cx="248.3582089552239" cy="233.96246531943822" r="4" class="C-Georgia" fill="#ff7f0e" style="opacity: 1;"></circle><circle cx="263.8805970149254" cy="226.9508605491923" r="4" class="C-Georgia" fill="#ff7f0e" style="opacity: 1;"></circle><circle cx="279.4029850746269" cy="195.91696182011705" r="4" class="C-Georgia" fill="#ff7f0e" style="opacity: 1;"></circle><circle cx="294.92537313432837" cy="187.7300231168525" r="4" class="C-Georgia" fill="#ff7f0e" style="opacity: 1;"></circle><circle cx="310.4477611940298" cy="183.79939390854375" r="4" class="C-Georgia" fill="#ff7f0e" style="opacity: 1;"></circle><circle cx="325.97014925373134" cy="175.821217956049" r="4" class="C-Georgia" fill="#ff7f0e" style="opacity: 1;"></circle><circle cx="341.4925373134328" cy="173.18563881118135" r="4" class="C-Georgia" fill="#ff7f0e" style="opacity: 1;"></circle><circle cx="357.0149253731343" cy="172.3907415614401" r="4" class="C-Georgia" fill="#ff7f0e" style="opacity: 1;"></circle><circle cx="372.5373134328358" cy="166.28395527105752" r="4" class="C-Georgia" fill="#ff7f0e" style="opacity: 1;"></circle><circle cx="388.05970149253733" cy="155.88945079576592" r="4" class="C-Georgia" fill="#ff7f0e" style="opacity: 1;"></circle><circle cx="403.5820895522388" cy="151.5941436941096" r="4" class="C-Georgia" fill="#ff7f0e" style="opacity: 1;"></circle><circle cx="419.1044776119403" cy="146.3286848503252" r="4" class="C-Georgia" fill="#ff7f0e" style="opacity: 1;"></circle><circle cx="434.6268656716418" cy="137.5969222478135" r="4" class="C-Georgia" fill="#ff7f0e" style="opacity: 1;"></circle><circle cx="450.14925373134326" cy="134.61863281020868" r="4" class="C-Georgia" fill="#ff7f0e" style="opacity: 1;"></circle><circle cx="465.6716417910448" cy="132.85519714456268" r="4" class="C-Georgia" fill="#ff7f0e" style="opacity: 1;"></circle><circle cx="481.1940298507463" cy="122.53196337351778" r="4" class="C-Georgia" fill="#ff7f0e" style="opacity: 1;"></circle><circle cx="496.7164179104478" cy="120.02709322044673" r="4" class="C-Georgia" fill="#ff7f0e" style="opacity: 1;"></circle><circle cx="512.2388059701492" cy="114.82199463996069" r="4" class="C-Georgia" fill="#ff7f0e" style="opacity: 1;"></circle><circle cx="527.7611940298508" cy="111.55215208360913" r="4" class="C-Georgia" fill="#ff7f0e" style="opacity: 1;"></circle><circle cx="543.2835820895522" cy="109.81985466312504" r="4" class="C-Georgia" fill="#ff7f0e" style="opacity: 1;"></circle><circle cx="558.8059701492538" cy="109.06104957696971" r="4" class="C-Georgia" fill="#ff7f0e" style="opacity: 1;"></circle><circle cx="574.3283582089553" cy="108.21535310114066" r="4" class="C-Georgia" fill="#ff7f0e" style="opacity: 1;"></circle><circle cx="589.8507462686567" cy="101.12987537594515" r="4" class="C-Georgia" fill="#ff7f0e" style="opacity: 1;"></circle><circle cx="605.3731343283582" cy="97.67137290922588" r="4" class="C-Georgia" fill="#ff7f0e" style="opacity: 1;"></circle><circle cx="620.8955223880596" cy="92.45945015167428" r="4" class="C-Georgia" fill="#ff7f0e" style="opacity: 1;"></circle><circle cx="636.4179104477612" cy="90.08120825853022" r="4" class="C-Georgia" fill="#ff7f0e" style="opacity: 1;"></circle><circle cx="651.9402985074627" cy="87.32648679810255" r="4" class="C-Georgia" fill="#ff7f0e" style="opacity: 1;"></circle><circle cx="667.4626865671642" cy="86.74234428570107" r="4" class="C-Georgia" fill="#ff7f0e" style="opacity: 1;"></circle><circle cx="682.9850746268656" cy="86.23446736579596" r="4" class="C-Georgia" fill="#ff7f0e" style="opacity: 1;"></circle><circle cx="698.5074626865672" cy="81.86292356865476" r="4" class="C-Georgia" fill="#ff7f0e" style="opacity: 1;"></circle><circle cx="714.0298507462686" cy="78.29507815681036" r="4" class="C-Georgia" fill="#ff7f0e" style="opacity: 1;"></circle><circle cx="729.5522388059702" cy="76.46851404466058" r="4" class="C-Georgia" fill="#ff7f0e" style="opacity: 1;"></circle><circle cx="745.0746268656716" cy="74.68009128324455" r="4" class="C-Georgia" fill="#ff7f0e" style="opacity: 1;"></circle><circle cx="760.5970149253732" cy="71.88185302831826" r="4" class="C-Georgia" fill="#ff7f0e" style="opacity: 1;"></circle><circle cx="776.1194029850747" cy="71.69851461249873" r="4" class="C-Georgia" fill="#ff7f0e" style="opacity: 1;"></circle><circle cx="791.6417910447761" cy="71.51556780626704" r="4" class="C-Georgia" fill="#ff7f0e" style="opacity: 1;"></circle><circle cx="807.1641791044776" cy="69.23144407406605" r="4" class="C-Georgia" fill="#ff7f0e" style="opacity: 1;"></circle><circle cx="822.6865671641791" cy="66.08691929339484" r="4" class="C-Georgia" fill="#ff7f0e" style="opacity: 1;"></circle><circle cx="838.2089552238806" cy="65.0074080120978" r="4" class="C-Georgia" fill="#ff7f0e" style="opacity: 1;"></circle><circle cx="853.7313432835821" cy="63.44094515320075" r="4" class="C-Georgia" fill="#ff7f0e" style="opacity: 1;"></circle><circle cx="869.2537313432836" cy="61.08974022064947" r="4" class="C-Georgia" fill="#ff7f0e" style="opacity: 1;"></circle><circle cx="884.776119402985" cy="60.552076409281824" r="4" class="C-Georgia" fill="#ff7f0e" style="opacity: 1;"></circle><circle cx="900.2985074626865" cy="59.91130361597396" r="4" class="C-Georgia" fill="#ff7f0e" style="opacity: 1;"></circle><circle cx="915.820895522388" cy="57.86129290292428" r="4" class="C-Georgia" fill="#ff7f0e" style="opacity: 1;"></circle><circle cx="931.3432835820896" cy="56.521380701971026" r="4" class="C-Georgia" fill="#ff7f0e" style="opacity: 1;"></circle><circle cx="946.865671641791" cy="55.40375487622587" r="4" class="C-Georgia" fill="#ff7f0e" style="opacity: 1;"></circle><circle cx="962.3880597014926" cy="51.55479737325205" r="4" class="C-Georgia" fill="#ff7f0e" style="opacity: 1;"></circle><circle cx="977.9104477611941" cy="49.9770605428319" r="4" class="C-Georgia" fill="#ff7f0e" style="opacity: 1;"></circle><circle cx="993.4328358208955" cy="49.316399474084925" r="4" class="C-Georgia" fill="#ff7f0e" style="opacity: 1;"></circle><circle cx="1008.955223880597" cy="49.08167868074346" r="4" class="C-Georgia" fill="#ff7f0e" style="opacity: 1;"></circle><circle cx="1024.4776119402984" cy="48.10281586766021" r="4" class="C-Georgia" fill="#ff7f0e" style="opacity: 1;"></circle><circle cx="1040" cy="45.90655286864131" r="4" class="C-Georgia" fill="#ff7f0e" style="opacity: 1;"></circle><path fill="none" class="C-Texas" stroke="#2ca02c" stroke-width="4" d="M124.17910447761194,487.0841808283815L139.70149253731344,469.1217088117494L155.2238805970149,452.35627114777753L170.7462686567164,436.7405093212914L186.2686567164179,419.5531517701838L201.7910447761194,406.3502132701917L217.3134328358209,383.9644352068159L232.8358208955224,371.2523264964231L248.3582089552239,357.6285047716719L263.8805970149254,349.23652552621206L279.4029850746269,343.70882933690785L294.92537313432837,329.4419074166697L310.4477611940298,320.4178251997339L325.97014925373134,309.69765659107594L341.4925373134328,300.1712294509008L357.0149253731343,294.86518853240625L372.5373134328358,288.4530442987189L388.05970149253733,278.64625827028897L403.5820895522388,270.75662394806847L419.1044776119403,262.28246056335587L434.6268656716418,254.950740925012L450.14925373134326,250.32990286705018L465.6716417910448,247.84713297571602L481.1940298507463,244.9260021401689L496.7164179104478,240.6426314281752L512.2388059701492,237.02420542985337L527.7611940298508,229.93191589208212L543.2835820895522,227.14178110126946L558.8059701492538,225.24139586008184L574.3283582089553,223.51372777040373L589.8507462686567,221.56262827846422L605.3731343283582,215.00429666539742L620.8955223880596,210.93328636324506L636.4179104477612,204.58597086777561L651.9402985074627,201.68231775168226L667.4626865671642,199.36868327690647L682.9850746268656,197.89277833842192L698.5074626865672,195.6779950464313L714.0298507462686,193.42639820741067L729.5522388059702,190.7824018286031L745.0746268656716,188.0435026677879L760.5970149253732,184.63411468104036L776.1194029850747,181.27487770414942L791.6417910447761,179.05420906379436L807.1641791044776,177.2721999896193L822.6865671641791,175.07690760639093L838.2089552238806,173.15543904954217L853.7313432835821,168.6708896442009L869.2537313432836,165.6055681648304L884.776119402985,163.099859498047L900.2985074626865,161.49046295571588L915.820895522388,161.04519871695268L931.3432835820896,158.66762937897286L946.865671641791,156.3542809170899L962.3880597014926,154.3361105024697L977.9104477611941,153.7514695710864L993.4328358208955,153.28661326642492L1008.955223880597,150.437063562969L1024.4776119402984,150.15725421941346L1040,149.4339993010086" style="opacity: 1;"></path><circle cx="124.17910447761194" cy="487.0841808283815" r="4" class="C-Texas" fill="#2ca02c" style="opacity: 1;"></circle><circle cx="139.70149253731344" cy="469.1217088117494" r="4" class="C-Texas" fill="#2ca02c" style="opacity: 1;"></circle><circle cx="155.2238805970149" cy="452.35627114777753" r="4" class="C-Texas" fill="#2ca02c" style="opacity: 1;"></circle><circle cx="170.7462686567164" cy="436.7405093212914" r="4" class="C-Texas" fill="#2ca02c" style="opacity: 1;"></circle><circle cx="186.2686567164179" cy="419.5531517701838" r="4" class="C-Texas" fill="#2ca02c" style="opacity: 1;"></circle><circle cx="201.7910447761194" cy="406.3502132701917" r="4" class="C-Texas" fill="#2ca02c" style="opacity: 1;"></circle><circle cx="217.3134328358209" cy="383.9644352068159" r="4" class="C-Texas" fill="#2ca02c" style="opacity: 1;"></circle><circle cx="232.8358208955224" cy="371.2523264964231" r="4" class="C-Texas" fill="#2ca02c" style="opacity: 1;"></circle><circle cx="248.3582089552239" cy="357.6285047716719" r="4" class="C-Texas" fill="#2ca02c" style="opacity: 1;"></circle><circle cx="263.8805970149254" cy="349.23652552621206" r="4" class="C-Texas" fill="#2ca02c" style="opacity: 1;"></circle><circle cx="279.4029850746269" cy="343.70882933690785" r="4" class="C-Texas" fill="#2ca02c" style="opacity: 1;"></circle><circle cx="294.92537313432837" cy="329.4419074166697" r="4" class="C-Texas" fill="#2ca02c" style="opacity: 1;"></circle><circle cx="310.4477611940298" cy="320.4178251997339" r="4" class="C-Texas" fill="#2ca02c" style="opacity: 1;"></circle><circle cx="325.97014925373134" cy="309.69765659107594" r="4" class="C-Texas" fill="#2ca02c" style="opacity: 1;"></circle><circle cx="341.4925373134328" cy="300.1712294509008" r="4" class="C-Texas" fill="#2ca02c" style="opacity: 1;"></circle><circle cx="357.0149253731343" cy="294.86518853240625" r="4" class="C-Texas" fill="#2ca02c" style="opacity: 1;"></circle><circle cx="372.5373134328358" cy="288.4530442987189" r="4" class="C-Texas" fill="#2ca02c" style="opacity: 1;"></circle><circle cx="388.05970149253733" cy="278.64625827028897" r="4" class="C-Texas" fill="#2ca02c" style="opacity: 1;"></circle><circle cx="403.5820895522388" cy="270.75662394806847" r="4" class="C-Texas" fill="#2ca02c" style="opacity: 1;"></circle><circle cx="419.1044776119403" cy="262.28246056335587" r="4" class="C-Texas" fill="#2ca02c" style="opacity: 1;"></circle><circle cx="434.6268656716418" cy="254.950740925012" r="4" class="C-Texas" fill="#2ca02c" style="opacity: 1;"></circle><circle cx="450.14925373134326" cy="250.32990286705018" r="4" class="C-Texas" fill="#2ca02c" style="opacity: 1;"></circle><circle cx="465.6716417910448" cy="247.84713297571602" r="4" class="C-Texas" fill="#2ca02c" style="opacity: 1;"></circle><circle cx="481.1940298507463" cy="244.9260021401689" r="4" class="C-Texas" fill="#2ca02c" style="opacity: 1;"></circle><circle cx="496.7164179104478" cy="240.6426314281752" r="4" class="C-Texas" fill="#2ca02c" style="opacity: 1;"></circle><circle cx="512.2388059701492" cy="237.02420542985337" r="4" class="C-Texas" fill="#2ca02c" style="opacity: 1;"></circle><circle cx="527.7611940298508" cy="229.93191589208212" r="4" class="C-Texas" fill="#2ca02c" style="opacity: 1;"></circle><circle cx="543.2835820895522" cy="227.14178110126946" r="4" class="C-Texas" fill="#2ca02c" style="opacity: 1;"></circle><circle cx="558.8059701492538" cy="225.24139586008184" r="4" class="C-Texas" fill="#2ca02c" style="opacity: 1;"></circle><circle cx="574.3283582089553" cy="223.51372777040373" r="4" class="C-Texas" fill="#2ca02c" style="opacity: 1;"></circle><circle cx="589.8507462686567" cy="221.56262827846422" r="4" class="C-Texas" fill="#2ca02c" style="opacity: 1;"></circle><circle cx="605.3731343283582" cy="215.00429666539742" r="4" class="C-Texas" fill="#2ca02c" style="opacity: 1;"></circle><circle cx="620.8955223880596" cy="210.93328636324506" r="4" class="C-Texas" fill="#2ca02c" style="opacity: 1;"></circle><circle cx="636.4179104477612" cy="204.58597086777561" r="4" class="C-Texas" fill="#2ca02c" style="opacity: 1;"></circle><circle cx="651.9402985074627" cy="201.68231775168226" r="4" class="C-Texas" fill="#2ca02c" style="opacity: 1;"></circle><circle cx="667.4626865671642" cy="199.36868327690647" r="4" class="C-Texas" fill="#2ca02c" style="opacity: 1;"></circle><circle cx="682.9850746268656" cy="197.89277833842192" r="4" class="C-Texas" fill="#2ca02c" style="opacity: 1;"></circle><circle cx="698.5074626865672" cy="195.6779950464313" r="4" class="C-Texas" fill="#2ca02c" style="opacity: 1;"></circle><circle cx="714.0298507462686" cy="193.42639820741067" r="4" class="C-Texas" fill="#2ca02c" style="opacity: 1;"></circle><circle cx="729.5522388059702" cy="190.7824018286031" r="4" class="C-Texas" fill="#2ca02c" style="opacity: 1;"></circle><circle cx="745.0746268656716" cy="188.0435026677879" r="4" class="C-Texas" fill="#2ca02c" style="opacity: 1;"></circle><circle cx="760.5970149253732" cy="184.63411468104036" r="4" class="C-Texas" fill="#2ca02c" style="opacity: 1;"></circle><circle cx="776.1194029850747" cy="181.27487770414942" r="4" class="C-Texas" fill="#2ca02c" style="opacity: 1;"></circle><circle cx="791.6417910447761" cy="179.05420906379436" r="4" class="C-Texas" fill="#2ca02c" style="opacity: 1;"></circle><circle cx="807.1641791044776" cy="177.2721999896193" r="4" class="C-Texas" fill="#2ca02c" style="opacity: 1;"></circle><circle cx="822.6865671641791" cy="175.07690760639093" r="4" class="C-Texas" fill="#2ca02c" style="opacity: 1;"></circle><circle cx="838.2089552238806" cy="173.15543904954217" r="4" class="C-Texas" fill="#2ca02c" style="opacity: 1;"></circle><circle cx="853.7313432835821" cy="168.6708896442009" r="4" class="C-Texas" fill="#2ca02c" style="opacity: 1;"></circle><circle cx="869.2537313432836" cy="165.6055681648304" r="4" class="C-Texas" fill="#2ca02c" style="opacity: 1;"></circle><circle cx="884.776119402985" cy="163.099859498047" r="4" class="C-Texas" fill="#2ca02c" style="opacity: 1;"></circle><circle cx="900.2985074626865" cy="161.49046295571588" r="4" class="C-Texas" fill="#2ca02c" style="opacity: 1;"></circle><circle cx="915.820895522388" cy="161.04519871695268" r="4" class="C-Texas" fill="#2ca02c" style="opacity: 1;"></circle><circle cx="931.3432835820896" cy="158.66762937897286" r="4" class="C-Texas" fill="#2ca02c" style="opacity: 1;"></circle><circle cx="946.865671641791" cy="156.3542809170899" r="4" class="C-Texas" fill="#2ca02c" style="opacity: 1;"></circle><circle cx="962.3880597014926" cy="154.3361105024697" r="4" class="C-Texas" fill="#2ca02c" style="opacity: 1;"></circle><circle cx="977.9104477611941" cy="153.7514695710864" r="4" class="C-Texas" fill="#2ca02c" style="opacity: 1;"></circle><circle cx="993.4328358208955" cy="153.28661326642492" r="4" class="C-Texas" fill="#2ca02c" style="opacity: 1;"></circle><circle cx="1008.955223880597" cy="150.437063562969" r="4" class="C-Texas" fill="#2ca02c" style="opacity: 1;"></circle><circle cx="1024.4776119402984" cy="150.15725421941346" r="4" class="C-Texas" fill="#2ca02c" style="opacity: 1;"></circle><circle cx="1040" cy="149.4339993010086" r="4" class="C-Texas" fill="#2ca02c" style="opacity: 1;"></circle></g></svg>