<svg version="1.1" xmlns="http://www.w3.org/2000/svg" width="1110" height="555" style="width: 1110px; height: 555px;"><style>svg {
  background-color:hsla(270, 30%, 99%, 1);  
}

.lesser-used-options .input-group-text {
  background-color: hsla(295, 100%, 95%, 1);
}

.input-group-prepend .input-group-text  {
  border-top-right-radius: 0px;
  border-bottom-right-radius: 0px;
}

.form-control {
  border-top-left-radius: 0px !important;
  border-bottom-left-radius: 0px !important;

}

.svg-hover-highlight {
  opacity: 1 !important;
}

path.svg-hover-highlight {
  stroke-width: 2px;
}

circle.svg-hover-highlight {
  stroke: black;
  stroke-width: 0.5px;
  /* display: inline !important; */
}

text.C_highlight {
  stroke: black;
  stroke-width: 0.3px;
}

text.svg-hover-highlight {
  font-size: 15px;
  stroke: black;
  stroke-width: 0.3px;
}

.chart-viz {
  background-color:hsla(270, 30%, 99%, 1);
  border-left: solid 1px #ccc;
  border-right: solid 1px #ccc;
  border-top: solid 1px #ccc;
}

.chart-header, .chart-header h2  {
  text-align: left;
  font-family: 'Roboto', sans-serif;
  font-size: 1.3em;
  font-weight: bold;
  padding: 0px;  
  border-bottom-width: 0px;
}

.chart-footer {
  background-color:hsla(270, 30%, 99%, 1);
  border: solid 1px #ccc;
  padding: 5px;
}

.axis text {
  font-weight: bold;
  font-family: 'Montserrat', sans-serif;
}

.axis-title {
  font-size: 14px;
  font-weight: bold;
  font-family: 'Montserrat', sans-serif;
}

.grid {
  stroke-opacity: 0.15;
  color:hsla(270, 30%, 50%, 1);
}

.tip-country {
  font-weight: bold;
  border-bottom: solid 1px black;      
}

.tip-details {
  font-size: 12px;
}

.text-credits {
  opacity: 0.3;
  font-weight: bold;
  font-size: 12px;
  font-family: 'Montserrat', sans-serif;
}

.label-country {
  font-size: 10px;
  font-weight: bold;
  font-family: 'Montserrat', sans-serif;
}

i {
  color: #aaa;
}

.data-scale-float { float: right; text-align: right; }
.data-scale-float > div { padding-bottom: 3px; }


/* == https://rawgit.com/Caged/d3-tip/master/examples/example-styles.css ==  */
.d3-tip {
  line-height: 1;
  padding: 4px;
  background: rgba(255, 255, 255, 0.9);
  color: #000;
  border-radius: 2px;
  pointer-events: none;
  border: solid 1px black;

  margin-bottom: 200px;
  
  width: 200px;
  text-align: center;
}

/* Creates a small triangle extender for the tooltip */
.d3-tip:after {
  box-sizing: border-box;
  display: inline;
  font-size: 10px;
  width: 100%;
  line-height: 1;
  color: rgba(0, 0, 0, 0.8);
  position: absolute;
  pointer-events: none;
}

.d3-tip.n:after {
  content: "\25BC";
  margin: -1px 0 0 0;
  top: 100%;
  left: 0;
  text-align: center;
}

/* Eastward tooltips */
.d3-tip.e:after {
  content: "\25C0";
  margin: -4px 0 0 0;
  top: 50%;
  left: -8px;
}

/* Southward tooltips */
.d3-tip.s:after {
  content: "\25B2";
  margin: 0 0 1px 0;
  top: -8px;
  left: 0;
  text-align: center;
}

/* Westward tooltips */
.d3-tip.w:after {
  content: "\25B6";
  margin: -4px 0 0 -1px;
  top: 50%;
  left: 100%;
}

.query-string {
  display: none;
  border-top: dashed 1px #aaa;
}


@media (min-width: 501px) {
  .divoc-graph-loading { height: 555px; }
  .divoc-graph-loading > .spinner-border { margin-top: 250px; }
}

@media (max-width: 500px) {
  .divoc-graph-loading { height: 355px; }
  .divoc-graph-loading > .spinner-border { margin-top: 150px; }
}




</style><g transform="translate(60,10)"><g transform="translate(0, 500)" class="axis" fill="none" font-size="10" font-family="sans-serif" text-anchor="middle"><path class="domain" stroke="currentColor" d="M0.5,6V0.5H1030.5V6"></path><g class="tick" opacity="1" transform="translate(0.5,0)"><line stroke="currentColor" y2="6"></line><text fill="currentColor" y="9" dy="0.71em">0</text></g><g class="tick" opacity="1" transform="translate(0.5,0)"><line stroke="currentColor" y2="6"></line><text fill="currentColor" y="9" dy="0.71em">0</text></g><g class="tick" opacity="1" transform="translate(82.43181818181819,0)"><line stroke="currentColor" y2="6"></line><text fill="currentColor" y="9" dy="0.71em">7</text></g><g class="tick" opacity="1" transform="translate(164.36363636363637,0)"><line stroke="currentColor" y2="6"></line><text fill="currentColor" y="9" dy="0.71em">14</text></g><g class="tick" opacity="1" transform="translate(246.29545454545456,0)"><line stroke="currentColor" y2="6"></line><text fill="currentColor" y="9" dy="0.71em">21</text></g><g class="tick" opacity="1" transform="translate(328.22727272727275,0)"><line stroke="currentColor" y2="6"></line><text fill="currentColor" y="9" dy="0.71em">28</text></g><g class="tick" opacity="1" transform="translate(410.1590909090909,0)"><line stroke="currentColor" y2="6"></line><text fill="currentColor" y="9" dy="0.71em">35</text></g><g class="tick" opacity="1" transform="translate(492.0909090909091,0)"><line stroke="currentColor" y2="6"></line><text fill="currentColor" y="9" dy="0.71em">42</text></g><g class="tick" opacity="1" transform="translate(574.0227272727273,0)"><line stroke="currentColor" y2="6"></line><text fill="currentColor" y="9" dy="0.71em">49</text></g><g class="tick" opacity="1" transform="translate(655.9545454545455,0)"><line stroke="currentColor" y2="6"></line><text fill="currentColor" y="9" dy="0.71em">56</text></g><g class="tick" opacity="1" transform="translate(737.8863636363636,0)"><line stroke="currentColor" y2="6"></line><text fill="currentColor" y="9" dy="0.71em">63</text></g><g class="tick" opacity="1" transform="translate(819.8181818181818,0)"><line stroke="currentColor" y2="6"></line><text fill="currentColor" y="9" dy="0.71em">70</text></g><g class="tick" opacity="1" transform="translate(901.75,0)"><line stroke="currentColor" y2="6"></line><text fill="currentColor" y="9" dy="0.71em">77</text></g><g class="tick" opacity="1" transform="translate(983.6818181818182,0)"><line stroke="currentColor" y2="6"></line><text fill="currentColor" y="9" dy="0.71em">84</text></g></g><g transform="translate(0, 500)" class="grid" fill="none" font-size="10" font-family="sans-serif" text-anchor="middle"><path class="domain" stroke="currentColor" d="M0.5,-500V0.5H1030.5V-500"></path><g class="tick" opacity="1" transform="translate(0.5,0)"><line stroke="currentColor" y2="-500"></line><text fill="currentColor" y="3" dy="0.71em"></text></g><g class="tick" opacity="1" transform="translate(0.5,0)"><line stroke="currentColor" y2="-500"></line><text fill="currentColor" y="3" dy="0.71em"></text></g><g class="tick" opacity="1" transform="translate(82.43181818181819,0)"><line stroke="currentColor" y2="-500"></line><text fill="currentColor" y="3" dy="0.71em"></text></g><g class="tick" opacity="1" transform="translate(164.36363636363637,0)"><line stroke="currentColor" y2="-500"></line><text fill="currentColor" y="3" dy="0.71em"></text></g><g class="tick" opacity="1" transform="translate(246.29545454545456,0)"><line stroke="currentColor" y2="-500"></line><text fill="currentColor" y="3" dy="0.71em"></text></g><g class="tick" opacity="1" transform="translate(328.22727272727275,0)"><line stroke="currentColor" y2="-500"></line><text fill="currentColor" y="3" dy="0.71em"></text></g><g class="tick" opacity="1" transform="translate(410.1590909090909,0)"><line stroke="currentColor" y2="-500"></line><text fill="currentColor" y="3" dy="0.71em"></text></g><g class="tick" opacity="1" transform="translate(492.0909090909091,0)"><line stroke="currentColor" y2="-500"></line><text fill="currentColor" y="3" dy="0.71em"></text></g><g class="tick" opacity="1" transform="translate(574.0227272727273,0)"><line stroke="currentColor" y2="-500"></line><text fill="currentColor" y="3" dy="0.71em"></text></g><g class="tick" opacity="1" transform="translate(655.9545454545455,0)"><line stroke="currentColor" y2="-500"></line><text fill="currentColor" y="3" dy="0.71em"></text></g><g class="tick" opacity="1" transform="translate(737.8863636363636,0)"><line stroke="currentColor" y2="-500"></line><text fill="currentColor" y="3" dy="0.71em"></text></g><g class="tick" opacity="1" transform="translate(819.8181818181818,0)"><line stroke="currentColor" y2="-500"></line><text fill="currentColor" y="3" dy="0.71em"></text></g><g class="tick" opacity="1" transform="translate(901.75,0)"><line stroke="currentColor" y2="-500"></line><text fill="currentColor" y="3" dy="0.71em"></text></g><g class="tick" opacity="1" transform="translate(983.6818181818182,0)"><line stroke="currentColor" y2="-500"></line><text fill="currentColor" y="3" dy="0.71em"></text></g></g><g class="axis" fill="none" font-size="10" font-family="sans-serif" text-anchor="end"><path class="domain" stroke="currentColor" d="M-6,500.5H0.5V0.5H-6"></path><g class="tick" opacity="1" transform="translate(0,500.5)"><line stroke="currentColor" x2="-6"></line><text fill="currentColor" x="-9" dy="0.32em">1</text></g><g class="tick" opacity="1" transform="translate(0,394.3329802284929)"><line stroke="currentColor" x2="-6"></line><text fill="currentColor" x="-9" dy="0.32em">5</text></g><g class="tick" opacity="1" transform="translate(0,348.6093335723903)"><line stroke="currentColor" x2="-6"></line><text fill="currentColor" x="-9" dy="0.32em">10</text></g><g class="tick" opacity="1" transform="translate(0,242.44231380088323)"><line stroke="currentColor" x2="-6"></line><text fill="currentColor" x="-9" dy="0.32em">50</text></g><g class="tick" opacity="1" transform="translate(0,196.71866714478065)"><line stroke="currentColor" x2="-6"></line><text fill="currentColor" x="-9" dy="0.32em">100</text></g><g class="tick" opacity="1" transform="translate(0,90.55164737327354)"><line stroke="currentColor" x2="-6"></line><text fill="currentColor" x="-9" dy="0.32em">500</text></g><g class="tick" opacity="1" transform="translate(0,44.828000717170966)"><line stroke="currentColor" x2="-6"></line><text fill="currentColor" x="-9" dy="0.32em">1,000</text></g></g><g class="grid" fill="none" font-size="10" font-family="sans-serif" text-anchor="end"><path class="domain" stroke="currentColor" d="M1030,500.5H0.5V0.5H1030"></path><g class="tick" opacity="1" transform="translate(0,500.5)"><line stroke="currentColor" x2="1030"></line><text fill="currentColor" x="-3" dy="0.32em"></text></g><g class="tick" opacity="1" transform="translate(0,454.7763533438974)"><line stroke="currentColor" x2="1030"></line><text fill="currentColor" x="-3" dy="0.32em"></text></g><g class="tick" opacity="1" transform="translate(0,428.0297346538532)"><line stroke="currentColor" x2="1030"></line><text fill="currentColor" x="-3" dy="0.32em"></text></g><g class="tick" opacity="1" transform="translate(0,409.05270668779485)"><line stroke="currentColor" x2="1030"></line><text fill="currentColor" x="-3" dy="0.32em"></text></g><g class="tick" opacity="1" transform="translate(0,394.3329802284929)"><line stroke="currentColor" x2="1030"></line><text fill="currentColor" x="-3" dy="0.32em"></text></g><g class="tick" opacity="1" transform="translate(0,382.30608799775064)"><line stroke="currentColor" x2="1030"></line><text fill="currentColor" x="-3" dy="0.32em"></text></g><g class="tick" opacity="1" transform="translate(0,372.1374955055678)"><line stroke="currentColor" x2="1030"></line><text fill="currentColor" x="-3" dy="0.32em"></text></g><g class="tick" opacity="1" transform="translate(0,363.32906003169234)"><line stroke="currentColor" x2="1030"></line><text fill="currentColor" x="-3" dy="0.32em"></text></g><g class="tick" opacity="1" transform="translate(0,355.5594693077063)"><line stroke="currentColor" x2="1030"></line><text fill="currentColor" x="-3" dy="0.32em"></text></g><g class="tick" opacity="1" transform="translate(0,348.6093335723903)"><line stroke="currentColor" x2="1030"></line><text fill="currentColor" x="-3" dy="0.32em"></text></g><g class="tick" opacity="1" transform="translate(0,302.88568691628774)"><line stroke="currentColor" x2="1030"></line><text fill="currentColor" x="-3" dy="0.32em"></text></g><g class="tick" opacity="1" transform="translate(0,276.1390682262435)"><line stroke="currentColor" x2="1030"></line><text fill="currentColor" x="-3" dy="0.32em"></text></g><g class="tick" opacity="1" transform="translate(0,257.1620402601852)"><line stroke="currentColor" x2="1030"></line><text fill="currentColor" x="-3" dy="0.32em"></text></g><g class="tick" opacity="1" transform="translate(0,242.44231380088323)"><line stroke="currentColor" x2="1030"></line><text fill="currentColor" x="-3" dy="0.32em"></text></g><g class="tick" opacity="1" transform="translate(0,230.41542157014095)"><line stroke="currentColor" x2="1030"></line><text fill="currentColor" x="-3" dy="0.32em"></text></g><g class="tick" opacity="1" transform="translate(0,220.24682907795807)"><line stroke="currentColor" x2="1030"></line><text fill="currentColor" x="-3" dy="0.32em"></text></g><g class="tick" opacity="1" transform="translate(0,211.43839360408268)"><line stroke="currentColor" x2="1030"></line><text fill="currentColor" x="-3" dy="0.32em"></text></g><g class="tick" opacity="1" transform="translate(0,203.66880288009665)"><line stroke="currentColor" x2="1030"></line><text fill="currentColor" x="-3" dy="0.32em"></text></g><g class="tick" opacity="1" transform="translate(0,196.71866714478065)"><line stroke="currentColor" x2="1030"></line><text fill="currentColor" x="-3" dy="0.32em"></text></g><g class="tick" opacity="1" transform="translate(0,150.99502048867814)"><line stroke="currentColor" x2="1030"></line><text fill="currentColor" x="-3" dy="0.32em"></text></g><g class="tick" opacity="1" transform="translate(0,124.24840179863384)"><line stroke="currentColor" x2="1030"></line><text fill="currentColor" x="-3" dy="0.32em"></text></g><g class="tick" opacity="1" transform="translate(0,105.27137383257556)"><line stroke="currentColor" x2="1030"></line><text fill="currentColor" x="-3" dy="0.32em"></text></g><g class="tick" opacity="1" transform="translate(0,90.55164737327354)"><line stroke="currentColor" x2="1030"></line><text fill="currentColor" x="-3" dy="0.32em"></text></g><g class="tick" opacity="1" transform="translate(0,78.52475514253126)"><line stroke="currentColor" x2="1030"></line><text fill="currentColor" x="-3" dy="0.32em"></text></g><g class="tick" opacity="1" transform="translate(0,68.35616265034844)"><line stroke="currentColor" x2="1030"></line><text fill="currentColor" x="-3" dy="0.32em"></text></g><g class="tick" opacity="1" transform="translate(0,59.547727176472996)"><line stroke="currentColor" x2="1030"></line><text fill="currentColor" x="-3" dy="0.32em"></text></g><g class="tick" opacity="1" transform="translate(0,51.77813645248697)"><line stroke="currentColor" x2="1030"></line><text fill="currentColor" x="-3" dy="0.32em"></text></g><g class="tick" opacity="1" transform="translate(0,44.828000717170966)"><line stroke="currentColor" x2="1030"></line><text fill="currentColor" x="-3" dy="0.32em"></text></g></g><path fill="none" stroke="black" stroke-width="2" stroke-dasharray="12" d="M0,463.1695806826963L11.704545454545455,443.37309772796795L23.40909090909091,423.57661477323967L35.11363636363636,403.7801318185114L46.81818181818182,383.9836488637831L58.52272727272727,364.18716590905484L70.22727272727272,344.39068295432656L81.93181818181819,324.5941999995983L93.63636363636364,304.79771704487L105.3409090909091,285.00123409014174L117.04545454545455,265.2047511354134L128.75,245.40826818068518L140.45454545454544,225.61178522595688L152.1590909090909,205.81530227122857L163.86363636363637,186.01881931650033L175.5681818181818,166.22233636177197L187.27272727272728,146.42585340704372L198.97727272727272,126.62937045231548L210.6818181818182,106.83288749758718L222.38636363636363,87.03640454285888L234.0909090909091,67.23992158813064L245.79545454545456,47.44343863340234L257.5,27.646955678674033L269.20454545454544,7.8504727239457335L280.9090909090909,-11.946010230782566"></path><text class="label-country" x="273.8460878460512" y="5" text-anchor="end" fill="black" style="font-size: 10px;">1.35x daily</text><text x="1025" y="495" class="axis-title" text-anchor="end">Days since 1 death/1m people</text><text transform="rotate(-90)" x="-2" y="15" class="axis-title" text-anchor="end">COVID-19 Deaths/1m people</text><text x="1030" y="532" class="text-credits" text-anchor="end">Data: Johns Hopkins CSSE; Updated: 05/27/2020</text><a href="http://waf.cs.illinois.edu/"><text x="1030" y="542" class="axis-title" text-anchor="end" style="font-size: 8px; fill: rgb(170, 170, 170);">Interactive Visualization: https://91-DIVOC.com/ by @profwade_</text></a><text fill="#1f77b4" class="label-country C-New-York C_highlight" x="590.2272727272727" y="24.58003151609267" alignment-baseline="middle" dominant-baseline="middle" style="opacity: 1; font-size: 15px;">New York</text><text fill="#ff7f0e" class="label-country C-Louisiana C_highlight" x="590.2272727272727" y="92.87530841198094" alignment-baseline="middle" dominant-baseline="middle" style="opacity: 1; font-size: 15px;">Louisiana</text><text fill="#2ca02c" class="label-country C-Michigan C_highlight" x="590.2272727272727" y="94.41244779016317" alignment-baseline="middle" dominant-baseline="middle" style="opacity: 1; font-size: 15px;">Michigan</text><path fill="none" class="C-New-York" stroke="#1f77b4" stroke-width="4" d="M0,463.1695806826963L11.704545454545455,449.23051751539674L23.40909090909091,425.70235558221924L35.11363636363636,381.64880517529366L46.81818181818182,361.8314438287841L58.52272727272727,343.0634977438896L70.22727272727272,322.91891224899354L81.93181818181819,303.07958078461826L93.63636363636364,282.3693057777024L105.3409090909091,261.05589140484744L117.04545454545455,242.46509141688628L128.75,227.10591103212212L140.45454545454544,211.20532625186505L152.1590909090909,196.36654421094178L163.86363636363637,183.11071116264304L175.5681818181818,169.08962794519917L187.27272727272728,156.2622441737358L198.97727272727272,146.09629510371292L210.6818181818182,138.05761948811386L222.38636363636363,127.79281508712364L234.0909090909091,119.038481544065L245.79545454545456,111.12405075574416L257.5,104.04988591810933L269.20454545454544,97.96656632246747L280.9090909090909,92.41124434514431L292.6136363636364,87.84277495195447L304.3181818181818,82.89147769051259L316.02272727272725,78.33709887775004L327.72727272727275,62.22062922460553L339.4318181818182,52.71485590813085L351.1363636363636,50.667610958123724L362.8409090909091,48.36760709184379L374.54545454545456,47.248767400976554L386.25,45.52410959038766L397.95454545454544,44.4656830103759L409.6590909090909,39.36703195841906L421.3636363636364,38.00360139626696L433.0681818181818,36.186478834282056L444.77272727272725,35.41177494156628L456.47727272727275,34.24031989354665L468.1818181818182,33.53405918036406L479.8863636363636,31.927116787723364L491.5909090909091,31.6187624691841L503.29545454545456,30.36662283813002L515,29.93174847889435L526.7045454545455,28.55590455383522L538.4090909090909,27.783533850139985L550.1136363636364,27.45451615847827L561.8181818181818,26.157188835651045L573.5227272727273,24.829351779672994L585.2272727272727,24.58003151609267" style="opacity: 1;"></path><circle cx="0" cy="463.1695806826963" r="4" class="C-New-York" fill="#1f77b4" style="opacity: 1;"></circle><circle cx="11.704545454545455" cy="449.23051751539674" r="4" class="C-New-York" fill="#1f77b4" style="opacity: 1;"></circle><circle cx="23.40909090909091" cy="425.70235558221924" r="4" class="C-New-York" fill="#1f77b4" style="opacity: 1;"></circle><circle cx="35.11363636363636" cy="381.64880517529366" r="4" class="C-New-York" fill="#1f77b4" style="opacity: 1;"></circle><circle cx="46.81818181818182" cy="361.8314438287841" r="4" class="C-New-York" fill="#1f77b4" style="opacity: 1;"></circle><circle cx="58.52272727272727" cy="343.0634977438896" r="4" class="C-New-York" fill="#1f77b4" style="opacity: 1;"></circle><circle cx="70.22727272727272" cy="322.91891224899354" r="4" class="C-New-York" fill="#1f77b4" style="opacity: 1;"></circle><circle cx="81.93181818181819" cy="303.07958078461826" r="4" class="C-New-York" fill="#1f77b4" style="opacity: 1;"></circle><circle cx="93.63636363636364" cy="282.3693057777024" r="4" class="C-New-York" fill="#1f77b4" style="opacity: 1;"></circle><circle cx="105.3409090909091" cy="261.05589140484744" r="4" class="C-New-York" fill="#1f77b4" style="opacity: 1;"></circle><circle cx="117.04545454545455" cy="242.46509141688628" r="4" class="C-New-York" fill="#1f77b4" style="opacity: 1;"></circle><circle cx="128.75" cy="227.10591103212212" r="4" class="C-New-York" fill="#1f77b4" style="opacity: 1;"></circle><circle cx="140.45454545454544" cy="211.20532625186505" r="4" class="C-New-York" fill="#1f77b4" style="opacity: 1;"></circle><circle cx="152.1590909090909" cy="196.36654421094178" r="4" class="C-New-York" fill="#1f77b4" style="opacity: 1;"></circle><circle cx="163.86363636363637" cy="183.11071116264304" r="4" class="C-New-York" fill="#1f77b4" style="opacity: 1;"></circle><circle cx="175.5681818181818" cy="169.08962794519917" r="4" class="C-New-York" fill="#1f77b4" style="opacity: 1;"></circle><circle cx="187.27272727272728" cy="156.2622441737358" r="4" class="C-New-York" fill="#1f77b4" style="opacity: 1;"></circle><circle cx="198.97727272727272" cy="146.09629510371292" r="4" class="C-New-York" fill="#1f77b4" style="opacity: 1;"></circle><circle cx="210.6818181818182" cy="138.05761948811386" r="4" class="C-New-York" fill="#1f77b4" style="opacity: 1;"></circle><circle cx="222.38636363636363" cy="127.79281508712364" r="4" class="C-New-York" fill="#1f77b4" style="opacity: 1;"></circle><circle cx="234.0909090909091" cy="119.038481544065" r="4" class="C-New-York" fill="#1f77b4" style="opacity: 1;"></circle><circle cx="245.79545454545456" cy="111.12405075574416" r="4" class="C-New-York" fill="#1f77b4" style="opacity: 1;"></circle><circle cx="257.5" cy="104.04988591810933" r="4" class="C-New-York" fill="#1f77b4" style="opacity: 1;"></circle><circle cx="269.20454545454544" cy="97.96656632246747" r="4" class="C-New-York" fill="#1f77b4" style="opacity: 1;"></circle><circle cx="280.9090909090909" cy="92.41124434514431" r="4" class="C-New-York" fill="#1f77b4" style="opacity: 1;"></circle><circle cx="292.6136363636364" cy="87.84277495195447" r="4" class="C-New-York" fill="#1f77b4" style="opacity: 1;"></circle><circle cx="304.3181818181818" cy="82.89147769051259" r="4" class="C-New-York" fill="#1f77b4" style="opacity: 1;"></circle><circle cx="316.02272727272725" cy="78.33709887775004" r="4" class="C-New-York" fill="#1f77b4" style="opacity: 1;"></circle><circle cx="327.72727272727275" cy="62.22062922460553" r="4" class="C-New-York" fill="#1f77b4" style="opacity: 1;"></circle><circle cx="339.4318181818182" cy="52.71485590813085" r="4" class="C-New-York" fill="#1f77b4" style="opacity: 1;"></circle><circle cx="351.1363636363636" cy="50.667610958123724" r="4" class="C-New-York" fill="#1f77b4" style="opacity: 1;"></circle><circle cx="362.8409090909091" cy="48.36760709184379" r="4" class="C-New-York" fill="#1f77b4" style="opacity: 1;"></circle><circle cx="374.54545454545456" cy="47.248767400976554" r="4" class="C-New-York" fill="#1f77b4" style="opacity: 1;"></circle><circle cx="386.25" cy="45.52410959038766" r="4" class="C-New-York" fill="#1f77b4" style="opacity: 1;"></circle><circle cx="397.95454545454544" cy="44.4656830103759" r="4" class="C-New-York" fill="#1f77b4" style="opacity: 1;"></circle><circle cx="409.6590909090909" cy="39.36703195841906" r="4" class="C-New-York" fill="#1f77b4" style="opacity: 1;"></circle><circle cx="421.3636363636364" cy="38.00360139626696" r="4" class="C-New-York" fill="#1f77b4" style="opacity: 1;"></circle><circle cx="433.0681818181818" cy="36.186478834282056" r="4" class="C-New-York" fill="#1f77b4" style="opacity: 1;"></circle><circle cx="444.77272727272725" cy="35.41177494156628" r="4" class="C-New-York" fill="#1f77b4" style="opacity: 1;"></circle><circle cx="456.47727272727275" cy="34.24031989354665" r="4" class="C-New-York" fill="#1f77b4" style="opacity: 1;"></circle><circle cx="468.1818181818182" cy="33.53405918036406" r="4" class="C-New-York" fill="#1f77b4" style="opacity: 1;"></circle><circle cx="479.8863636363636" cy="31.927116787723364" r="4" class="C-New-York" fill="#1f77b4" style="opacity: 1;"></circle><circle cx="491.5909090909091" cy="31.6187624691841" r="4" class="C-New-York" fill="#1f77b4" style="opacity: 1;"></circle><circle cx="503.29545454545456" cy="30.36662283813002" r="4" class="C-New-York" fill="#1f77b4" style="opacity: 1;"></circle><circle cx="515" cy="29.93174847889435" r="4" class="C-New-York" fill="#1f77b4" style="opacity: 1;"></circle><circle cx="526.7045454545455" cy="28.55590455383522" r="4" class="C-New-York" fill="#1f77b4" style="opacity: 1;"></circle><circle cx="538.4090909090909" cy="27.783533850139985" r="4" class="C-New-York" fill="#1f77b4" style="opacity: 1;"></circle><circle cx="550.1136363636364" cy="27.45451615847827" r="4" class="C-New-York" fill="#1f77b4" style="opacity: 1;"></circle><circle cx="561.8181818181818" cy="26.157188835651045" r="4" class="C-New-York" fill="#1f77b4" style="opacity: 1;"></circle><circle cx="573.5227272727273" cy="24.829351779672994" r="4" class="C-New-York" fill="#1f77b4" style="opacity: 1;"></circle><circle cx="585.2272727272727" cy="24.58003151609267" r="4" class="C-New-York" fill="#1f77b4" style="opacity: 1;"></circle><path fill="none" class="C-Louisiana" stroke="#ff7f0e" stroke-width="4" d="M0,449.4720967628534L11.704545454545455,427.27661203992835L23.40909090909091,418.4681765660529L35.11363636363636,403.74845010675085L46.81818181818182,366.8332389245238L58.52272727272727,348.8053680286216L70.22727272727272,325.9981452744649L81.93181818181819,309.87271281283535L93.63636363636364,286.1065520227514L105.3409090909091,276.8148522754963L117.04545454545455,270.39650253570505L128.75,257.00053845749363L140.45454545454544,240.1063209854225L152.1590909090909,231.33239520539306L163.86363636363637,222.94817520175698L175.5681818181818,211.2768918013911L187.27272727272728,204.66636941270667L198.97727272727272,194.52082155945936L210.6818181818182,189.84994328554012L222.38636363636363,181.39676843097595L234.0909090909091,173.90482038244355L245.79545454545456,169.030722351429L257.5,164.22948276419797L269.20454545454544,159.91759682877304L280.9090909090909,157.19203361006922L292.6136363636364,153.82416506048742L304.3181818181818,144.8387415135718L316.02272727272725,139.22394094959657L327.72727272727275,136.12805653169897L339.4318181818182,132.95309097685725L351.1363636363636,130.07995537981438L362.8409090909091,128.58711518146555L374.54545454545456,126.97812618842514L386.25,123.26010860307379L397.95454545454544,120.14233659475238L409.6590909090909,114.72808489897407L421.3636363636364,112.2583997291231L433.0681818181818,110.41665961868685L444.77272727272725,109.57192390610903L456.47727272727275,109.15357827732947L468.1818181818182,106.88061578608227L479.8863636363636,105.28839792581113L491.5909090909091,103.17732886392389L503.29545454545456,100.96409257552652L515,100.19840070808384L526.7045454545455,99.57250822861857L538.4090909090909,97.88929891344434L550.1136363636364,96.27915475262755L561.8181818181818,94.67693004161548L573.5227272727273,93.44051605806453L585.2272727272727,92.87530841198094" style="opacity: 1;"></path><circle cx="0" cy="449.4720967628534" r="4" class="C-Louisiana" fill="#ff7f0e" style="opacity: 1;"></circle><circle cx="11.704545454545455" cy="427.27661203992835" r="4" class="C-Louisiana" fill="#ff7f0e" style="opacity: 1;"></circle><circle cx="23.40909090909091" cy="418.4681765660529" r="4" class="C-Louisiana" fill="#ff7f0e" style="opacity: 1;"></circle><circle cx="35.11363636363636" cy="403.74845010675085" r="4" class="C-Louisiana" fill="#ff7f0e" style="opacity: 1;"></circle><circle cx="46.81818181818182" cy="366.8332389245238" r="4" class="C-Louisiana" fill="#ff7f0e" style="opacity: 1;"></circle><circle cx="58.52272727272727" cy="348.8053680286216" r="4" class="C-Louisiana" fill="#ff7f0e" style="opacity: 1;"></circle><circle cx="70.22727272727272" cy="325.9981452744649" r="4" class="C-Louisiana" fill="#ff7f0e" style="opacity: 1;"></circle><circle cx="81.93181818181819" cy="309.87271281283535" r="4" class="C-Louisiana" fill="#ff7f0e" style="opacity: 1;"></circle><circle cx="93.63636363636364" cy="286.1065520227514" r="4" class="C-Louisiana" fill="#ff7f0e" style="opacity: 1;"></circle><circle cx="105.3409090909091" cy="276.8148522754963" r="4" class="C-Louisiana" fill="#ff7f0e" style="opacity: 1;"></circle><circle cx="117.04545454545455" cy="270.39650253570505" r="4" class="C-Louisiana" fill="#ff7f0e" style="opacity: 1;"></circle><circle cx="128.75" cy="257.00053845749363" r="4" class="C-Louisiana" fill="#ff7f0e" style="opacity: 1;"></circle><circle cx="140.45454545454544" cy="240.1063209854225" r="4" class="C-Louisiana" fill="#ff7f0e" style="opacity: 1;"></circle><circle cx="152.1590909090909" cy="231.33239520539306" r="4" class="C-Louisiana" fill="#ff7f0e" style="opacity: 1;"></circle><circle cx="163.86363636363637" cy="222.94817520175698" r="4" class="C-Louisiana" fill="#ff7f0e" style="opacity: 1;"></circle><circle cx="175.5681818181818" cy="211.2768918013911" r="4" class="C-Louisiana" fill="#ff7f0e" style="opacity: 1;"></circle><circle cx="187.27272727272728" cy="204.66636941270667" r="4" class="C-Louisiana" fill="#ff7f0e" style="opacity: 1;"></circle><circle cx="198.97727272727272" cy="194.52082155945936" r="4" class="C-Louisiana" fill="#ff7f0e" style="opacity: 1;"></circle><circle cx="210.6818181818182" cy="189.84994328554012" r="4" class="C-Louisiana" fill="#ff7f0e" style="opacity: 1;"></circle><circle cx="222.38636363636363" cy="181.39676843097595" r="4" class="C-Louisiana" fill="#ff7f0e" style="opacity: 1;"></circle><circle cx="234.0909090909091" cy="173.90482038244355" r="4" class="C-Louisiana" fill="#ff7f0e" style="opacity: 1;"></circle><circle cx="245.79545454545456" cy="169.030722351429" r="4" class="C-Louisiana" fill="#ff7f0e" style="opacity: 1;"></circle><circle cx="257.5" cy="164.22948276419797" r="4" class="C-Louisiana" fill="#ff7f0e" style="opacity: 1;"></circle><circle cx="269.20454545454544" cy="159.91759682877304" r="4" class="C-Louisiana" fill="#ff7f0e" style="opacity: 1;"></circle><circle cx="280.9090909090909" cy="157.19203361006922" r="4" class="C-Louisiana" fill="#ff7f0e" style="opacity: 1;"></circle><circle cx="292.6136363636364" cy="153.82416506048742" r="4" class="C-Louisiana" fill="#ff7f0e" style="opacity: 1;"></circle><circle cx="304.3181818181818" cy="144.8387415135718" r="4" class="C-Louisiana" fill="#ff7f0e" style="opacity: 1;"></circle><circle cx="316.02272727272725" cy="139.22394094959657" r="4" class="C-Louisiana" fill="#ff7f0e" style="opacity: 1;"></circle><circle cx="327.72727272727275" cy="136.12805653169897" r="4" class="C-Louisiana" fill="#ff7f0e" style="opacity: 1;"></circle><circle cx="339.4318181818182" cy="132.95309097685725" r="4" class="C-Louisiana" fill="#ff7f0e" style="opacity: 1;"></circle><circle cx="351.1363636363636" cy="130.07995537981438" r="4" class="C-Louisiana" fill="#ff7f0e" style="opacity: 1;"></circle><circle cx="362.8409090909091" cy="128.58711518146555" r="4" class="C-Louisiana" fill="#ff7f0e" style="opacity: 1;"></circle><circle cx="374.54545454545456" cy="126.97812618842514" r="4" class="C-Louisiana" fill="#ff7f0e" style="opacity: 1;"></circle><circle cx="386.25" cy="123.26010860307379" r="4" class="C-Louisiana" fill="#ff7f0e" style="opacity: 1;"></circle><circle cx="397.95454545454544" cy="120.14233659475238" r="4" class="C-Louisiana" fill="#ff7f0e" style="opacity: 1;"></circle><circle cx="409.6590909090909" cy="114.72808489897407" r="4" class="C-Louisiana" fill="#ff7f0e" style="opacity: 1;"></circle><circle cx="421.3636363636364" cy="112.2583997291231" r="4" class="C-Louisiana" fill="#ff7f0e" style="opacity: 1;"></circle><circle cx="433.0681818181818" cy="110.41665961868685" r="4" class="C-Louisiana" fill="#ff7f0e" style="opacity: 1;"></circle><circle cx="444.77272727272725" cy="109.57192390610903" r="4" class="C-Louisiana" fill="#ff7f0e" style="opacity: 1;"></circle><circle cx="456.47727272727275" cy="109.15357827732947" r="4" class="C-Louisiana" fill="#ff7f0e" style="opacity: 1;"></circle><circle cx="468.1818181818182" cy="106.88061578608227" r="4" class="C-Louisiana" fill="#ff7f0e" style="opacity: 1;"></circle><circle cx="479.8863636363636" cy="105.28839792581113" r="4" class="C-Louisiana" fill="#ff7f0e" style="opacity: 1;"></circle><circle cx="491.5909090909091" cy="103.17732886392389" r="4" class="C-Louisiana" fill="#ff7f0e" style="opacity: 1;"></circle><circle cx="503.29545454545456" cy="100.96409257552652" r="4" class="C-Louisiana" fill="#ff7f0e" style="opacity: 1;"></circle><circle cx="515" cy="100.19840070808384" r="4" class="C-Louisiana" fill="#ff7f0e" style="opacity: 1;"></circle><circle cx="526.7045454545455" cy="99.57250822861857" r="4" class="C-Louisiana" fill="#ff7f0e" style="opacity: 1;"></circle><circle cx="538.4090909090909" cy="97.88929891344434" r="4" class="C-Louisiana" fill="#ff7f0e" style="opacity: 1;"></circle><circle cx="550.1136363636364" cy="96.27915475262755" r="4" class="C-Louisiana" fill="#ff7f0e" style="opacity: 1;"></circle><circle cx="561.8181818181818" cy="94.67693004161548" r="4" class="C-Louisiana" fill="#ff7f0e" style="opacity: 1;"></circle><circle cx="573.5227272727273" cy="93.44051605806453" r="4" class="C-Louisiana" fill="#ff7f0e" style="opacity: 1;"></circle><circle cx="585.2272727272727" cy="92.87530841198094" r="4" class="C-Louisiana" fill="#ff7f0e" style="opacity: 1;"></circle><path fill="none" class="C-Michigan" stroke="#2ca02c" stroke-width="4" d="M0,473.1666261210407L11.704545454545455,442.1627059242401L23.40909090909091,403.6952989322329L35.11363636363636,380.6289728058148L46.81818181818182,353.5228694207505L58.52272727272727,341.13844093108537L70.22727272727272,329.7085236188219L81.93181818181819,307.799222764648L93.63636363636364,285.24620178280003L105.3409090909091,268.2731727382931L117.04545454545455,253.8296997177224L128.75,244.6859638565672L140.45454545454544,236.77880211654184L152.1590909090909,227.98563815061334L163.86363636363637,217.16354256777788L175.5681818181818,207.2416951782054L187.27272727272728,198.8934958292956L198.97727272727272,191.29992486291968L210.6818181818182,180.0541824816942L222.38636363636363,174.6946571704393L234.0909090909091,170.3153327359937L245.79545454545456,165.0455866536801L257.5,158.54166645261637L269.20454545454544,153.06675155655884L280.9090909090909,150.5403279630555L292.6136363636364,143.3164564602124L304.3181818181818,140.95978354246836L316.02272727272725,138.62920784375854L327.72727272727275,136.53834483840822L339.4318181818182,133.73868422491142L351.1363636363636,127.90722199818222L362.8409090909091,124.16932902207822L374.54545454545456,121.81861837910624L386.25,120.33856607472299L397.95454545454544,117.07532130327009L409.6590909090909,115.2695538007522L421.3636363636364,112.22373399070257L433.0681818181818,110.36440714756024L444.77272727272725,108.25942411587702L456.47727272727275,106.93231823855581L468.1818181818182,104.3392068473526L479.8863636363636,103.81631857443058L491.5909090909091,102.43125452370971L503.29545454545456,101.73370602804161L515,100.59243681831876L526.7045454545455,99.22721897847514L538.4090909090909,98.41244992235676L550.1136363636364,96.47671881018005L561.8181818181818,96.11367288400102L573.5227272727273,95.69502762936821L585.2272727272727,94.41244779016317" style="opacity: 1;"></path><circle cx="0" cy="473.1666261210407" r="4" class="C-Michigan" fill="#2ca02c" style="opacity: 1;"></circle><circle cx="11.704545454545455" cy="442.1627059242401" r="4" class="C-Michigan" fill="#2ca02c" style="opacity: 1;"></circle><circle cx="23.40909090909091" cy="403.6952989322329" r="4" class="C-Michigan" fill="#2ca02c" style="opacity: 1;"></circle><circle cx="35.11363636363636" cy="380.6289728058148" r="4" class="C-Michigan" fill="#2ca02c" style="opacity: 1;"></circle><circle cx="46.81818181818182" cy="353.5228694207505" r="4" class="C-Michigan" fill="#2ca02c" style="opacity: 1;"></circle><circle cx="58.52272727272727" cy="341.13844093108537" r="4" class="C-Michigan" fill="#2ca02c" style="opacity: 1;"></circle><circle cx="70.22727272727272" cy="329.7085236188219" r="4" class="C-Michigan" fill="#2ca02c" style="opacity: 1;"></circle><circle cx="81.93181818181819" cy="307.799222764648" r="4" class="C-Michigan" fill="#2ca02c" style="opacity: 1;"></circle><circle cx="93.63636363636364" cy="285.24620178280003" r="4" class="C-Michigan" fill="#2ca02c" style="opacity: 1;"></circle><circle cx="105.3409090909091" cy="268.2731727382931" r="4" class="C-Michigan" fill="#2ca02c" style="opacity: 1;"></circle><circle cx="117.04545454545455" cy="253.8296997177224" r="4" class="C-Michigan" fill="#2ca02c" style="opacity: 1;"></circle><circle cx="128.75" cy="244.6859638565672" r="4" class="C-Michigan" fill="#2ca02c" style="opacity: 1;"></circle><circle cx="140.45454545454544" cy="236.77880211654184" r="4" class="C-Michigan" fill="#2ca02c" style="opacity: 1;"></circle><circle cx="152.1590909090909" cy="227.98563815061334" r="4" class="C-Michigan" fill="#2ca02c" style="opacity: 1;"></circle><circle cx="163.86363636363637" cy="217.16354256777788" r="4" class="C-Michigan" fill="#2ca02c" style="opacity: 1;"></circle><circle cx="175.5681818181818" cy="207.2416951782054" r="4" class="C-Michigan" fill="#2ca02c" style="opacity: 1;"></circle><circle cx="187.27272727272728" cy="198.8934958292956" r="4" class="C-Michigan" fill="#2ca02c" style="opacity: 1;"></circle><circle cx="198.97727272727272" cy="191.29992486291968" r="4" class="C-Michigan" fill="#2ca02c" style="opacity: 1;"></circle><circle cx="210.6818181818182" cy="180.0541824816942" r="4" class="C-Michigan" fill="#2ca02c" style="opacity: 1;"></circle><circle cx="222.38636363636363" cy="174.6946571704393" r="4" class="C-Michigan" fill="#2ca02c" style="opacity: 1;"></circle><circle cx="234.0909090909091" cy="170.3153327359937" r="4" class="C-Michigan" fill="#2ca02c" style="opacity: 1;"></circle><circle cx="245.79545454545456" cy="165.0455866536801" r="4" class="C-Michigan" fill="#2ca02c" style="opacity: 1;"></circle><circle cx="257.5" cy="158.54166645261637" r="4" class="C-Michigan" fill="#2ca02c" style="opacity: 1;"></circle><circle cx="269.20454545454544" cy="153.06675155655884" r="4" class="C-Michigan" fill="#2ca02c" style="opacity: 1;"></circle><circle cx="280.9090909090909" cy="150.5403279630555" r="4" class="C-Michigan" fill="#2ca02c" style="opacity: 1;"></circle><circle cx="292.6136363636364" cy="143.3164564602124" r="4" class="C-Michigan" fill="#2ca02c" style="opacity: 1;"></circle><circle cx="304.3181818181818" cy="140.95978354246836" r="4" class="C-Michigan" fill="#2ca02c" style="opacity: 1;"></circle><circle cx="316.02272727272725" cy="138.62920784375854" r="4" class="C-Michigan" fill="#2ca02c" style="opacity: 1;"></circle><circle cx="327.72727272727275" cy="136.53834483840822" r="4" class="C-Michigan" fill="#2ca02c" style="opacity: 1;"></circle><circle cx="339.4318181818182" cy="133.73868422491142" r="4" class="C-Michigan" fill="#2ca02c" style="opacity: 1;"></circle><circle cx="351.1363636363636" cy="127.90722199818222" r="4" class="C-Michigan" fill="#2ca02c" style="opacity: 1;"></circle><circle cx="362.8409090909091" cy="124.16932902207822" r="4" class="C-Michigan" fill="#2ca02c" style="opacity: 1;"></circle><circle cx="374.54545454545456" cy="121.81861837910624" r="4" class="C-Michigan" fill="#2ca02c" style="opacity: 1;"></circle><circle cx="386.25" cy="120.33856607472299" r="4" class="C-Michigan" fill="#2ca02c" style="opacity: 1;"></circle><circle cx="397.95454545454544" cy="117.07532130327009" r="4" class="C-Michigan" fill="#2ca02c" style="opacity: 1;"></circle><circle cx="409.6590909090909" cy="115.2695538007522" r="4" class="C-Michigan" fill="#2ca02c" style="opacity: 1;"></circle><circle cx="421.3636363636364" cy="112.22373399070257" r="4" class="C-Michigan" fill="#2ca02c" style="opacity: 1;"></circle><circle cx="433.0681818181818" cy="110.36440714756024" r="4" class="C-Michigan" fill="#2ca02c" style="opacity: 1;"></circle><circle cx="444.77272727272725" cy="108.25942411587702" r="4" class="C-Michigan" fill="#2ca02c" style="opacity: 1;"></circle><circle cx="456.47727272727275" cy="106.93231823855581" r="4" class="C-Michigan" fill="#2ca02c" style="opacity: 1;"></circle><circle cx="468.1818181818182" cy="104.3392068473526" r="4" class="C-Michigan" fill="#2ca02c" style="opacity: 1;"></circle><circle cx="479.8863636363636" cy="103.81631857443058" r="4" class="C-Michigan" fill="#2ca02c" style="opacity: 1;"></circle><circle cx="491.5909090909091" cy="102.43125452370971" r="4" class="C-Michigan" fill="#2ca02c" style="opacity: 1;"></circle><circle cx="503.29545454545456" cy="101.73370602804161" r="4" class="C-Michigan" fill="#2ca02c" style="opacity: 1;"></circle><circle cx="515" cy="100.59243681831876" r="4" class="C-Michigan" fill="#2ca02c" style="opacity: 1;"></circle><circle cx="526.7045454545455" cy="99.22721897847514" r="4" class="C-Michigan" fill="#2ca02c" style="opacity: 1;"></circle><circle cx="538.4090909090909" cy="98.41244992235676" r="4" class="C-Michigan" fill="#2ca02c" style="opacity: 1;"></circle><circle cx="550.1136363636364" cy="96.47671881018005" r="4" class="C-Michigan" fill="#2ca02c" style="opacity: 1;"></circle><circle cx="561.8181818181818" cy="96.11367288400102" r="4" class="C-Michigan" fill="#2ca02c" style="opacity: 1;"></circle><circle cx="573.5227272727273" cy="95.69502762936821" r="4" class="C-Michigan" fill="#2ca02c" style="opacity: 1;"></circle><circle cx="585.2272727272727" cy="94.41244779016317" r="4" class="C-Michigan" fill="#2ca02c" style="opacity: 1;"></circle></g></svg>