<svg version="1.1" xmlns="http://www.w3.org/2000/svg" width="1110" height="555" style="width: 1110px; height: 555px;"><style>svg {
  background-color:hsla(270, 30%, 99%, 1);  
}

.lesser-used-options .input-group-text {
  background-color: hsla(295, 100%, 95%, 1);
}

.input-group-prepend .input-group-text  {
  border-top-right-radius: 0px;
  border-bottom-right-radius: 0px;
}

.form-control {
  border-top-left-radius: 0px !important;
  border-bottom-left-radius: 0px !important;

}

.svg-hover-highlight {
  opacity: 1 !important;
}

path.svg-hover-highlight {
  stroke-width: 2px;
}

circle.svg-hover-highlight {
  stroke: black;
  stroke-width: 0.5px;
  /* display: inline !important; */
}

text.C_highlight {
  stroke: black;
  stroke-width: 0.3px;
}

text.svg-hover-highlight {
  font-size: 15px;
  stroke: black;
  stroke-width: 0.3px;
}

.chart-viz {
  background-color:hsla(270, 30%, 99%, 1);
  border-left: solid 1px #ccc;
  border-right: solid 1px #ccc;
  border-top: solid 1px #ccc;
}

.chart-header, .chart-header h2  {
  text-align: left;
  font-family: 'Roboto', sans-serif;
  font-size: 1.3em;
  font-weight: bold;
  padding: 0px;  
  border-bottom-width: 0px;
}

.chart-footer {
  background-color:hsla(270, 30%, 99%, 1);
  border: solid 1px #ccc;
  padding: 5px;
}

.axis text {
  font-weight: bold;
  font-family: 'Montserrat', sans-serif;
}

.axis-title {
  font-size: 14px;
  font-weight: bold;
  font-family: 'Montserrat', sans-serif;
}

.grid {
  stroke-opacity: 0.15;
  color:hsla(270, 30%, 50%, 1);
}

.tip-country {
  font-weight: bold;
  border-bottom: solid 1px black;      
}

.tip-details {
  font-size: 12px;
}

.text-credits {
  opacity: 0.3;
  font-weight: bold;
  font-size: 12px;
  font-family: 'Montserrat', sans-serif;
}

.label-country {
  font-size: 10px;
  font-weight: bold;
  font-family: 'Montserrat', sans-serif;
}

i {
  color: #aaa;
}

.data-scale-float { float: right; text-align: right; }
.data-scale-float > div { padding-bottom: 3px; }


/* == https://rawgit.com/Caged/d3-tip/master/examples/example-styles.css ==  */
.d3-tip {
  line-height: 1;
  padding: 4px;
  background: rgba(255, 255, 255, 0.9);
  color: #000;
  border-radius: 2px;
  pointer-events: none;
  border: solid 1px black;

  margin-bottom: 200px;
  
  width: 200px;
  text-align: center;
}

/* Creates a small triangle extender for the tooltip */
.d3-tip:after {
  box-sizing: border-box;
  display: inline;
  font-size: 10px;
  width: 100%;
  line-height: 1;
  color: rgba(0, 0, 0, 0.8);
  position: absolute;
  pointer-events: none;
}

.d3-tip.n:after {
  content: "\25BC";
  margin: -1px 0 0 0;
  top: 100%;
  left: 0;
  text-align: center;
}

/* Eastward tooltips */
.d3-tip.e:after {
  content: "\25C0";
  margin: -4px 0 0 0;
  top: 50%;
  left: -8px;
}

/* Southward tooltips */
.d3-tip.s:after {
  content: "\25B2";
  margin: 0 0 1px 0;
  top: -8px;
  left: 0;
  text-align: center;
}

/* Westward tooltips */
.d3-tip.w:after {
  content: "\25B6";
  margin: -4px 0 0 -1px;
  top: 50%;
  left: 100%;
}

.query-string {
  display: none;
  border-top: dashed 1px #aaa;
}


@media (min-width: 501px) {
  .divoc-graph-loading { height: 555px; }
  .divoc-graph-loading > .spinner-border { margin-top: 250px; }
}

@media (max-width: 500px) {
  .divoc-graph-loading { height: 355px; }
  .divoc-graph-loading > .spinner-border { margin-top: 150px; }
}




</style><g transform="translate(60,10)"><g transform="translate(0, 500)" class="axis" fill="none" font-size="10" font-family="sans-serif" text-anchor="middle"><path class="domain" stroke="currentColor" d="M0.5,6V0.5H1030.5V6"></path><g class="tick" opacity="1" transform="translate(0.5,0)"><line stroke="currentColor" y2="6"></line><text fill="currentColor" y="9" dy="0.71em">0</text></g><g class="tick" opacity="1" transform="translate(0.5,0)"><line stroke="currentColor" y2="6"></line><text fill="currentColor" y="9" dy="0.71em">0</text></g><g class="tick" opacity="1" transform="translate(76.39473684210526,0)"><line stroke="currentColor" y2="6"></line><text fill="currentColor" y="9" dy="0.71em">7</text></g><g class="tick" opacity="1" transform="translate(152.28947368421052,0)"><line stroke="currentColor" y2="6"></line><text fill="currentColor" y="9" dy="0.71em">14</text></g><g class="tick" opacity="1" transform="translate(228.18421052631578,0)"><line stroke="currentColor" y2="6"></line><text fill="currentColor" y="9" dy="0.71em">21</text></g><g class="tick" opacity="1" transform="translate(304.07894736842104,0)"><line stroke="currentColor" y2="6"></line><text fill="currentColor" y="9" dy="0.71em">28</text></g><g class="tick" opacity="1" transform="translate(379.9736842105263,0)"><line stroke="currentColor" y2="6"></line><text fill="currentColor" y="9" dy="0.71em">35</text></g><g class="tick" opacity="1" transform="translate(455.86842105263156,0)"><line stroke="currentColor" y2="6"></line><text fill="currentColor" y="9" dy="0.71em">42</text></g><g class="tick" opacity="1" transform="translate(531.7631578947369,0)"><line stroke="currentColor" y2="6"></line><text fill="currentColor" y="9" dy="0.71em">49</text></g><g class="tick" opacity="1" transform="translate(607.6578947368421,0)"><line stroke="currentColor" y2="6"></line><text fill="currentColor" y="9" dy="0.71em">56</text></g><g class="tick" opacity="1" transform="translate(683.5526315789473,0)"><line stroke="currentColor" y2="6"></line><text fill="currentColor" y="9" dy="0.71em">63</text></g><g class="tick" opacity="1" transform="translate(759.4473684210526,0)"><line stroke="currentColor" y2="6"></line><text fill="currentColor" y="9" dy="0.71em">70</text></g><g class="tick" opacity="1" transform="translate(835.3421052631578,0)"><line stroke="currentColor" y2="6"></line><text fill="currentColor" y="9" dy="0.71em">77</text></g><g class="tick" opacity="1" transform="translate(911.2368421052631,0)"><line stroke="currentColor" y2="6"></line><text fill="currentColor" y="9" dy="0.71em">84</text></g><g class="tick" opacity="1" transform="translate(987.1315789473684,0)"><line stroke="currentColor" y2="6"></line><text fill="currentColor" y="9" dy="0.71em">91</text></g></g><g transform="translate(0, 500)" class="grid" fill="none" font-size="10" font-family="sans-serif" text-anchor="middle"><path class="domain" stroke="currentColor" d="M0.5,-500V0.5H1030.5V-500"></path><g class="tick" opacity="1" transform="translate(0.5,0)"><line stroke="currentColor" y2="-500"></line><text fill="currentColor" y="3" dy="0.71em"></text></g><g class="tick" opacity="1" transform="translate(0.5,0)"><line stroke="currentColor" y2="-500"></line><text fill="currentColor" y="3" dy="0.71em"></text></g><g class="tick" opacity="1" transform="translate(76.39473684210526,0)"><line stroke="currentColor" y2="-500"></line><text fill="currentColor" y="3" dy="0.71em"></text></g><g class="tick" opacity="1" transform="translate(152.28947368421052,0)"><line stroke="currentColor" y2="-500"></line><text fill="currentColor" y="3" dy="0.71em"></text></g><g class="tick" opacity="1" transform="translate(228.18421052631578,0)"><line stroke="currentColor" y2="-500"></line><text fill="currentColor" y="3" dy="0.71em"></text></g><g class="tick" opacity="1" transform="translate(304.07894736842104,0)"><line stroke="currentColor" y2="-500"></line><text fill="currentColor" y="3" dy="0.71em"></text></g><g class="tick" opacity="1" transform="translate(379.9736842105263,0)"><line stroke="currentColor" y2="-500"></line><text fill="currentColor" y="3" dy="0.71em"></text></g><g class="tick" opacity="1" transform="translate(455.86842105263156,0)"><line stroke="currentColor" y2="-500"></line><text fill="currentColor" y="3" dy="0.71em"></text></g><g class="tick" opacity="1" transform="translate(531.7631578947369,0)"><line stroke="currentColor" y2="-500"></line><text fill="currentColor" y="3" dy="0.71em"></text></g><g class="tick" opacity="1" transform="translate(607.6578947368421,0)"><line stroke="currentColor" y2="-500"></line><text fill="currentColor" y="3" dy="0.71em"></text></g><g class="tick" opacity="1" transform="translate(683.5526315789473,0)"><line stroke="currentColor" y2="-500"></line><text fill="currentColor" y="3" dy="0.71em"></text></g><g class="tick" opacity="1" transform="translate(759.4473684210526,0)"><line stroke="currentColor" y2="-500"></line><text fill="currentColor" y="3" dy="0.71em"></text></g><g class="tick" opacity="1" transform="translate(835.3421052631578,0)"><line stroke="currentColor" y2="-500"></line><text fill="currentColor" y="3" dy="0.71em"></text></g><g class="tick" opacity="1" transform="translate(911.2368421052631,0)"><line stroke="currentColor" y2="-500"></line><text fill="currentColor" y="3" dy="0.71em"></text></g><g class="tick" opacity="1" transform="translate(987.1315789473684,0)"><line stroke="currentColor" y2="-500"></line><text fill="currentColor" y="3" dy="0.71em"></text></g></g><g class="axis" fill="none" font-size="10" font-family="sans-serif" text-anchor="end"><path class="domain" stroke="currentColor" d="M-6,500.5H0.5V0.5H-6"></path><g class="tick" opacity="1" transform="translate(0,500.5)"><line stroke="currentColor" x2="-6"></line><text fill="currentColor" x="-9" dy="0.32em">1</text></g><g class="tick" opacity="1" transform="translate(0,379.97075917442805)"><line stroke="currentColor" x2="-6"></line><text fill="currentColor" x="-9" dy="0.32em">5</text></g><g class="tick" opacity="1" transform="translate(0,328.0616405884717)"><line stroke="currentColor" x2="-6"></line><text fill="currentColor" x="-9" dy="0.32em">10</text></g><g class="tick" opacity="1" transform="translate(0,207.5323997628998)"><line stroke="currentColor" x2="-6"></line><text fill="currentColor" x="-9" dy="0.32em">50</text></g><g class="tick" opacity="1" transform="translate(0,155.62328117694335)"><line stroke="currentColor" x2="-6"></line><text fill="currentColor" x="-9" dy="0.32em">100</text></g><g class="tick" opacity="1" transform="translate(0,35.09404035137148)"><line stroke="currentColor" x2="-6"></line><text fill="currentColor" x="-9" dy="0.32em">500</text></g></g><g class="grid" fill="none" font-size="10" font-family="sans-serif" text-anchor="end"><path class="domain" stroke="currentColor" d="M1030,500.5H0.5V0.5H1030"></path><g class="tick" opacity="1" transform="translate(0,500.5)"><line stroke="currentColor" x2="1030"></line><text fill="currentColor" x="-3" dy="0.32em"></text></g><g class="tick" opacity="1" transform="translate(0,448.5908814140436)"><line stroke="currentColor" x2="1030"></line><text fill="currentColor" x="-3" dy="0.32em"></text></g><g class="tick" opacity="1" transform="translate(0,418.2259935957715)"><line stroke="currentColor" x2="1030"></line><text fill="currentColor" x="-3" dy="0.32em"></text></g><g class="tick" opacity="1" transform="translate(0,396.6817628280872)"><line stroke="currentColor" x2="1030"></line><text fill="currentColor" x="-3" dy="0.32em"></text></g><g class="tick" opacity="1" transform="translate(0,379.97075917442805)"><line stroke="currentColor" x2="1030"></line><text fill="currentColor" x="-3" dy="0.32em"></text></g><g class="tick" opacity="1" transform="translate(0,366.3168750098151)"><line stroke="currentColor" x2="1030"></line><text fill="currentColor" x="-3" dy="0.32em"></text></g><g class="tick" opacity="1" transform="translate(0,354.77268043804344)"><line stroke="currentColor" x2="1030"></line><text fill="currentColor" x="-3" dy="0.32em"></text></g><g class="tick" opacity="1" transform="translate(0,344.77264424213075)"><line stroke="currentColor" x2="1030"></line><text fill="currentColor" x="-3" dy="0.32em"></text></g><g class="tick" opacity="1" transform="translate(0,335.951987191543)"><line stroke="currentColor" x2="1030"></line><text fill="currentColor" x="-3" dy="0.32em"></text></g><g class="tick" opacity="1" transform="translate(0,328.0616405884717)"><line stroke="currentColor" x2="1030"></line><text fill="currentColor" x="-3" dy="0.32em"></text></g><g class="tick" opacity="1" transform="translate(0,276.1525220025153)"><line stroke="currentColor" x2="1030"></line><text fill="currentColor" x="-3" dy="0.32em"></text></g><g class="tick" opacity="1" transform="translate(0,245.78763418424316)"><line stroke="currentColor" x2="1030"></line><text fill="currentColor" x="-3" dy="0.32em"></text></g><g class="tick" opacity="1" transform="translate(0,224.24340341655892)"><line stroke="currentColor" x2="1030"></line><text fill="currentColor" x="-3" dy="0.32em"></text></g><g class="tick" opacity="1" transform="translate(0,207.5323997628998)"><line stroke="currentColor" x2="1030"></line><text fill="currentColor" x="-3" dy="0.32em"></text></g><g class="tick" opacity="1" transform="translate(0,193.87851559828678)"><line stroke="currentColor" x2="1030"></line><text fill="currentColor" x="-3" dy="0.32em"></text></g><g class="tick" opacity="1" transform="translate(0,182.33432102651508)"><line stroke="currentColor" x2="1030"></line><text fill="currentColor" x="-3" dy="0.32em"></text></g><g class="tick" opacity="1" transform="translate(0,172.33428483060248)"><line stroke="currentColor" x2="1030"></line><text fill="currentColor" x="-3" dy="0.32em"></text></g><g class="tick" opacity="1" transform="translate(0,163.51362778001464)"><line stroke="currentColor" x2="1030"></line><text fill="currentColor" x="-3" dy="0.32em"></text></g><g class="tick" opacity="1" transform="translate(0,155.62328117694335)"><line stroke="currentColor" x2="1030"></line><text fill="currentColor" x="-3" dy="0.32em"></text></g><g class="tick" opacity="1" transform="translate(0,103.71416259098697)"><line stroke="currentColor" x2="1030"></line><text fill="currentColor" x="-3" dy="0.32em"></text></g><g class="tick" opacity="1" transform="translate(0,73.34927477271485)"><line stroke="currentColor" x2="1030"></line><text fill="currentColor" x="-3" dy="0.32em"></text></g><g class="tick" opacity="1" transform="translate(0,51.80504400503055)"><line stroke="currentColor" x2="1030"></line><text fill="currentColor" x="-3" dy="0.32em"></text></g><g class="tick" opacity="1" transform="translate(0,35.09404035137148)"><line stroke="currentColor" x2="1030"></line><text fill="currentColor" x="-3" dy="0.32em"></text></g><g class="tick" opacity="1" transform="translate(0,21.44015618675843)"><line stroke="currentColor" x2="1030"></line><text fill="currentColor" x="-3" dy="0.32em"></text></g><g class="tick" opacity="1" transform="translate(0,9.895961614986792)"><line stroke="currentColor" x2="1030"></line><text fill="currentColor" x="-3" dy="0.32em"></text></g></g><path fill="none" stroke="black" stroke-width="2" stroke-dasharray="12" d="M0,489.76247232544L10.842105263157894,467.28793111023924L21.684210526315788,444.8133898950384L32.526315789473685,422.3388486798376L43.368421052631575,399.86430746463685L54.21052631578947,377.38976624943604L65.05263157894737,354.9152250342352L75.89473684210526,332.44068381903446L86.73684210526315,309.96614260383365L97.57894736842105,287.49160138863283L108.42105263157895,265.01706017343207L119.26315789473684,242.54251895823126L130.10526315789474,220.06797774303044L140.94736842105263,197.59343652782962L151.78947368421052,175.11889531262887L162.6315789473684,152.6443540974281L173.4736842105263,130.1698128822273L184.31578947368422,107.69527166702647L195.1578947368421,85.22073045182572L206,62.746189236624836L216.8421052631579,40.27164802142408L227.68421052631578,17.79710680622332L238.52631578947367,-4.677434408977499"></path><text class="label-country" x="236.26984097479087" y="5" text-anchor="end" fill="black" style="font-size: 10px;">1.35x daily</text><text x="1025" y="495" class="axis-title" text-anchor="end">Days since 1 death/1m people</text><text transform="rotate(-90)" x="-2" y="15" class="axis-title" text-anchor="end">COVID-19 Deaths/1m people</text><text x="1030" y="532" class="text-credits" text-anchor="end">Data: Johns Hopkins CSSE; Updated: 05/27/2020</text><a href="http://waf.cs.illinois.edu/"><text x="1030" y="542" class="axis-title" text-anchor="end" style="font-size: 8px; fill: rgb(170, 170, 170);">Interactive Visualization: https://91-DIVOC.com/ by @profwade_</text></a><text fill="#1f77b4" class="label-country C-Spain C_highlight" x="829" y="24.03269465573965" alignment-baseline="middle" dominant-baseline="middle" style="opacity: 1; font-size: 15px;">Spain</text><text fill="#ff7f0e" class="label-country C-Portugal C_highlight" x="720.5789473684212" y="135.1372709951228" alignment-baseline="middle" dominant-baseline="middle" style="opacity: 1; font-size: 15px;">Portugal</text><path fill="none" class="C-Spain" stroke="#1f77b4" stroke-width="4" d="M0,489.76247232544L10.842105263157894,488.38832316665946L21.684210526315788,422.2601175222354L32.526315789473685,393.60379874511256L43.368421052631575,364.14042343977366L54.21052631578947,351.5303056897786L65.05263157894737,318.30124363676435L75.89473684210526,306.6166759630483L86.73684210526315,285.13257288061806L97.57894736842105,268.02561574145165L108.42105263157895,247.32984151551562L119.26315789473684,229.01312627844644L130.10526315789474,208.44546613707593L140.94736842105263,193.8576710043582L151.78947368421052,174.27925076900368L162.6315789473684,160.82069810798484L173.4736842105263,148.6103634181174L184.31578947368422,137.22041165934195L195.1578947368421,127.58902879584977L206,118.15807349543606L216.8421052631579,111.22890776448763L227.68421052631578,103.47760293299457L238.52631578947367,96.17835577876555L249.3684210526316,90.26647163011408L260.2105263157895,85.41778077275785L271.05263157894734,81.18914944121686L281.89473684210526,77.15289289455568L292.7368421052632,73.30176504481723L303.57894736842104,69.42101310495907L314.42105263157896,66.17619766295152L325.2631578947368,63.163888276946686L336.10526315789474,60.75803145046122L346.9473684210526,58.08685762781124L357.7894736842106,55.74350623795682L368.63157894736844,54.48877408405867L379.4736842105263,51.83222059130521L390.3157894736842,49.440957293342194L401.1578947368421,46.823565363636355L412,46.67021532146987L422.8421052631579,45.1537420576274L433.6842105263158,43.706863877023714L444.5263157894737,42.17824565513711L455.36842105263156,40.662962110221024L466.2105263157895,39.160829774000646L477.05263157894734,37.930557784863815L487.89473684210526,36.68419200435879L498.7368421052632,35.748310691031016L509.57894736842104,34.68694685096152L520.421052631579,33.734666634176676L531.2631578947369,32.32394526503274L542.1052631578947,31.501688674399897L552.9473684210526,31.501688674399897L563.7894736842105,29.82109164587832L574.6315789473683,29.33336851047663L585.4736842105264,28.848801184834073L596.3157894736843,28.305922681544192L607.1578947368421,27.59587567513272L618,26.981495779480337L628.8421052631579,26.32653972864801L639.6842105263158,25.818546193366878L650.5263157894736,25.41518052212871L661.3684210526316,25.069959244102268L672.2105263157895,24.57873547477035L683.0526315789473,24.06860536864225L693.8947368421052,23.471416386247334L704.7368421052631,23.09409956548436L715.5789473684212,22.810995782155118L726.421052631579,22.810995782155118L737.2631578947369,22.4153588045779L748.1052631578948,22.229104525454623L758.9473684210526,21.933131982135645L769.7894736842105,21.79362382923278L780.6315789473684,19.971880371065176L791.4736842105262,19.841197638079954L802.3157894736842,19.64820473764073L813.1578947368421,24.818362735985588L824,24.03269465573965" style="opacity: 1;"></path><circle cx="0" cy="489.76247232544" r="4" class="C-Spain" fill="#1f77b4" style="opacity: 1;"></circle><circle cx="10.842105263157894" cy="488.38832316665946" r="4" class="C-Spain" fill="#1f77b4" style="opacity: 1;"></circle><circle cx="21.684210526315788" cy="422.2601175222354" r="4" class="C-Spain" fill="#1f77b4" style="opacity: 1;"></circle><circle cx="32.526315789473685" cy="393.60379874511256" r="4" class="C-Spain" fill="#1f77b4" style="opacity: 1;"></circle><circle cx="43.368421052631575" cy="364.14042343977366" r="4" class="C-Spain" fill="#1f77b4" style="opacity: 1;"></circle><circle cx="54.21052631578947" cy="351.5303056897786" r="4" class="C-Spain" fill="#1f77b4" style="opacity: 1;"></circle><circle cx="65.05263157894737" cy="318.30124363676435" r="4" class="C-Spain" fill="#1f77b4" style="opacity: 1;"></circle><circle cx="75.89473684210526" cy="306.6166759630483" r="4" class="C-Spain" fill="#1f77b4" style="opacity: 1;"></circle><circle cx="86.73684210526315" cy="285.13257288061806" r="4" class="C-Spain" fill="#1f77b4" style="opacity: 1;"></circle><circle cx="97.57894736842105" cy="268.02561574145165" r="4" class="C-Spain" fill="#1f77b4" style="opacity: 1;"></circle><circle cx="108.42105263157895" cy="247.32984151551562" r="4" class="C-Spain" fill="#1f77b4" style="opacity: 1;"></circle><circle cx="119.26315789473684" cy="229.01312627844644" r="4" class="C-Spain" fill="#1f77b4" style="opacity: 1;"></circle><circle cx="130.10526315789474" cy="208.44546613707593" r="4" class="C-Spain" fill="#1f77b4" style="opacity: 1;"></circle><circle cx="140.94736842105263" cy="193.8576710043582" r="4" class="C-Spain" fill="#1f77b4" style="opacity: 1;"></circle><circle cx="151.78947368421052" cy="174.27925076900368" r="4" class="C-Spain" fill="#1f77b4" style="opacity: 1;"></circle><circle cx="162.6315789473684" cy="160.82069810798484" r="4" class="C-Spain" fill="#1f77b4" style="opacity: 1;"></circle><circle cx="173.4736842105263" cy="148.6103634181174" r="4" class="C-Spain" fill="#1f77b4" style="opacity: 1;"></circle><circle cx="184.31578947368422" cy="137.22041165934195" r="4" class="C-Spain" fill="#1f77b4" style="opacity: 1;"></circle><circle cx="195.1578947368421" cy="127.58902879584977" r="4" class="C-Spain" fill="#1f77b4" style="opacity: 1;"></circle><circle cx="206" cy="118.15807349543606" r="4" class="C-Spain" fill="#1f77b4" style="opacity: 1;"></circle><circle cx="216.8421052631579" cy="111.22890776448763" r="4" class="C-Spain" fill="#1f77b4" style="opacity: 1;"></circle><circle cx="227.68421052631578" cy="103.47760293299457" r="4" class="C-Spain" fill="#1f77b4" style="opacity: 1;"></circle><circle cx="238.52631578947367" cy="96.17835577876555" r="4" class="C-Spain" fill="#1f77b4" style="opacity: 1;"></circle><circle cx="249.3684210526316" cy="90.26647163011408" r="4" class="C-Spain" fill="#1f77b4" style="opacity: 1;"></circle><circle cx="260.2105263157895" cy="85.41778077275785" r="4" class="C-Spain" fill="#1f77b4" style="opacity: 1;"></circle><circle cx="271.05263157894734" cy="81.18914944121686" r="4" class="C-Spain" fill="#1f77b4" style="opacity: 1;"></circle><circle cx="281.89473684210526" cy="77.15289289455568" r="4" class="C-Spain" fill="#1f77b4" style="opacity: 1;"></circle><circle cx="292.7368421052632" cy="73.30176504481723" r="4" class="C-Spain" fill="#1f77b4" style="opacity: 1;"></circle><circle cx="303.57894736842104" cy="69.42101310495907" r="4" class="C-Spain" fill="#1f77b4" style="opacity: 1;"></circle><circle cx="314.42105263157896" cy="66.17619766295152" r="4" class="C-Spain" fill="#1f77b4" style="opacity: 1;"></circle><circle cx="325.2631578947368" cy="63.163888276946686" r="4" class="C-Spain" fill="#1f77b4" style="opacity: 1;"></circle><circle cx="336.10526315789474" cy="60.75803145046122" r="4" class="C-Spain" fill="#1f77b4" style="opacity: 1;"></circle><circle cx="346.9473684210526" cy="58.08685762781124" r="4" class="C-Spain" fill="#1f77b4" style="opacity: 1;"></circle><circle cx="357.7894736842106" cy="55.74350623795682" r="4" class="C-Spain" fill="#1f77b4" style="opacity: 1;"></circle><circle cx="368.63157894736844" cy="54.48877408405867" r="4" class="C-Spain" fill="#1f77b4" style="opacity: 1;"></circle><circle cx="379.4736842105263" cy="51.83222059130521" r="4" class="C-Spain" fill="#1f77b4" style="opacity: 1;"></circle><circle cx="390.3157894736842" cy="49.440957293342194" r="4" class="C-Spain" fill="#1f77b4" style="opacity: 1;"></circle><circle cx="401.1578947368421" cy="46.823565363636355" r="4" class="C-Spain" fill="#1f77b4" style="opacity: 1;"></circle><circle cx="412" cy="46.67021532146987" r="4" class="C-Spain" fill="#1f77b4" style="opacity: 1;"></circle><circle cx="422.8421052631579" cy="45.1537420576274" r="4" class="C-Spain" fill="#1f77b4" style="opacity: 1;"></circle><circle cx="433.6842105263158" cy="43.706863877023714" r="4" class="C-Spain" fill="#1f77b4" style="opacity: 1;"></circle><circle cx="444.5263157894737" cy="42.17824565513711" r="4" class="C-Spain" fill="#1f77b4" style="opacity: 1;"></circle><circle cx="455.36842105263156" cy="40.662962110221024" r="4" class="C-Spain" fill="#1f77b4" style="opacity: 1;"></circle><circle cx="466.2105263157895" cy="39.160829774000646" r="4" class="C-Spain" fill="#1f77b4" style="opacity: 1;"></circle><circle cx="477.05263157894734" cy="37.930557784863815" r="4" class="C-Spain" fill="#1f77b4" style="opacity: 1;"></circle><circle cx="487.89473684210526" cy="36.68419200435879" r="4" class="C-Spain" fill="#1f77b4" style="opacity: 1;"></circle><circle cx="498.7368421052632" cy="35.748310691031016" r="4" class="C-Spain" fill="#1f77b4" style="opacity: 1;"></circle><circle cx="509.57894736842104" cy="34.68694685096152" r="4" class="C-Spain" fill="#1f77b4" style="opacity: 1;"></circle><circle cx="520.421052631579" cy="33.734666634176676" r="4" class="C-Spain" fill="#1f77b4" style="opacity: 1;"></circle><circle cx="531.2631578947369" cy="32.32394526503274" r="4" class="C-Spain" fill="#1f77b4" style="opacity: 1;"></circle><circle cx="542.1052631578947" cy="31.501688674399897" r="4" class="C-Spain" fill="#1f77b4" style="opacity: 1;"></circle><circle cx="552.9473684210526" cy="31.501688674399897" r="4" class="C-Spain" fill="#1f77b4" style="opacity: 1;"></circle><circle cx="563.7894736842105" cy="29.82109164587832" r="4" class="C-Spain" fill="#1f77b4" style="opacity: 1;"></circle><circle cx="574.6315789473683" cy="29.33336851047663" r="4" class="C-Spain" fill="#1f77b4" style="opacity: 1;"></circle><circle cx="585.4736842105264" cy="28.848801184834073" r="4" class="C-Spain" fill="#1f77b4" style="opacity: 1;"></circle><circle cx="596.3157894736843" cy="28.305922681544192" r="4" class="C-Spain" fill="#1f77b4" style="opacity: 1;"></circle><circle cx="607.1578947368421" cy="27.59587567513272" r="4" class="C-Spain" fill="#1f77b4" style="opacity: 1;"></circle><circle cx="618" cy="26.981495779480337" r="4" class="C-Spain" fill="#1f77b4" style="opacity: 1;"></circle><circle cx="628.8421052631579" cy="26.32653972864801" r="4" class="C-Spain" fill="#1f77b4" style="opacity: 1;"></circle><circle cx="639.6842105263158" cy="25.818546193366878" r="4" class="C-Spain" fill="#1f77b4" style="opacity: 1;"></circle><circle cx="650.5263157894736" cy="25.41518052212871" r="4" class="C-Spain" fill="#1f77b4" style="opacity: 1;"></circle><circle cx="661.3684210526316" cy="25.069959244102268" r="4" class="C-Spain" fill="#1f77b4" style="opacity: 1;"></circle><circle cx="672.2105263157895" cy="24.57873547477035" r="4" class="C-Spain" fill="#1f77b4" style="opacity: 1;"></circle><circle cx="683.0526315789473" cy="24.06860536864225" r="4" class="C-Spain" fill="#1f77b4" style="opacity: 1;"></circle><circle cx="693.8947368421052" cy="23.471416386247334" r="4" class="C-Spain" fill="#1f77b4" style="opacity: 1;"></circle><circle cx="704.7368421052631" cy="23.09409956548436" r="4" class="C-Spain" fill="#1f77b4" style="opacity: 1;"></circle><circle cx="715.5789473684212" cy="22.810995782155118" r="4" class="C-Spain" fill="#1f77b4" style="opacity: 1;"></circle><circle cx="726.421052631579" cy="22.810995782155118" r="4" class="C-Spain" fill="#1f77b4" style="opacity: 1;"></circle><circle cx="737.2631578947369" cy="22.4153588045779" r="4" class="C-Spain" fill="#1f77b4" style="opacity: 1;"></circle><circle cx="748.1052631578948" cy="22.229104525454623" r="4" class="C-Spain" fill="#1f77b4" style="opacity: 1;"></circle><circle cx="758.9473684210526" cy="21.933131982135645" r="4" class="C-Spain" fill="#1f77b4" style="opacity: 1;"></circle><circle cx="769.7894736842105" cy="21.79362382923278" r="4" class="C-Spain" fill="#1f77b4" style="opacity: 1;"></circle><circle cx="780.6315789473684" cy="19.971880371065176" r="4" class="C-Spain" fill="#1f77b4" style="opacity: 1;"></circle><circle cx="791.4736842105262" cy="19.841197638079954" r="4" class="C-Spain" fill="#1f77b4" style="opacity: 1;"></circle><circle cx="802.3157894736842" cy="19.64820473764073" r="4" class="C-Spain" fill="#1f77b4" style="opacity: 1;"></circle><circle cx="813.1578947368421" cy="24.818362735985588" r="4" class="C-Spain" fill="#1f77b4" style="opacity: 1;"></circle><circle cx="824" cy="24.03269465573965" r="4" class="C-Spain" fill="#1f77b4" style="opacity: 1;"></circle><path fill="none" class="C-Portugal" stroke="#ff7f0e" stroke-width="4" d="M0,488.3895398944997L10.842105263157894,476.84534532272806L21.684210526315788,439.6676694627566L32.526315789473685,412.6317309345619L43.368421052631575,392.80916284001415L54.21052631578947,367.86029906892776L65.05263157894737,350.1573732588382L75.89473684210526,329.6050646475843L86.73684210526315,316.5778705665303L97.57894736842105,304.4069859111997L108.42105263157895,294.406949715287L119.26315789473684,282.72914399663625L130.10526315789474,274.39956429890043L140.94736842105263,262.19285614230756L151.78947368421052,256.339172282838L162.6315789473684,248.5897269968931L173.4736842105263,244.63427158081004L184.31578947368422,236.86442223295617L195.1578947368421,229.62813243326625L206,224.12050100100527L216.8421052631579,219.50502467644088L227.68421052631578,213.7096126611468L238.52631578947367,208.4790953423582L249.3684210526316,204.0089334046618L260.2105263157895,199.65843829177044L271.05263157894734,195.54685883225386L281.89473684210526,191.887057604044L292.7368421052632,188.62543360901591L303.57894736842104,185.2816180106096L314.42105263157896,182.39474557634537L325.2631578947368,180.22389711692745L336.10526315789474,177.5221963149421L346.9473684210526,175.2952091512755L357.7894736842106,172.02850313500772L368.63157894736844,168.98599756501676L379.4736842105263,166.7400221693929L390.3157894736842,164.8078368738291L401.1578947368421,162.76267897645934L412,161.16583749750552L422.8421052631579,159.2165075582442L433.6842105263158,157.99504883212973L444.5263157894737,156.64430830390464L455.36842105263156,155.46376716058197L466.2105263157895,154.0137890880106L477.05263157894734,152.5913526318266L487.89473684210526,151.82037782299435L498.7368421052632,150.78167839848282L509.57894736842104,149.68938515374586L520.421052631579,149.0818998473049L531.2631578947369,148.27950972888226L542.1052631578947,147.6833090995473L552.9473684210526,147.09181743175213L563.7894736842105,145.85824681760633L574.6315789473683,145.08949042153125L585.4736842105264,144.51805801641615L596.3157894736843,144.13951115500194L607.1578947368421,143.3258321404361L618,142.39782735409983L628.8421052631579,141.6027546649009L639.6842105263158,140.6356512756145L650.5263157894736,139.6808778274627L661.3684210526316,138.85532112751454L672.2105263157895,138.15487304730038L683.0526315789473,137.40337514451954L693.8947368421052,136.60241533880574L704.7368421052631,135.80993145726612L715.5789473684212,135.1372709951228" style="opacity: 1;"></path><circle cx="0" cy="488.3895398944997" r="4" class="C-Portugal" fill="#ff7f0e" style="opacity: 1;"></circle><circle cx="10.842105263157894" cy="476.84534532272806" r="4" class="C-Portugal" fill="#ff7f0e" style="opacity: 1;"></circle><circle cx="21.684210526315788" cy="439.6676694627566" r="4" class="C-Portugal" fill="#ff7f0e" style="opacity: 1;"></circle><circle cx="32.526315789473685" cy="412.6317309345619" r="4" class="C-Portugal" fill="#ff7f0e" style="opacity: 1;"></circle><circle cx="43.368421052631575" cy="392.80916284001415" r="4" class="C-Portugal" fill="#ff7f0e" style="opacity: 1;"></circle><circle cx="54.21052631578947" cy="367.86029906892776" r="4" class="C-Portugal" fill="#ff7f0e" style="opacity: 1;"></circle><circle cx="65.05263157894737" cy="350.1573732588382" r="4" class="C-Portugal" fill="#ff7f0e" style="opacity: 1;"></circle><circle cx="75.89473684210526" cy="329.6050646475843" r="4" class="C-Portugal" fill="#ff7f0e" style="opacity: 1;"></circle><circle cx="86.73684210526315" cy="316.5778705665303" r="4" class="C-Portugal" fill="#ff7f0e" style="opacity: 1;"></circle><circle cx="97.57894736842105" cy="304.4069859111997" r="4" class="C-Portugal" fill="#ff7f0e" style="opacity: 1;"></circle><circle cx="108.42105263157895" cy="294.406949715287" r="4" class="C-Portugal" fill="#ff7f0e" style="opacity: 1;"></circle><circle cx="119.26315789473684" cy="282.72914399663625" r="4" class="C-Portugal" fill="#ff7f0e" style="opacity: 1;"></circle><circle cx="130.10526315789474" cy="274.39956429890043" r="4" class="C-Portugal" fill="#ff7f0e" style="opacity: 1;"></circle><circle cx="140.94736842105263" cy="262.19285614230756" r="4" class="C-Portugal" fill="#ff7f0e" style="opacity: 1;"></circle><circle cx="151.78947368421052" cy="256.339172282838" r="4" class="C-Portugal" fill="#ff7f0e" style="opacity: 1;"></circle><circle cx="162.6315789473684" cy="248.5897269968931" r="4" class="C-Portugal" fill="#ff7f0e" style="opacity: 1;"></circle><circle cx="173.4736842105263" cy="244.63427158081004" r="4" class="C-Portugal" fill="#ff7f0e" style="opacity: 1;"></circle><circle cx="184.31578947368422" cy="236.86442223295617" r="4" class="C-Portugal" fill="#ff7f0e" style="opacity: 1;"></circle><circle cx="195.1578947368421" cy="229.62813243326625" r="4" class="C-Portugal" fill="#ff7f0e" style="opacity: 1;"></circle><circle cx="206" cy="224.12050100100527" r="4" class="C-Portugal" fill="#ff7f0e" style="opacity: 1;"></circle><circle cx="216.8421052631579" cy="219.50502467644088" r="4" class="C-Portugal" fill="#ff7f0e" style="opacity: 1;"></circle><circle cx="227.68421052631578" cy="213.7096126611468" r="4" class="C-Portugal" fill="#ff7f0e" style="opacity: 1;"></circle><circle cx="238.52631578947367" cy="208.4790953423582" r="4" class="C-Portugal" fill="#ff7f0e" style="opacity: 1;"></circle><circle cx="249.3684210526316" cy="204.0089334046618" r="4" class="C-Portugal" fill="#ff7f0e" style="opacity: 1;"></circle><circle cx="260.2105263157895" cy="199.65843829177044" r="4" class="C-Portugal" fill="#ff7f0e" style="opacity: 1;"></circle><circle cx="271.05263157894734" cy="195.54685883225386" r="4" class="C-Portugal" fill="#ff7f0e" style="opacity: 1;"></circle><circle cx="281.89473684210526" cy="191.887057604044" r="4" class="C-Portugal" fill="#ff7f0e" style="opacity: 1;"></circle><circle cx="292.7368421052632" cy="188.62543360901591" r="4" class="C-Portugal" fill="#ff7f0e" style="opacity: 1;"></circle><circle cx="303.57894736842104" cy="185.2816180106096" r="4" class="C-Portugal" fill="#ff7f0e" style="opacity: 1;"></circle><circle cx="314.42105263157896" cy="182.39474557634537" r="4" class="C-Portugal" fill="#ff7f0e" style="opacity: 1;"></circle><circle cx="325.2631578947368" cy="180.22389711692745" r="4" class="C-Portugal" fill="#ff7f0e" style="opacity: 1;"></circle><circle cx="336.10526315789474" cy="177.5221963149421" r="4" class="C-Portugal" fill="#ff7f0e" style="opacity: 1;"></circle><circle cx="346.9473684210526" cy="175.2952091512755" r="4" class="C-Portugal" fill="#ff7f0e" style="opacity: 1;"></circle><circle cx="357.7894736842106" cy="172.02850313500772" r="4" class="C-Portugal" fill="#ff7f0e" style="opacity: 1;"></circle><circle cx="368.63157894736844" cy="168.98599756501676" r="4" class="C-Portugal" fill="#ff7f0e" style="opacity: 1;"></circle><circle cx="379.4736842105263" cy="166.7400221693929" r="4" class="C-Portugal" fill="#ff7f0e" style="opacity: 1;"></circle><circle cx="390.3157894736842" cy="164.8078368738291" r="4" class="C-Portugal" fill="#ff7f0e" style="opacity: 1;"></circle><circle cx="401.1578947368421" cy="162.76267897645934" r="4" class="C-Portugal" fill="#ff7f0e" style="opacity: 1;"></circle><circle cx="412" cy="161.16583749750552" r="4" class="C-Portugal" fill="#ff7f0e" style="opacity: 1;"></circle><circle cx="422.8421052631579" cy="159.2165075582442" r="4" class="C-Portugal" fill="#ff7f0e" style="opacity: 1;"></circle><circle cx="433.6842105263158" cy="157.99504883212973" r="4" class="C-Portugal" fill="#ff7f0e" style="opacity: 1;"></circle><circle cx="444.5263157894737" cy="156.64430830390464" r="4" class="C-Portugal" fill="#ff7f0e" style="opacity: 1;"></circle><circle cx="455.36842105263156" cy="155.46376716058197" r="4" class="C-Portugal" fill="#ff7f0e" style="opacity: 1;"></circle><circle cx="466.2105263157895" cy="154.0137890880106" r="4" class="C-Portugal" fill="#ff7f0e" style="opacity: 1;"></circle><circle cx="477.05263157894734" cy="152.5913526318266" r="4" class="C-Portugal" fill="#ff7f0e" style="opacity: 1;"></circle><circle cx="487.89473684210526" cy="151.82037782299435" r="4" class="C-Portugal" fill="#ff7f0e" style="opacity: 1;"></circle><circle cx="498.7368421052632" cy="150.78167839848282" r="4" class="C-Portugal" fill="#ff7f0e" style="opacity: 1;"></circle><circle cx="509.57894736842104" cy="149.68938515374586" r="4" class="C-Portugal" fill="#ff7f0e" style="opacity: 1;"></circle><circle cx="520.421052631579" cy="149.0818998473049" r="4" class="C-Portugal" fill="#ff7f0e" style="opacity: 1;"></circle><circle cx="531.2631578947369" cy="148.27950972888226" r="4" class="C-Portugal" fill="#ff7f0e" style="opacity: 1;"></circle><circle cx="542.1052631578947" cy="147.6833090995473" r="4" class="C-Portugal" fill="#ff7f0e" style="opacity: 1;"></circle><circle cx="552.9473684210526" cy="147.09181743175213" r="4" class="C-Portugal" fill="#ff7f0e" style="opacity: 1;"></circle><circle cx="563.7894736842105" cy="145.85824681760633" r="4" class="C-Portugal" fill="#ff7f0e" style="opacity: 1;"></circle><circle cx="574.6315789473683" cy="145.08949042153125" r="4" class="C-Portugal" fill="#ff7f0e" style="opacity: 1;"></circle><circle cx="585.4736842105264" cy="144.51805801641615" r="4" class="C-Portugal" fill="#ff7f0e" style="opacity: 1;"></circle><circle cx="596.3157894736843" cy="144.13951115500194" r="4" class="C-Portugal" fill="#ff7f0e" style="opacity: 1;"></circle><circle cx="607.1578947368421" cy="143.3258321404361" r="4" class="C-Portugal" fill="#ff7f0e" style="opacity: 1;"></circle><circle cx="618" cy="142.39782735409983" r="4" class="C-Portugal" fill="#ff7f0e" style="opacity: 1;"></circle><circle cx="628.8421052631579" cy="141.6027546649009" r="4" class="C-Portugal" fill="#ff7f0e" style="opacity: 1;"></circle><circle cx="639.6842105263158" cy="140.6356512756145" r="4" class="C-Portugal" fill="#ff7f0e" style="opacity: 1;"></circle><circle cx="650.5263157894736" cy="139.6808778274627" r="4" class="C-Portugal" fill="#ff7f0e" style="opacity: 1;"></circle><circle cx="661.3684210526316" cy="138.85532112751454" r="4" class="C-Portugal" fill="#ff7f0e" style="opacity: 1;"></circle><circle cx="672.2105263157895" cy="138.15487304730038" r="4" class="C-Portugal" fill="#ff7f0e" style="opacity: 1;"></circle><circle cx="683.0526315789473" cy="137.40337514451954" r="4" class="C-Portugal" fill="#ff7f0e" style="opacity: 1;"></circle><circle cx="693.8947368421052" cy="136.60241533880574" r="4" class="C-Portugal" fill="#ff7f0e" style="opacity: 1;"></circle><circle cx="704.7368421052631" cy="135.80993145726612" r="4" class="C-Portugal" fill="#ff7f0e" style="opacity: 1;"></circle><circle cx="715.5789473684212" cy="135.1372709951228" r="4" class="C-Portugal" fill="#ff7f0e" style="opacity: 1;"></circle></g></svg>